<?xml version="1.0" encoding="UTF-8" standalone="no"?>
<svg
   id="Layer_1"
   data-name="Layer 1"
   viewBox="0 0 1920 1080"
   version="1.1"
   sodipodi:docname="i3wm_00_scalable.svg"
   width="1920"
   height="1080"
   inkscape:version="1.2 (dc2aedaf03, 2022-05-15)"
   xmlns:inkscape="http://www.inkscape.org/namespaces/inkscape"
   xmlns:sodipodi="http://sodipodi.sourceforge.net/DTD/sodipodi-0.dtd"
   xmlns:xlink="http://www.w3.org/1999/xlink"
   xmlns="http://www.w3.org/2000/svg"
   xmlns:svg="http://www.w3.org/2000/svg"
   xmlns:rdf="http://www.w3.org/1999/02/22-rdf-syntax-ns#"
   xmlns:cc="http://creativecommons.org/ns#"
   xmlns:dc="http://purl.org/dc/elements/1.1/">
  <metadata
     id="metadata13">
    <rdf:RDF>
      <cc:Work
         rdf:about="">
        <dc:format>image/svg+xml</dc:format>
        <dc:type
           rdf:resource="http://purl.org/dc/dcmitype/StillImage" />
        <dc:title>Android robot</dc:title>
      </cc:Work>
    </rdf:RDF>
  </metadata>
  <sodipodi:namedview
     pagecolor="#ffffff"
     bordercolor="#666666"
     borderopacity="1"
     objecttolerance="10"
     gridtolerance="10"
     guidetolerance="10"
     inkscape:pageopacity="0"
     inkscape:pageshadow="2"
     inkscape:window-width="1670"
     inkscape:window-height="1048"
     id="namedview11"
     showgrid="false"
     fit-margin-top="0"
     fit-margin-left="0"
     fit-margin-right="0"
     fit-margin-bottom="0"
     inkscape:zoom="0.34458396"
     inkscape:cx="512.21189"
     inkscape:cy="69.649208"
     inkscape:window-x="2170"
     inkscape:window-y="32"
     inkscape:window-maximized="1"
     inkscape:current-layer="Layer_1"
     inkscape:document-rotation="0"
     inkscape:snap-intersection-paths="true"
     inkscape:object-paths="true"
     inkscape:showpageshadow="0"
     inkscape:pagecheckerboard="0"
     inkscape:deskcolor="#d1d1d1" />
  <defs
     id="defs4">
    <style
       id="style2">.cls-1{fill:#3ddc84;}</style>
    <inkscape:perspective
       sodipodi:type="inkscape:persp3d"
       inkscape:vp_x="0 : 384 : 1"
       inkscape:vp_y="0 : 1000 : 0"
       inkscape:vp_z="1024 : 384 : 1"
       inkscape:persp3d-origin="512 : 256 : 1"
       id="perspective279" />
    <pattern
       inkscape:collect="always"
       xlink:href="#pattern4481"
       id="pattern4486"
       patternTransform="matrix(0.4295427,0,0,0.4295427,-4.3554687e-6,-4.3457032e-7)" />
    <pattern
       inkscape:collect="always"
       xlink:href="#pattern4467"
       id="pattern4481"
       patternTransform="matrix(0.4295427,0,0,0.4295427,-130.66779,-129.37468)" />
    <linearGradient
       id="linearGradient3588">
      <stop
         style="stop-color:#bfe699;stop-opacity:1;"
         offset="0"
         id="stop3590" />
      <stop
         style="stop-color:#313e24;stop-opacity:1;"
         offset="1"
         id="stop3592" />
    </linearGradient>
    <linearGradient
       id="linearGradient3570">
      <stop
         id="stop3572"
         offset="0"
         style="stop-color:#e5ffcb;stop-opacity:1;" />
      <stop
         id="stop3574"
         offset="1"
         style="stop-color:#bfff80;stop-opacity:1;" />
    </linearGradient>
    <linearGradient
       id="linearGradient3303">
      <stop
         style="stop-color:#bfff80;stop-opacity:1;"
         offset="0"
         id="stop3305" />
      <stop
         style="stop-color:#6a8b4a;stop-opacity:1;"
         offset="1"
         id="stop3307" />
    </linearGradient>
    <linearGradient
       id="linearGradient3431">
      <stop
         id="stop3433"
         offset="0"
         style="stop-color:#3d3d3d;stop-opacity:1;" />
      <stop
         id="stop3435"
         offset="1"
         style="stop-color:#000000;stop-opacity:0.11400651;" />
    </linearGradient>
    <linearGradient
       id="linearGradient3349">
      <stop
         style="stop-color:#d3d3d3;stop-opacity:1;"
         offset="0"
         id="stop3351" />
      <stop
         style="stop-color:#ffffff;stop-opacity:1;"
         offset="1"
         id="stop3353" />
    </linearGradient>
    <linearGradient
       id="linearGradient3312">
      <stop
         style="stop-color:#c7f994;stop-opacity:1;"
         offset="0"
         id="stop3314" />
      <stop
         style="stop-color:#87cf3e;stop-opacity:1;"
         offset="1"
         id="stop3316" />
    </linearGradient>
    <linearGradient
       inkscape:collect="always"
       xlink:href="#linearGradient3312"
       id="linearGradient3335"
       gradientUnits="userSpaceOnUse"
       x1="61.42857"
       y1="362.14285"
       x2="116.42857"
       y2="408.57144" />
    <linearGradient
       inkscape:collect="always"
       xlink:href="#linearGradient3349"
       id="linearGradient3374"
       gradientUnits="userSpaceOnUse"
       x1="140.66374"
       y1="424.33243"
       x2="67.175148"
       y2="348.57098" />
    <linearGradient
       inkscape:collect="always"
       xlink:href="#linearGradient3312"
       id="linearGradient3377"
       gradientUnits="userSpaceOnUse"
       x1="61.42857"
       y1="362.14285"
       x2="116.42857"
       y2="408.57144"
       gradientTransform="translate(0,-9.49911)" />
    <linearGradient
       inkscape:collect="always"
       xlink:href="#linearGradient3312"
       id="linearGradient3416"
       gradientUnits="userSpaceOnUse"
       gradientTransform="matrix(1,0,0,-1,0,649.49911)"
       x1="61.42857"
       y1="362.14285"
       x2="116.42857"
       y2="408.57144" />
    <linearGradient
       inkscape:collect="always"
       xlink:href="#linearGradient3431"
       id="linearGradient2259"
       gradientUnits="userSpaceOnUse"
       spreadMethod="pad"
       x1="70.491508"
       y1="416.38858"
       x2="113.64215"
       y2="375.87961" />
    <linearGradient
       inkscape:collect="always"
       xlink:href="#linearGradient3588"
       id="linearGradient3737"
       gradientUnits="userSpaceOnUse"
       x1="26.795013"
       y1="216.34912"
       x2="149.90654"
       y2="323.98651" />
    <pattern
       patternUnits="userSpaceOnUse"
       width="256"
       height="256"
       patternTransform="translate(-297.8418,85.357452)"
       id="pattern4467">
      <image
         xlink:href="../../123381-mint-logo-white-bg1-Dateien/metal5.html"
         width="256"
         height="256"
         id="image4464"
         x="0"
         y="0" />
    </pattern>
    <pattern
       patternUnits="userSpaceOnUse"
       width="109.96293"
       height="109.96293"
       patternTransform="translate(-130.66779,-129.37468)"
       id="pattern4483">
      <rect
         id="rect4470"
         y="0"
         x="0"
         height="109.96293"
         width="109.96293"
         style="fill:url(#pattern4486);stroke:none" />
    </pattern>
    <linearGradient
       inkscape:collect="always"
       xlink:href="#linearGradient3349"
       id="linearGradient3000"
       gradientUnits="userSpaceOnUse"
       gradientTransform="matrix(1.0484996,0,0,1.0484996,59.525242,85.095989)"
       x1="148.5945"
       y1="426.11398"
       x2="100.47015"
       y2="379.95963" />
    <linearGradient
       inkscape:collect="always"
       xlink:href="#linearGradient3312"
       id="linearGradient3006"
       gradientUnits="userSpaceOnUse"
       gradientTransform="matrix(1.0484996,0,0,1.0484996,59.525242,75.136176)"
       x1="61.42857"
       y1="362.14285"
       x2="116.42857"
       y2="408.57144" />
    <linearGradient
       inkscape:collect="always"
       xlink:href="#linearGradient3312"
       id="linearGradient4003"
       gradientUnits="userSpaceOnUse"
       gradientTransform="matrix(1.0484996,0,0,1.0484996,210.01137,213.49817)"
       x1="61.42857"
       y1="362.14285"
       x2="116.42857"
       y2="408.57144" />
    <linearGradient
       inkscape:collect="always"
       xlink:href="#linearGradient3349"
       id="linearGradient4007"
       gradientUnits="userSpaceOnUse"
       gradientTransform="matrix(1.0484996,0,0,1.0484996,210.01137,223.45798)"
       x1="148.5945"
       y1="426.11398"
       x2="100.47015"
       y2="379.95963" />
  </defs>
  <title
     id="title6">Android robot</title>
  <g
     id="g3807">
    <rect
       style="fill:#1a1b26;fill-opacity:1;fill-rule:nonzero;stroke-width:104.97;stroke-linecap:round;stroke-linejoin:round;paint-order:stroke markers fill"
       id="rect835"
       width="1920"
       height="1080"
       x="-7.4218752e-07"
       y="5.2734376e-06" />
    <path
       style="fill:#73daca;fill-opacity:1;stroke:none;stroke-width:7.56766;stroke-linejoin:round;stroke-miterlimit:4;stroke-dasharray:none;stroke-opacity:1;paint-order:stroke markers fill"
       d="M 0,432.61133 V 647.38672 H 1385.998 L 1172.5605,432.61133 Z"
       id="rect2943" />
    <path
       style="fill:#7aa2f7;fill-opacity:1;stroke:none;stroke-width:6.69537;stroke-linejoin:round;stroke-miterlimit:4;stroke-dasharray:none;stroke-opacity:1;paint-order:stroke markers fill"
       d="M 0,486.30469 V 647.38672 H 1385.998 L 1225.9199,486.30469 Z"
       id="rect2945" />
    <path
       style="fill:#e0af68;fill-opacity:1;stroke:none;stroke-width:5.46676;stroke-linejoin:round;stroke-miterlimit:4;stroke-dasharray:none;stroke-opacity:1;paint-order:stroke markers fill"
       d="M 0,540 V 647.38672 H 1385.998 L 1279.2793,540 Z"
       id="path940" />
    <path
       style="fill:#f7768e;fill-opacity:1;stroke:none;stroke-width:3.91665;stroke-linejoin:round;stroke-miterlimit:4;stroke-dasharray:none;stroke-opacity:1;paint-order:stroke markers fill"
       d="m 0,593.69336 v 53.69336 h 1385.998 l -53.3593,-53.69336 z"
       id="path949" />
    <path
       id="path4403"
       style="opacity:1;fill:#a9b1d6;fill-opacity:1;fill-rule:evenodd;stroke-width:1.58104;stroke-miterlimit:4;stroke-dasharray:none"
       d="m 1446.309,239.83421 a 22.777012,22.777012 0 0 0 -15.9241,38.91617 22.777716,22.777716 0 0 0 32.1456,-32.27935 22.777012,22.777012 0 0 0 -16.2215,-6.63682 z m 52.1579,53.79325 c -6.1524,0.0159 -12.0353,2.52028 -16.3127,6.94264 -8.7399,9.03629 -8.5069,23.44301 0.5204,32.19226 0,0 46.9386,46.74548 105.6114,105.17388 12.5388,12.48667 14.56,27.4827 8.2889,49.20588 -6.271,21.72319 -22.5026,47.20873 -43.3442,68.13726 -20.8413,20.92852 -46.2578,37.26512 -67.9546,43.62671 -21.6969,6.3616 -36.7009,4.40141 -49.2398,-8.08523 -29.2516,-29.1299 -55.3687,-55.60804 -74.362,-74.75284 -9.4968,-9.5724 -17.1817,-17.30035 -22.7288,-22.73508 -2.7736,-2.71737 -4.9681,-4.80947 -6.8577,-6.52849 -0.9446,-0.85951 -1.7186,-1.56466 -3.0434,-2.59527 -0.6623,-0.5153 -1.2795,-1.09417 -3.3259,-2.24059 -1.0231,-0.57321 -2.2487,-1.39701 -5.7087,-2.27032 -3.46,-0.87333 -13.2737,-2.54157 -21.7985,6.0188 -5.072,4.96365 -7.5404,12.00836 -6.6771,19.05243 0.8633,7.04409 4.9612,13.28164 11.0819,16.87345 1.1265,1.05405 2.4109,2.2356 4.4536,4.23694 5.1736,5.06883 12.8195,12.75046 22.2764,22.2827 18.9138,19.0645 45.1238,45.6391 74.5447,74.93762 25.5984,25.49181 62.2643,28.88371 94.2087,19.51754 31.9442,-9.3662 62.1553,-29.83412 87.4106,-55.19495 25.2553,-25.36083 45.5968,-55.65475 54.8297,-87.6378 9.2328,-31.98308 5.6877,-68.6363 -19.9106,-94.12811 -58.6724,-58.42841 -105.6114,-105.17175 -105.6114,-105.17175 -4.3002,-4.40003 -10.1984,-6.87367 -16.3509,-6.85768 z m -145.9122,40.35182 a 22.777012,22.777012 0 0 0 -15.9241,38.91619 22.777012,22.777012 0 0 0 32.1455,-32.27725 22.777012,22.777012 0 0 0 -16.2214,-6.63894 z m 53.617,53.3048 c -6.1525,0.016 -12.0354,2.52025 -16.3127,6.94262 -8.7398,9.03627 -8.5093,23.44302 0.518,32.19228 l 118.4072,117.91444 c 5.7385,5.8785 14.1977,8.21121 22.1384,6.10587 7.9407,-2.10534 14.1323,-8.32302 16.2044,-16.2724 2.0721,-7.94939 -0.297,-16.39894 -6.1994,-22.11281 L 1422.5227,394.14176 c -4.3004,-4.40007 -10.1986,-6.87366 -16.351,-6.85768 z m -144.6933,38.15159 a 22.777012,22.777012 0 0 0 -15.9241,38.91616 22.777012,22.777012 0 0 0 32.1456,-32.27723 22.777012,22.777012 0 0 0 -16.2215,-6.63893 z" />
  </g>
</svg>
