<?xml version="1.0" encoding="UTF-8" standalone="no"?>
<svg
   version="1.1"
   id="svg5033"
   xml:space="preserve"
   width="1920"
   height="1080"
   viewBox="0 0 1920 1080"
   sodipodi:docname="wordpress_00_scalable.svg"
   inkscape:version="1.2 (dc2aedaf03, 2022-05-15)"
   inkscape:export-filename="/home/fjall/1577101987penguin-silhouette-3-freesvg.org3.png"
   inkscape:export-xdpi="96"
   inkscape:export-ydpi="96"
   xmlns:inkscape="http://www.inkscape.org/namespaces/inkscape"
   xmlns:sodipodi="http://sodipodi.sourceforge.net/DTD/sodipodi-0.dtd"
   xmlns:xlink="http://www.w3.org/1999/xlink"
   xmlns="http://www.w3.org/2000/svg"
   xmlns:svg="http://www.w3.org/2000/svg"
   xmlns:rdf="http://www.w3.org/1999/02/22-rdf-syntax-ns#"
   xmlns:cc="http://creativecommons.org/ns#"
   xmlns:dc="http://purl.org/dc/elements/1.1/"><metadata
     id="metadata5039"><rdf:RDF><cc:Work
         rdf:about=""><dc:format>image/svg+xml</dc:format><dc:type
           rdf:resource="http://purl.org/dc/dcmitype/StillImage" /><dc:title /></cc:Work></rdf:RDF></metadata><defs
     id="defs5037"><marker
   style="overflow:visible"
   id="Arrow1Lstart"
   refX="0"
   refY="0"
   orient="auto"
   inkscape:stockid="Arrow1Lstart"
   inkscape:isstock="true"><path
     transform="matrix(0.8,0,0,0.8,10,0)"
     style="fill:#c53d3d;fill-opacity:0.795004;fill-rule:evenodd;stroke:none;stroke-width:1pt;stroke-opacity:1"
     d="M 0,0 5,-5 -12.5,0 5,5 Z"
     id="path2155" /></marker><clipPath
   clipPathUnits="userSpaceOnUse"
   id="clipPath5049"><path
     d="M 0,600 H 600 V 0 H 0 Z"
     id="path5047"
     inkscape:connector-curvature="0" /></clipPath><linearGradient
   x1="112.49854"
   y1="6.1372099"
   x2="112.49853"
   y2="129.3468"
   id="path1082_2_"
   gradientUnits="userSpaceOnUse"
   gradientTransform="translate(287,-83)"><stop
     id="stop193"
     style="stop-color:#ffffff;stop-opacity:0"
     offset="0" /><stop
     id="stop195"
     style="stop-color:#ffffff;stop-opacity:0.27450982"
     offset="1" /><midPointStop
     offset="0"
     style="stop-color:#FFFFFF"
     id="midPointStop197" /><midPointStop
     offset="0.5"
     style="stop-color:#FFFFFF"
     id="midPointStop199" /><midPointStop
     offset="1"
     style="stop-color:#000000"
     id="midPointStop201" /></linearGradient><linearGradient
   x1="541.33502"
   y1="104.50665"
   x2="606.91248"
   y2="303.14029"
   id="linearGradient2544"
   xlink:href="#path1082_2_"
   gradientUnits="userSpaceOnUse"
   gradientTransform="matrix(-0.3937741,0,0,0.393752,357.51969,122.00151)" /><linearGradient
   id="linearGradient3388"><stop
     id="stop3390"
     style="stop-color:#000000;stop-opacity:0"
     offset="0" /><stop
     id="stop3392"
     style="stop-color:#000000;stop-opacity:0.37113401"
     offset="1" /></linearGradient><linearGradient
   x1="490.72305"
   y1="237.72447"
   x2="490.72305"
   y2="183.9644"
   id="linearGradient4416"
   xlink:href="#linearGradient3388"
   gradientUnits="userSpaceOnUse"
   gradientTransform="matrix(0.749107,0,0,0.749107,-35.459862,91.44108)" />
	

		
		
		
		
		
		
		
		
	
			
			
			
			
			
		</defs><sodipodi:namedview
     pagecolor="#ffffff"
     bordercolor="#666666"
     borderopacity="1"
     objecttolerance="10"
     gridtolerance="10"
     guidetolerance="10"
     inkscape:pageopacity="0"
     inkscape:pageshadow="2"
     inkscape:window-width="1670"
     inkscape:window-height="1048"
     id="namedview5035"
     showgrid="false"
     inkscape:zoom="0.46984123"
     inkscape:cx="926.90886"
     inkscape:cy="508.68248"
     inkscape:window-x="2170"
     inkscape:window-y="32"
     inkscape:window-maximized="1"
     inkscape:current-layer="g5041"
     inkscape:document-rotation="0"
     inkscape:snap-global="false"
     showguides="true"
     inkscape:guide-bbox="true"
     fit-margin-top="0"
     fit-margin-left="0"
     fit-margin-right="0"
     fit-margin-bottom="0"
     inkscape:showpageshadow="0"
     inkscape:pagecheckerboard="0"
     inkscape:deskcolor="#d1d1d1"><inkscape:grid
       type="xygrid"
       id="grid997"
       originx="725.49429"
       originy="-129.70111" /></sodipodi:namedview><g
     id="g5041"
     inkscape:groupmode="layer"
     inkscape:label="penguin-clipart-publicdomainvectors.org"
     transform="matrix(1.3333333,0,0,-1.3333333,725.49429,670.29889)"><g
       id="g956"
       transform="translate(46.384326,0.71141601)"
       inkscape:label="g956" /><g
       id="g944"
       transform="translate(96.725563,0.71141601)" /><g
       id="Layer_1"
       transform="matrix(0.75000002,0,0,-0.75000002,-148.68472,45.947032)"
       inkscape:label="Layer_1">
</g><g
       id="g1069"><rect
         style="fill:#1a1b26;fill-opacity:1;fill-rule:nonzero;stroke-width:82.9858;stroke-linecap:round;stroke-linejoin:round;paint-order:stroke markers fill"
         id="rect864"
         width="1440"
         height="900"
         x="-544.12073"
         y="-547.72418"
         transform="scale(1,-1)" /><path
         style="fill:#73daca;fill-opacity:1;stroke:none;stroke-width:6.4888;stroke-linejoin:round;stroke-miterlimit:4;stroke-dasharray:none;stroke-opacity:1;paint-order:stroke markers fill"
         d="M 0,432.61133 V 647.38867 H 1405.4434 C 1384.1651,616.92552 1371.6621,579.89887 1371.6621,540 c 0,-39.89668 12.5044,-76.92398 33.7852,-107.38867 z"
         transform="matrix(0.75000002,0,0,-0.75000002,-544.12073,502.72418)"
         id="rect2943" /><path
         style="fill:#7aa2f7;fill-opacity:1;stroke:none;stroke-width:5.61948;stroke-linejoin:round;stroke-miterlimit:4;stroke-dasharray:none;stroke-opacity:1;paint-order:stroke markers fill"
         d="M 0,486.30469 V 647.38867 H 1405.4434 C 1384.1651,616.92552 1371.6621,579.89887 1371.6621,540 c 0,-18.65208 2.7454,-36.67327 7.8281,-53.69531 z"
         transform="matrix(0.75000002,0,0,-0.75000002,-544.12073,502.72418)"
         id="rect2945" /><path
         style="fill:#e0af68;fill-opacity:1;stroke:none;stroke-width:4.58829;stroke-linejoin:round;stroke-miterlimit:4;stroke-dasharray:none;stroke-opacity:1;paint-order:stroke markers fill"
         d="M 0,540 V 647.38867 H 1405.4434 C 1384.1651,616.92552 1371.6621,579.89887 1371.6621,540 Z"
         transform="matrix(0.75000002,0,0,-0.75000002,-544.12073,502.72418)"
         id="path940" /><path
         style="fill:#f7768e;fill-opacity:1;stroke:none;stroke-width:3.2444;stroke-linejoin:round;stroke-miterlimit:4;stroke-dasharray:none;stroke-opacity:1;paint-order:stroke markers fill"
         d="m 0,593.69336 v 53.69531 h 1405.4434 c -11.3311,-16.22208 -20.1667,-34.30644 -25.9551,-53.69531 z"
         transform="matrix(0.75000002,0,0,-0.75000002,-544.12073,502.72418)"
         id="path949" /><path
         id="path925"
         style="fill:#a9b1d6;fill-opacity:1;stroke-width:2.30144"
         d="m 625.61651,238.71425 c -77.74032,0 -140.99011,-63.24979 -140.99011,-140.990085 0,-77.749465 63.24979,-140.990078 140.99011,-140.990078 77.73799,0 140.99901,63.240613 140.99901,140.990078 -0.002,77.740295 -63.26102,140.990085 -140.99901,140.990085 z m 0,-6.46827 c 74.17306,0 134.52184,-60.34645 134.52184,-134.521815 0,-74.179934 -60.34878,-134.530768 -134.52184,-134.530768 -74.17539,0 -134.52632,60.350835 -134.52632,134.530768 0,74.175365 60.34863,134.521815 134.52632,134.521815 z m 0,-13.5749 c -42.25447,0 -79.42994,-21.67841 -101.05656,-54.51534 2.83767,-0.085 5.51382,-0.14391 7.78534,-0.14391 12.651,0 32.23361,1.53276 32.23361,1.53276 6.51997,0.38434 7.29071,-9.18992 0.77764,-9.96091 0,0 -6.55361,-0.77316 -13.84457,-1.1552 l 44.04637,-131.006685 26.46655,79.381645 -18.84305,51.62952 c -6.51307,0.38204 -12.68482,1.15523 -12.68482,1.15523 -6.51764,0.38204 -5.75347,10.34525 0.76429,9.96091 0,0 19.97581,-1.53279 31.86044,-1.53279 12.64871,0 32.2337,1.53279 32.2337,1.53279 6.52458,0.38434 7.28844,-9.18992 0.77307,-9.96091 0,0 -6.56303,-0.77319 -13.84017,-1.15523 l 43.70937,-130.017772 12.06,40.315618 c 5.22887,16.729156 9.21036,28.743308 9.21036,39.097484 0,14.94784 -5.36926,25.30005 -9.97443,33.35739 -6.13104,9.96293 -11.87564,18.40049 -11.87564,28.36342 0,11.11825 8.43063,21.46809 20.30835,21.46809 0.53624,0 1.04623,-0.0687 1.56866,-0.0988 -21.51845,19.71412 -50.19023,31.75267 -81.67851,31.75267 z m 106.1313,-62.91648 c 0.52012,-3.8526 0.81354,-7.98899 0.81354,-12.43768 0,-12.27357 -2.29245,-26.07118 -9.19676,-43.322769 L 686.42027,-6.820456 c 35.95767,20.968375 60.14303,59.924332 60.14303,104.544621 0.002,21.028245 -5.36809,40.801875 -14.81549,58.030435 z m -216.60937,-8.8057 c -6.71099,-15.0422 -10.46884,-31.69007 -10.46884,-49.224734 0,-47.874523 27.82239,-89.244874 68.16661,-108.850828 z M 627.73819,87.147429 591.45003,-18.305187 c 10.83517,-3.185191 22.29336,-4.92652 34.16648,-4.92652 14.0848,0 27.59446,2.433817 40.16722,6.85488 -0.3245,0.517824 -0.62139,1.069279 -0.86304,1.667653 z" /></g></g></svg>
