<?xml version="1.0" encoding="UTF-8" standalone="no"?>
<svg
   version="1.1"
   id="svg5033"
   xml:space="preserve"
   width="1920"
   height="1080"
   viewBox="0 0 1920 1080"
   sodipodi:docname="archlabs-00.svg"
   inkscape:version="1.2 (dc2aedaf03, 2022-05-15)"
   inkscape:export-filename="/home/fjall/1577101987penguin-silhouette-3-freesvg.org3.png"
   inkscape:export-xdpi="96"
   inkscape:export-ydpi="96"
   xmlns:inkscape="http://www.inkscape.org/namespaces/inkscape"
   xmlns:sodipodi="http://sodipodi.sourceforge.net/DTD/sodipodi-0.dtd"
   xmlns:xlink="http://www.w3.org/1999/xlink"
   xmlns="http://www.w3.org/2000/svg"
   xmlns:svg="http://www.w3.org/2000/svg"
   xmlns:rdf="http://www.w3.org/1999/02/22-rdf-syntax-ns#"
   xmlns:cc="http://creativecommons.org/ns#"
   xmlns:dc="http://purl.org/dc/elements/1.1/"><metadata
     id="metadata5039"><rdf:RDF><cc:Work
         rdf:about=""><dc:format>image/svg+xml</dc:format><dc:type
           rdf:resource="http://purl.org/dc/dcmitype/StillImage" /><dc:title /></cc:Work></rdf:RDF></metadata><defs
     id="defs5037"><marker
       style="overflow:visible"
       id="Arrow1Lstart"
       refX="0"
       refY="0"
       orient="auto"
       inkscape:stockid="Arrow1Lstart"
       inkscape:isstock="true"><path
         transform="matrix(0.8,0,0,0.8,10,0)"
         style="fill:#c53d3d;fill-opacity:0.795004;fill-rule:evenodd;stroke:none;stroke-width:1pt;stroke-opacity:1"
         d="M 0,0 5,-5 -12.5,0 5,5 Z"
         id="path2155" /></marker><clipPath
       clipPathUnits="userSpaceOnUse"
       id="clipPath5049"><path
         d="M 0,600 H 600 V 0 H 0 Z"
         id="path5047"
         inkscape:connector-curvature="0" /></clipPath><linearGradient
       x1="112.49854"
       y1="6.1372099"
       x2="112.49853"
       y2="129.3468"
       id="path1082_2_"
       gradientUnits="userSpaceOnUse"
       gradientTransform="translate(287,-83)"><stop
         id="stop193"
         style="stop-color:#ffffff;stop-opacity:0"
         offset="0" /><stop
         id="stop195"
         style="stop-color:#ffffff;stop-opacity:0.27450982"
         offset="1" /><midPointStop
         offset="0"
         style="stop-color:#FFFFFF"
         id="midPointStop197" /><midPointStop
         offset="0.5"
         style="stop-color:#FFFFFF"
         id="midPointStop199" /><midPointStop
         offset="1"
         style="stop-color:#000000"
         id="midPointStop201" /></linearGradient><linearGradient
       x1="541.33502"
       y1="104.50665"
       x2="606.91248"
       y2="303.14029"
       id="linearGradient2544"
       xlink:href="#path1082_2_"
       gradientUnits="userSpaceOnUse"
       gradientTransform="matrix(-0.3937741,0,0,0.393752,357.51969,122.00151)" /><linearGradient
       id="linearGradient3388"><stop
         id="stop3390"
         style="stop-color:#000000;stop-opacity:0"
         offset="0" /><stop
         id="stop3392"
         style="stop-color:#000000;stop-opacity:0.37113401"
         offset="1" /></linearGradient><linearGradient
       x1="490.72305"
       y1="237.72447"
       x2="490.72305"
       y2="183.9644"
       id="linearGradient4416"
       xlink:href="#linearGradient3388"
       gradientUnits="userSpaceOnUse"
       gradientTransform="matrix(0.749107,0,0,0.749107,-35.459862,91.44108)" /><clipPath
       clipPathUnits="userSpaceOnUse"
       id="clipPath8394"><g
         id="use8396"><g
           style="fill:#ffffff;fill-opacity:1;stroke:none"
           id="g8771"
           transform="matrix(0.33483086,0,0,0.33483086,366.9404,133.78404)"><g
             style="fill:#ffffff;fill-opacity:1;stroke:none"
             id="g8689"
             transform="matrix(-1.3233412,1.1632779,1.1632779,1.3233412,-308.61447,194.00943)"><g
               style="fill:#ffffff;fill-opacity:1;stroke:none"
               id="g8687"><path
                 id="path8685"
                 d="m 38.656,107.308 c 2.997,1.072 7.454,1.031 11.245,1.141 -4.473,-1.279 -5.051,-0.678 -9.408,-2.197 -3.143,-1.48 -3.832,-3.17 -6.058,-5.102 l 0.881,1.557 c -4.366,-1.545 -2.539,-1.912 -6.091,-3.037 l 0.605029,-0.742832 C 28.415029,98.820168 26.418,96.056 25.78,94.795 l -1.548,0.061 c -1.86,-2.295 -2.851,-3.949 -2.779,-5.23 l -1.593303,2.256883 c -0.567,-0.973 -7.928911,-4.009059 -4.672911,-2.232059"
                 style="fill:#ffffff;fill-opacity:1;stroke:none" /></g></g><path
             style="opacity:1;fill:#ffffff;fill-opacity:1;fill-rule:evenodd;stroke:none;stroke-width:0.30000001;stroke-miterlimit:4;stroke-dasharray:none;stroke-opacity:1"
             d="m -237.47517,382.82223 c 0.19805,-1.13617 1.37012,-5.87933 2.6046,-10.54037 4.61259,-17.41588 5.41276,-23.53097 5.38698,-41.16824 -0.0267,-18.23664 -0.78514,-22.50225 -5.90591,-33.21429 -2.66987,-5.58507 -9.19882,-14.33766 -11.29516,-15.1421 -2.24824,-0.86273 -10.63202,9.39825 -14.47674,17.7182 -3.02961,6.55604 -4.36994,14.18419 -4.38831,24.97489 -0.009,5.28399 -0.3033,9.23473 -0.68794,9.23473 -1.41176,0 -6.53791,-14.46442 -8.34274,-23.54064 -1.67004,-8.39838 -1.65419,-26.02521 0.031,-34.51285 2.47883,-12.4847 8.44437,-26.20575 15.47548,-35.59443 4.24925,-5.67404 14.69338,-15.76931 20.18074,-19.50665 2.25903,-1.53859 4.24143,-2.66334 4.40532,-2.49944 0.1639,0.16389 -0.006,1.90488 -0.37692,3.86886 -0.86969,4.6014 0.27801,12.3047 2.58522,17.35187 0.95062,2.07955 4.27436,8.02598 7.38609,13.21429 7.50849,12.51921 10.40964,18.44102 13.37302,27.29696 3.59211,10.73486 4.8163,19.90511 4.33772,32.49346 -0.883,23.2264 -8.33392,42.9906 -24.15992,64.08628 -5.68916,7.5835 -6.64879,8.44093 -6.13255,5.47947 z"
             id="path8691" /><g
             style="fill:#ffffff;fill-opacity:1;stroke:none"
             id="g8697"
             transform="matrix(1.1872143,1.5720066,-1.5363801,1.2147441,-148.80137,143.5531)"><g
               style="fill:#ffffff;fill-opacity:1;stroke:none"
               id="g8695"><path
                 id="path8693"
                 d="M 3.9682846,62.377011 C 2.6002846,87.081011 18.209,101.77 38.656,107.308 c 2.997,1.072 2.795577,0.71872 6.586577,0.82872 -4.473,-1.279 -5.782317,-2.10745 -5.782317,-2.10745 -3.143,-1.48 -1.413248,-0.47909 -3.639248,-2.41109 L 35.316,102.707 c -4.366,-1.545 -2.539,-1.912 -6.091,-3.037 l 0.941,-1.229 C 28.751,98.334 26.418,96.056 25.78,94.795 l -1.548,0.061 c -1.86,-2.295 -2.851,-3.949 -2.779,-5.23 l -0.5,0.891 c -0.567,-0.973 -6.843,-8.607 -3.587,-6.83 -0.605,-0.553 -1.409,-0.9 -2.281,-2.484 l 0.663,-0.758 c -1.567,-2.016 -2.884,-4.6 -2.784,-5.461 0.836,1.129 1.416,1.34 1.99,1.533 -3.957,-9.818 -4.179,-0.541 -7.176,-9.994 L 8.412,66.472 C 7.926,65.74 7.631,64.945 7.24,64.165 l 0.276,-2.75"
                 style="fill:#ffffff;fill-opacity:1;stroke:none" /></g></g><g
             style="fill:#ffffff;fill-opacity:1;stroke:none"
             id="g8703"
             transform="matrix(1.308886,0.70009312,-0.70009312,1.308886,-296.02043,221.67495)"><g
               style="fill:#ffffff;fill-opacity:1;stroke:none"
               id="g8701"><path
                 id="path8699"
                 d="M 83.05488,31.727898 C 83.079601,28.76241 82.409398,27.165259 82.639,25.554 c 2.404,3.483 3.775,8.881 4.404,11.117 -0.48,-2.726 -1.256,-5.367 -2.203,-7.922 0.73,0.307 -1.176,-5.609 0.949,-1.691 C 83.519,18.706 76.074,10.902 69.225,7.24 70.063,8.007 71.121,8.97 70.741,9.121 67.335,7.093 67.934,6.935 67.446,6.078 64.671,4.949 64.489,6.169 62.651,6.08 52.25259,2.3210209 57.864781,10.550967 60.512,13.26"
                 style="fill:#ffffff;fill-opacity:1;stroke:none" /></g></g><g
             style="fill:#ffffff;fill-opacity:1;stroke:none"
             transform="matrix(1.4623542,-0.25462333,0.25462333,1.4623542,-289.17744,231.27245)"
             id="g8709"><g
               style="fill:#ffffff;fill-opacity:1;stroke:none"
               id="g8707"><path
                 style="fill:#ffffff;fill-opacity:1;stroke:none"
                 d="m 27.860553,7.6057069 c 2.524,-1.424 3.582829,-3.5433263 4.444829,-4.0253263 -2.732,0.166 5.303751,-5.3617733 5.303751,-5.3617733 -5.38827,1.68495488 -13.196834,6.5280217 -17.6058,10.7024346 L 19.613327,8.3719042 C 17.578327,10.814904 11.288,16.374 10.743,19.538 l -0.544,0.127 C 9.14,21.458 8.455,23.49 7.615,25.335 6.23,27.695 5.585,26.243 5.782,26.613 3.058,32.136 1.705,36.777 0.536,40.583 1.369,41.828 -0.29427018,48.052064 0.02072982,53.054064 2.4242272,55.040017 6.0254237,61.89857 6.4137333,57.605945 6.891019,52.329722 6.6569033,47.679165 7.13,41.534 7.415,39.145 9.508,36.602 11.1,32.614 l -0.97,-0.167"
                 id="path8705" /></g></g><g
             style="fill:#ffffff;fill-opacity:1;stroke:none"
             transform="rotate(168.65676,-119.28771,175.9957)"
             id="g8715"><g
               style="fill:#ffffff;fill-opacity:1;stroke:none"
               id="g8713"><path
                 style="fill:#ffffff;fill-opacity:1;stroke:none"
                 d="M 28.294437,5.8669736 C 23.838437,7.8549736 24.743,5.847 20.302,10.011 l -0.14,-0.933 c -2.035,2.443 -8.874,7.296 -9.419,10.46 l -0.544,0.127 C 9.14,21.458 8.455,23.49 7.615,25.335 6.23,27.695 5.585,26.243 5.782,26.613 3.058,32.136 1.705,36.777 0.536,40.583 1.369,41.828 0.556,48.078 0.871,53.08 6.5325122,55.378023 0.07851389,59.578521 11.1,32.614 l -0.97,-0.167"
                 id="path8711" /></g></g><g
             transform="matrix(-1.3233412,1.1632779,1.1632779,1.3233412,-307.30485,180.37237)"
             id="g8721"
             style="fill:#ffffff;fill-opacity:1;stroke:none"><g
               id="g8719"
               style="fill:#ffffff;fill-opacity:1;stroke:none"><path
                 style="fill:#ffffff;fill-opacity:1;stroke:none"
                 d="m 22.676746,100.79936 7.070057,1.65071 C 25.380803,100.90507 32.777,100.795 29.225,99.67 l 0.941,-1.229 C 28.751,98.334 26.418,96.056 25.78,94.795 l -1.548,0.061 c -1.86,-2.295 -2.851,-3.949 -2.779,-5.23 l -0.5,0.891 c -0.567,-0.973 -6.843,-8.607 -3.587,-6.83 -0.605,-0.553 -1.409,-0.9 -2.281,-2.484 l 0.663,-0.758 c -1.567,-2.016 -2.884,-4.6 -2.784,-5.461 0.836,1.129 1.416,1.34 1.99,1.533 -3.957,-9.818 -3.924638,-1.337097 -9.8463459,1.513376"
                 id="path8717" /></g></g><g
             style="fill:#ffffff;fill-opacity:1;stroke:none"
             transform="rotate(-147.75092,-53.936857,217.28862)"
             id="g8727"><g
               style="fill:#ffffff;fill-opacity:1;stroke:none"
               id="g8725"><path
                 style="fill:#ffffff;fill-opacity:1;stroke:none"
                 d="m 76.992,46.856 c 5.629481,18.95255 10.567157,3.776923 4.794,0.887 0.861,-1.304 0.961,1.403 0.047,4.403 1.268,-3.328 0.334,-3.863 0.66,-6.609 0.352,0.923 0.814,1.904 1.051,2.878 -0.826,-3.216 0.848,-5.416 1.262,-7.285 -0.408,-0.181 -1.275,1.422 -1.473,-2.377 -6.918013,-12.155335 9.826508,2.036878 -14.108,-31.513 0.838,0.767 1.896,1.73 1.516,1.881 -3.406,-2.028 -2.807,-2.186 -3.295,-3.043 12.430397,16.705768 6.454718,20.113693 9.019,30.352 l 0.371,0.1 c 0.657895,4.64073 0.582,8.199 -0.752,12.238 l 0.908,-1.912"
                 id="path8723" /></g></g><path
             id="path8729"
             d="m -277.91264,289.50835 c 0,0 -0.83047,1.75707 -1.26259,1.28539 -0.46434,-0.50685 -0.55413,-2.06205 -0.64931,-3.7505 -0.27396,-4.86009 1.16524,-10.47386 3.35088,-16.39349 -2.03103,3.39395 -3.46356,7.98402 -4.42528,11.85523 -0.58553,-5.52904 5.36224,-16.42003 5.98118,-18.56725 -11.80913,14.79872 -7.84908,45.60327 0.73271,56.61587 -3.04182,-6.00165 -4.85399,-14.11874 -5.48252,-22.14929 0.15381,-3.56516 1.00698,-7.8719 2.30641,-7.83855"
             style="fill:#ffffff;fill-opacity:1;stroke:none" /><g
             style="fill:#ffffff;fill-opacity:1;stroke:none"
             transform="matrix(3.1551302,-0.0374057,0.0374057,3.1551302,-471.52897,167.95141)"
             id="g8735"><g
               style="fill:#ffffff;fill-opacity:1;stroke:none"
               id="g8733"><path
                 style="fill:#ffffff;fill-opacity:1;stroke:none"
                 d="m 84.568,48.916 -0.424296,0.68011 c -0.484,3.438 -1.368704,6.82189 -2.970704,9.97589 1.77,-3.328 2.908358,-6.407795 3.388358,-10.095795"
                 id="path8731" /></g></g><g
             style="fill:#ffffff;fill-opacity:1;stroke:none"
             transform="matrix(2.3429651,2.1134712,-2.1134712,2.3429651,144.65561,88.556499)"
             id="g8741"><g
               style="fill:#ffffff;fill-opacity:1;stroke:none"
               id="g8739"><path
                 style="fill:#ffffff;fill-opacity:1;stroke:none"
                 d="m -47.76983,138.88946 c -0.625,-0.691 -0.995,-1.523 -1.409,-2.352 0.396,1.457 1.207,2.709 1.962,3.982 l -0.553,-1.63"
                 id="path8737" /></g></g><g
             style="fill:#ffffff;fill-opacity:1;stroke:none"
             transform="matrix(-2.5038698,-0.12375367,-0.12375367,2.5038698,-242.78268,170.8553)"
             id="g8747"><g
               style="fill:#ffffff;fill-opacity:1;stroke:none"
               id="g8745"><path
                 style="fill:#ffffff;fill-opacity:1;stroke:none"
                 d="m -14.040219,76.839422 -0.252,1.26 c 1.181,1.604 2.118,3.342 3.626,4.596 -1.085,-2.118 -1.891,-2.993 -3.374,-5.856"
                 id="path8743" /></g></g><g
             style="fill:#ffffff;fill-opacity:1;stroke:none"
             transform="matrix(2.4158003,2.0298165,-2.0298165,2.4158003,-87.76608,54.808854)"
             id="g8751"><g
               style="fill:#ffffff;fill-opacity:1;stroke:none"
               id="g8749" /></g><g
             style="fill:#ffffff;fill-opacity:1;stroke:none"
             id="g8755"
             transform="matrix(-1.6444696,2.6929474,-2.6929474,-1.6444696,-35.82328,378.326)"><g
               style="fill:#ffffff;fill-opacity:1;stroke:none"
               id="g8753" /></g><g
             style="fill:#ffffff;fill-opacity:1;stroke:none"
             id="g8763"
             transform="matrix(-2.5352718,2.2869414,2.2869414,2.5352718,-137.04733,182.02906)"><g
               style="fill:#ffffff;fill-opacity:1;stroke:none"
               id="g8761"><path
                 id="path8757"
                 d="m 45.172,1.399 c 0.959,0.172 2.072,0.304 1.916,0.533 1.049,-0.23 1.287,-0.442 -1.916,-0.533"
                 style="fill:#ffffff;fill-opacity:1;stroke:none" /><path
                 id="path8759"
                 d="M 47.088,1.932 46.41,2.072 47.041,2.016 47.088,1.932"
                 style="fill:#ffffff;fill-opacity:1;stroke:none" /></g></g><g
             id="g8769"
             transform="matrix(0.31518726,-0.91401344,-0.91401344,-0.31518726,-150.5938,297.40361)"
             style="fill:#ffffff;fill-opacity:1;stroke:none"><g
               id="g8767"
               style="fill:#ffffff;fill-opacity:1;stroke:none"><path
                 id="path8765"
                 d="M -5.8830027,89.687534 C -1.0112763,108.45649 22.430269,102.91332 38.656,107.308 c 2.997,1.072 5.436974,1.21462 9.227974,1.32462 -4.473,-1.279 -3.033974,-0.86162 -7.390974,-2.38062 -3.143,-1.48 -3.832,-3.17 -6.058,-5.102 l 0.881,1.557 c -4.366,-1.545 -2.539,-1.912 -6.091,-3.037 l 0.941,-1.229 C 28.751,98.334 26.418,96.056 25.78,94.795 l -1.548,0.061 c -1.86,-2.295 -2.851,-3.949 -2.779,-5.23 l -0.5,0.891 c -0.567,-0.973 -7.670893,-7.62258 -4.414893,-5.84558 -0.605,-0.553 -1.409,-0.9 -2.281,-2.484 l 0.663,-0.758 C 14.044766,80.303263 12.759645,79.464161 11.813135,78.792741 10.621979,78.078073 10.399981,77.914731 9.4139446,77.781349 9.1719305,77.18087 11.091048,77.609743 10.862823,77.128037 10.232269,75.79715 3.729328,73.000444 2.1179626,69.83851 1.7653051,69.146501 0.55304284,69.358304 -0.0552988,68.559514"
                 style="fill:#ffffff;fill-opacity:1;stroke:none" /></g></g></g></g></clipPath><clipPath
       clipPathUnits="userSpaceOnUse"
       id="clipPath9103"><g
         id="use9105"><g
           id="g9496"
           clip-path="url(#clipPath9257)"><g
             id="g9494"><g
               style="fill:#ffffff;fill-opacity:1;stroke:none"
               id="g9492"
               transform="matrix(0.33483086,0,0,0.33483086,365.68865,149.86624)"><g
                 style="fill:#ffffff;fill-opacity:1;stroke:none"
                 id="g9410"
                 transform="matrix(-1.3233412,1.1632779,1.1632779,1.3233412,-308.61447,194.00943)"><g
                   style="fill:#ffffff;fill-opacity:1;stroke:none"
                   id="g9408"><path
                     id="path9406"
                     d="m 38.656,107.308 c 2.997,1.072 7.454,1.031 11.245,1.141 -4.473,-1.279 -5.051,-0.678 -9.408,-2.197 -3.143,-1.48 -3.832,-3.17 -6.058,-5.102 l 0.881,1.557 c -4.366,-1.545 -2.539,-1.912 -6.091,-3.037 l 0.605029,-0.742832 C 28.415029,98.820168 26.418,96.056 25.78,94.795 l -1.548,0.061 c -1.86,-2.295 -2.851,-3.949 -2.779,-5.23 l -1.593303,2.256883 c -0.567,-0.973 -7.928911,-4.009059 -4.672911,-2.232059"
                     style="fill:#ffffff;fill-opacity:1;stroke:none" /></g></g><path
                 style="opacity:1;fill:#ffffff;fill-opacity:1;fill-rule:evenodd;stroke:none;stroke-width:0.30000001;stroke-miterlimit:4;stroke-dasharray:none;stroke-opacity:1"
                 d="m -237.47517,382.82223 c 0.19805,-1.13617 1.37012,-5.87933 2.6046,-10.54037 4.61259,-17.41588 5.41276,-23.53097 5.38698,-41.16824 -0.0267,-18.23664 -0.78514,-22.50225 -5.90591,-33.21429 -2.66987,-5.58507 -9.19882,-14.33766 -11.29516,-15.1421 -2.24824,-0.86273 -10.63202,9.39825 -14.47674,17.7182 -3.02961,6.55604 -4.36994,14.18419 -4.38831,24.97489 -0.009,5.28399 -0.3033,9.23473 -0.68794,9.23473 -1.41176,0 -6.53791,-14.46442 -8.34274,-23.54064 -1.67004,-8.39838 -1.65419,-26.02521 0.031,-34.51285 2.47883,-12.4847 8.44437,-26.20575 15.47548,-35.59443 4.24925,-5.67404 14.69338,-15.76931 20.18074,-19.50665 2.25903,-1.53859 4.24143,-2.66334 4.40532,-2.49944 0.1639,0.16389 -0.006,1.90488 -0.37692,3.86886 -0.86969,4.6014 0.27801,12.3047 2.58522,17.35187 0.95062,2.07955 4.27436,8.02598 7.38609,13.21429 7.50849,12.51921 10.40964,18.44102 13.37302,27.29696 3.59211,10.73486 4.8163,19.90511 4.33772,32.49346 -0.883,23.2264 -8.33392,42.9906 -24.15992,64.08628 -5.68916,7.5835 -6.64879,8.44093 -6.13255,5.47947 z"
                 id="path9412" /><g
                 style="fill:#ffffff;fill-opacity:1;stroke:none"
                 id="g9418"
                 transform="matrix(1.1872143,1.5720066,-1.5363801,1.2147441,-148.80137,143.5531)"><g
                   style="fill:#ffffff;fill-opacity:1;stroke:none"
                   id="g9416"><path
                     id="path9414"
                     d="M 3.9682846,62.377011 C 2.6002846,87.081011 18.209,101.77 38.656,107.308 c 2.997,1.072 2.795577,0.71872 6.586577,0.82872 -4.473,-1.279 -5.782317,-2.10745 -5.782317,-2.10745 -3.143,-1.48 -1.413248,-0.47909 -3.639248,-2.41109 L 35.316,102.707 c -4.366,-1.545 -2.539,-1.912 -6.091,-3.037 l 0.941,-1.229 C 28.751,98.334 26.418,96.056 25.78,94.795 l -1.548,0.061 c -1.86,-2.295 -2.851,-3.949 -2.779,-5.23 l -0.5,0.891 c -0.567,-0.973 -6.843,-8.607 -3.587,-6.83 -0.605,-0.553 -1.409,-0.9 -2.281,-2.484 l 0.663,-0.758 c -1.567,-2.016 -2.884,-4.6 -2.784,-5.461 0.836,1.129 1.416,1.34 1.99,1.533 -3.957,-9.818 -4.179,-0.541 -7.176,-9.994 L 8.412,66.472 C 7.926,65.74 7.631,64.945 7.24,64.165 l 0.276,-2.75"
                     style="fill:#ffffff;fill-opacity:1;stroke:none" /></g></g><g
                 style="fill:#ffffff;fill-opacity:1;stroke:none"
                 id="g9424"
                 transform="matrix(1.308886,0.70009312,-0.70009312,1.308886,-296.02043,221.67495)"><g
                   style="fill:#ffffff;fill-opacity:1;stroke:none"
                   id="g9422"><path
                     id="path9420"
                     d="M 83.05488,31.727898 C 83.079601,28.76241 82.409398,27.165259 82.639,25.554 c 2.404,3.483 3.775,8.881 4.404,11.117 -0.48,-2.726 -1.256,-5.367 -2.203,-7.922 0.73,0.307 -1.176,-5.609 0.949,-1.691 C 83.519,18.706 76.074,10.902 69.225,7.24 70.063,8.007 71.121,8.97 70.741,9.121 67.335,7.093 67.934,6.935 67.446,6.078 64.671,4.949 64.489,6.169 62.651,6.08 52.25259,2.3210209 57.864781,10.550967 60.512,13.26"
                     style="fill:#ffffff;fill-opacity:1;stroke:none" /></g></g><g
                 style="fill:#ffffff;fill-opacity:1;stroke:none"
                 transform="matrix(1.4623542,-0.25462333,0.25462333,1.4623542,-289.17744,231.27245)"
                 id="g9430"><g
                   style="fill:#ffffff;fill-opacity:1;stroke:none"
                   id="g9428"><path
                     style="fill:#ffffff;fill-opacity:1;stroke:none"
                     d="m 27.860553,7.6057069 c 2.524,-1.424 3.582829,-3.5433263 4.444829,-4.0253263 -2.732,0.166 5.303751,-5.3617733 5.303751,-5.3617733 -5.38827,1.68495488 -13.196834,6.5280217 -17.6058,10.7024346 L 19.613327,8.3719042 C 17.578327,10.814904 11.288,16.374 10.743,19.538 l -0.544,0.127 C 9.14,21.458 8.455,23.49 7.615,25.335 6.23,27.695 5.585,26.243 5.782,26.613 3.058,32.136 1.705,36.777 0.536,40.583 1.369,41.828 -0.29427018,48.052064 0.02072982,53.054064 2.4242272,55.040017 6.0254237,61.89857 6.4137333,57.605945 6.891019,52.329722 6.6569033,47.679165 7.13,41.534 7.415,39.145 9.508,36.602 11.1,32.614 l -0.97,-0.167"
                     id="path9426" /></g></g><g
                 style="fill:#ffffff;fill-opacity:1;stroke:none"
                 transform="rotate(168.65676,-119.28771,175.9957)"
                 id="g9436"><g
                   style="fill:#ffffff;fill-opacity:1;stroke:none"
                   id="g9434"><path
                     style="fill:#ffffff;fill-opacity:1;stroke:none"
                     d="M 28.294437,5.8669736 C 23.838437,7.8549736 24.743,5.847 20.302,10.011 l -0.14,-0.933 c -2.035,2.443 -8.874,7.296 -9.419,10.46 l -0.544,0.127 C 9.14,21.458 8.455,23.49 7.615,25.335 6.23,27.695 5.585,26.243 5.782,26.613 3.058,32.136 1.705,36.777 0.536,40.583 1.369,41.828 0.556,48.078 0.871,53.08 6.5325122,55.378023 0.07851389,59.578521 11.1,32.614 l -0.97,-0.167"
                     id="path9432" /></g></g><g
                 transform="matrix(-1.3233412,1.1632779,1.1632779,1.3233412,-307.30485,180.37237)"
                 id="g9442"
                 style="fill:#ffffff;fill-opacity:1;stroke:none"><g
                   id="g9440"
                   style="fill:#ffffff;fill-opacity:1;stroke:none"><path
                     style="fill:#ffffff;fill-opacity:1;stroke:none"
                     d="m 22.676746,100.79936 7.070057,1.65071 C 25.380803,100.90507 32.777,100.795 29.225,99.67 l 0.941,-1.229 C 28.751,98.334 26.418,96.056 25.78,94.795 l -1.548,0.061 c -1.86,-2.295 -2.851,-3.949 -2.779,-5.23 l -0.5,0.891 c -0.567,-0.973 -6.843,-8.607 -3.587,-6.83 -0.605,-0.553 -1.409,-0.9 -2.281,-2.484 l 0.663,-0.758 c -1.567,-2.016 -2.884,-4.6 -2.784,-5.461 0.836,1.129 1.416,1.34 1.99,1.533 -3.957,-9.818 -3.924638,-1.337097 -9.8463459,1.513376"
                     id="path9438" /></g></g><g
                 style="fill:#ffffff;fill-opacity:1;stroke:none"
                 transform="rotate(-147.75092,-53.936857,217.28862)"
                 id="g9448"><g
                   style="fill:#ffffff;fill-opacity:1;stroke:none"
                   id="g9446"><path
                     style="fill:#ffffff;fill-opacity:1;stroke:none"
                     d="m 76.992,46.856 c 5.629481,18.95255 10.567157,3.776923 4.794,0.887 0.861,-1.304 0.961,1.403 0.047,4.403 1.268,-3.328 0.334,-3.863 0.66,-6.609 0.352,0.923 0.814,1.904 1.051,2.878 -0.826,-3.216 0.848,-5.416 1.262,-7.285 -0.408,-0.181 -1.275,1.422 -1.473,-2.377 -6.918013,-12.155335 9.826508,2.036878 -14.108,-31.513 0.838,0.767 1.896,1.73 1.516,1.881 -3.406,-2.028 -2.807,-2.186 -3.295,-3.043 12.430397,16.705768 6.454718,20.113693 9.019,30.352 l 0.371,0.1 c 0.657895,4.64073 0.582,8.199 -0.752,12.238 l 0.908,-1.912"
                     id="path9444" /></g></g><path
                 id="path9450"
                 d="m -277.91264,289.50835 c 0,0 -0.83047,1.75707 -1.26259,1.28539 -0.46434,-0.50685 -0.55413,-2.06205 -0.64931,-3.7505 -0.27396,-4.86009 1.16524,-10.47386 3.35088,-16.39349 -2.03103,3.39395 -3.46356,7.98402 -4.42528,11.85523 -0.58553,-5.52904 5.36224,-16.42003 5.98118,-18.56725 -11.80913,14.79872 -7.84908,45.60327 0.73271,56.61587 -3.04182,-6.00165 -4.85399,-14.11874 -5.48252,-22.14929 0.15381,-3.56516 1.00698,-7.8719 2.30641,-7.83855"
                 style="fill:#ffffff;fill-opacity:1;stroke:none" /><g
                 style="fill:#ffffff;fill-opacity:1;stroke:none"
                 transform="matrix(3.1551302,-0.0374057,0.0374057,3.1551302,-471.52897,167.95141)"
                 id="g9456"><g
                   style="fill:#ffffff;fill-opacity:1;stroke:none"
                   id="g9454"><path
                     style="fill:#ffffff;fill-opacity:1;stroke:none"
                     d="m 84.568,48.916 -0.424296,0.68011 c -0.484,3.438 -1.368704,6.82189 -2.970704,9.97589 1.77,-3.328 2.908358,-6.407795 3.388358,-10.095795"
                     id="path9452" /></g></g><g
                 style="fill:#ffffff;fill-opacity:1;stroke:none"
                 transform="matrix(2.3429651,2.1134712,-2.1134712,2.3429651,144.65561,88.556499)"
                 id="g9462"><g
                   style="fill:#ffffff;fill-opacity:1;stroke:none"
                   id="g9460"><path
                     style="fill:#ffffff;fill-opacity:1;stroke:none"
                     d="m -47.76983,138.88946 c -0.625,-0.691 -0.995,-1.523 -1.409,-2.352 0.396,1.457 1.207,2.709 1.962,3.982 l -0.553,-1.63"
                     id="path9458" /></g></g><g
                 style="fill:#ffffff;fill-opacity:1;stroke:none"
                 transform="matrix(-2.5038698,-0.12375367,-0.12375367,2.5038698,-242.78268,170.8553)"
                 id="g9468"><g
                   style="fill:#ffffff;fill-opacity:1;stroke:none"
                   id="g9466"><path
                     style="fill:#ffffff;fill-opacity:1;stroke:none"
                     d="m -14.040219,76.839422 -0.252,1.26 c 1.181,1.604 2.118,3.342 3.626,4.596 -1.085,-2.118 -1.891,-2.993 -3.374,-5.856"
                     id="path9464" /></g></g><g
                 style="fill:#ffffff;fill-opacity:1;stroke:none"
                 transform="matrix(2.4158003,2.0298165,-2.0298165,2.4158003,-87.76608,54.808854)"
                 id="g9472"><g
                   style="fill:#ffffff;fill-opacity:1;stroke:none"
                   id="g9470" /></g><g
                 style="fill:#ffffff;fill-opacity:1;stroke:none"
                 id="g9476"
                 transform="matrix(-1.6444696,2.6929474,-2.6929474,-1.6444696,-35.82328,378.326)"><g
                   style="fill:#ffffff;fill-opacity:1;stroke:none"
                   id="g9474" /></g><g
                 style="fill:#ffffff;fill-opacity:1;stroke:none"
                 id="g9484"
                 transform="matrix(-2.5352718,2.2869414,2.2869414,2.5352718,-137.04733,182.02906)"><g
                   style="fill:#ffffff;fill-opacity:1;stroke:none"
                   id="g9482"><path
                     id="path9478"
                     d="m 45.172,1.399 c 0.959,0.172 2.072,0.304 1.916,0.533 1.049,-0.23 1.287,-0.442 -1.916,-0.533"
                     style="fill:#ffffff;fill-opacity:1;stroke:none" /><path
                     id="path9480"
                     d="M 47.088,1.932 46.41,2.072 47.041,2.016 47.088,1.932"
                     style="fill:#ffffff;fill-opacity:1;stroke:none" /></g></g><g
                 id="g9490"
                 transform="matrix(0.31518726,-0.91401344,-0.91401344,-0.31518726,-150.5938,297.40361)"
                 style="fill:#ffffff;fill-opacity:1;stroke:none"><g
                   id="g9488"
                   style="fill:#ffffff;fill-opacity:1;stroke:none"><path
                     id="path9486"
                     d="M -5.8830027,89.687534 C -1.0112763,108.45649 22.430269,102.91332 38.656,107.308 c 2.997,1.072 5.436974,1.21462 9.227974,1.32462 -4.473,-1.279 -3.033974,-0.86162 -7.390974,-2.38062 -3.143,-1.48 -3.832,-3.17 -6.058,-5.102 l 0.881,1.557 c -4.366,-1.545 -2.539,-1.912 -6.091,-3.037 l 0.941,-1.229 C 28.751,98.334 26.418,96.056 25.78,94.795 l -1.548,0.061 c -1.86,-2.295 -2.851,-3.949 -2.779,-5.23 l -0.5,0.891 c -0.567,-0.973 -7.670893,-7.62258 -4.414893,-5.84558 -0.605,-0.553 -1.409,-0.9 -2.281,-2.484 l 0.663,-0.758 C 14.044766,80.303263 12.759645,79.464161 11.813135,78.792741 10.621979,78.078073 10.399981,77.914731 9.4139446,77.781349 9.1719305,77.18087 11.091048,77.609743 10.862823,77.128037 10.232269,75.79715 3.729328,73.000444 2.1179626,69.83851 1.7653051,69.146501 0.55304284,69.358304 -0.0552988,68.559514"
                     style="fill:#ffffff;fill-opacity:1;stroke:none" /></g></g></g></g></g></g></clipPath><clipPath
       clipPathUnits="userSpaceOnUse"
       id="clipPath9257"><g
         id="use9259"><g
           style="fill:#ffffff;fill-opacity:1;stroke:none"
           id="g9586"
           transform="matrix(0.33483086,0,0,0.33483086,365.68865,149.86624)"><g
             style="fill:#ffffff;fill-opacity:1;stroke:none"
             id="g9504"
             transform="matrix(-1.3233412,1.1632779,1.1632779,1.3233412,-308.61447,194.00943)"><g
               style="fill:#ffffff;fill-opacity:1;stroke:none"
               id="g9502"><path
                 id="path9500"
                 d="m 38.656,107.308 c 2.997,1.072 7.454,1.031 11.245,1.141 -4.473,-1.279 -5.051,-0.678 -9.408,-2.197 -3.143,-1.48 -3.832,-3.17 -6.058,-5.102 l 0.881,1.557 c -4.366,-1.545 -2.539,-1.912 -6.091,-3.037 l 0.605029,-0.742832 C 28.415029,98.820168 26.418,96.056 25.78,94.795 l -1.548,0.061 c -1.86,-2.295 -2.851,-3.949 -2.779,-5.23 l -1.593303,2.256883 c -0.567,-0.973 -7.928911,-4.009059 -4.672911,-2.232059"
                 style="fill:#ffffff;fill-opacity:1;stroke:none" /></g></g><path
             style="opacity:1;fill:#ffffff;fill-opacity:1;fill-rule:evenodd;stroke:none;stroke-width:0.30000001;stroke-miterlimit:4;stroke-dasharray:none;stroke-opacity:1"
             d="m -237.47517,382.82223 c 0.19805,-1.13617 1.37012,-5.87933 2.6046,-10.54037 4.61259,-17.41588 5.41276,-23.53097 5.38698,-41.16824 -0.0267,-18.23664 -0.78514,-22.50225 -5.90591,-33.21429 -2.66987,-5.58507 -9.19882,-14.33766 -11.29516,-15.1421 -2.24824,-0.86273 -10.63202,9.39825 -14.47674,17.7182 -3.02961,6.55604 -4.36994,14.18419 -4.38831,24.97489 -0.009,5.28399 -0.3033,9.23473 -0.68794,9.23473 -1.41176,0 -6.53791,-14.46442 -8.34274,-23.54064 -1.67004,-8.39838 -1.65419,-26.02521 0.031,-34.51285 2.47883,-12.4847 8.44437,-26.20575 15.47548,-35.59443 4.24925,-5.67404 14.69338,-15.76931 20.18074,-19.50665 2.25903,-1.53859 4.24143,-2.66334 4.40532,-2.49944 0.1639,0.16389 -0.006,1.90488 -0.37692,3.86886 -0.86969,4.6014 0.27801,12.3047 2.58522,17.35187 0.95062,2.07955 4.27436,8.02598 7.38609,13.21429 7.50849,12.51921 10.40964,18.44102 13.37302,27.29696 3.59211,10.73486 4.8163,19.90511 4.33772,32.49346 -0.883,23.2264 -8.33392,42.9906 -24.15992,64.08628 -5.68916,7.5835 -6.64879,8.44093 -6.13255,5.47947 z"
             id="path9506" /><g
             style="fill:#ffffff;fill-opacity:1;stroke:none"
             id="g9512"
             transform="matrix(1.1872143,1.5720066,-1.5363801,1.2147441,-148.80137,143.5531)"><g
               style="fill:#ffffff;fill-opacity:1;stroke:none"
               id="g9510"><path
                 id="path9508"
                 d="M 3.9682846,62.377011 C 2.6002846,87.081011 18.209,101.77 38.656,107.308 c 2.997,1.072 2.795577,0.71872 6.586577,0.82872 -4.473,-1.279 -5.782317,-2.10745 -5.782317,-2.10745 -3.143,-1.48 -1.413248,-0.47909 -3.639248,-2.41109 L 35.316,102.707 c -4.366,-1.545 -2.539,-1.912 -6.091,-3.037 l 0.941,-1.229 C 28.751,98.334 26.418,96.056 25.78,94.795 l -1.548,0.061 c -1.86,-2.295 -2.851,-3.949 -2.779,-5.23 l -0.5,0.891 c -0.567,-0.973 -6.843,-8.607 -3.587,-6.83 -0.605,-0.553 -1.409,-0.9 -2.281,-2.484 l 0.663,-0.758 c -1.567,-2.016 -2.884,-4.6 -2.784,-5.461 0.836,1.129 1.416,1.34 1.99,1.533 -3.957,-9.818 -4.179,-0.541 -7.176,-9.994 L 8.412,66.472 C 7.926,65.74 7.631,64.945 7.24,64.165 l 0.276,-2.75"
                 style="fill:#ffffff;fill-opacity:1;stroke:none" /></g></g><g
             style="fill:#ffffff;fill-opacity:1;stroke:none"
             id="g9518"
             transform="matrix(1.308886,0.70009312,-0.70009312,1.308886,-296.02043,221.67495)"><g
               style="fill:#ffffff;fill-opacity:1;stroke:none"
               id="g9516"><path
                 id="path9514"
                 d="M 83.05488,31.727898 C 83.079601,28.76241 82.409398,27.165259 82.639,25.554 c 2.404,3.483 3.775,8.881 4.404,11.117 -0.48,-2.726 -1.256,-5.367 -2.203,-7.922 0.73,0.307 -1.176,-5.609 0.949,-1.691 C 83.519,18.706 76.074,10.902 69.225,7.24 70.063,8.007 71.121,8.97 70.741,9.121 67.335,7.093 67.934,6.935 67.446,6.078 64.671,4.949 64.489,6.169 62.651,6.08 52.25259,2.3210209 57.864781,10.550967 60.512,13.26"
                 style="fill:#ffffff;fill-opacity:1;stroke:none" /></g></g><g
             style="fill:#ffffff;fill-opacity:1;stroke:none"
             transform="matrix(1.4623542,-0.25462333,0.25462333,1.4623542,-289.17744,231.27245)"
             id="g9524"><g
               style="fill:#ffffff;fill-opacity:1;stroke:none"
               id="g9522"><path
                 style="fill:#ffffff;fill-opacity:1;stroke:none"
                 d="m 27.860553,7.6057069 c 2.524,-1.424 3.582829,-3.5433263 4.444829,-4.0253263 -2.732,0.166 5.303751,-5.3617733 5.303751,-5.3617733 -5.38827,1.68495488 -13.196834,6.5280217 -17.6058,10.7024346 L 19.613327,8.3719042 C 17.578327,10.814904 11.288,16.374 10.743,19.538 l -0.544,0.127 C 9.14,21.458 8.455,23.49 7.615,25.335 6.23,27.695 5.585,26.243 5.782,26.613 3.058,32.136 1.705,36.777 0.536,40.583 1.369,41.828 -0.29427018,48.052064 0.02072982,53.054064 2.4242272,55.040017 6.0254237,61.89857 6.4137333,57.605945 6.891019,52.329722 6.6569033,47.679165 7.13,41.534 7.415,39.145 9.508,36.602 11.1,32.614 l -0.97,-0.167"
                 id="path9520" /></g></g><g
             style="fill:#ffffff;fill-opacity:1;stroke:none"
             transform="rotate(168.65676,-119.28771,175.9957)"
             id="g9530"><g
               style="fill:#ffffff;fill-opacity:1;stroke:none"
               id="g9528"><path
                 style="fill:#ffffff;fill-opacity:1;stroke:none"
                 d="M 28.294437,5.8669736 C 23.838437,7.8549736 24.743,5.847 20.302,10.011 l -0.14,-0.933 c -2.035,2.443 -8.874,7.296 -9.419,10.46 l -0.544,0.127 C 9.14,21.458 8.455,23.49 7.615,25.335 6.23,27.695 5.585,26.243 5.782,26.613 3.058,32.136 1.705,36.777 0.536,40.583 1.369,41.828 0.556,48.078 0.871,53.08 6.5325122,55.378023 0.07851389,59.578521 11.1,32.614 l -0.97,-0.167"
                 id="path9526" /></g></g><g
             transform="matrix(-1.3233412,1.1632779,1.1632779,1.3233412,-307.30485,180.37237)"
             id="g9536"
             style="fill:#ffffff;fill-opacity:1;stroke:none"><g
               id="g9534"
               style="fill:#ffffff;fill-opacity:1;stroke:none"><path
                 style="fill:#ffffff;fill-opacity:1;stroke:none"
                 d="m 22.676746,100.79936 7.070057,1.65071 C 25.380803,100.90507 32.777,100.795 29.225,99.67 l 0.941,-1.229 C 28.751,98.334 26.418,96.056 25.78,94.795 l -1.548,0.061 c -1.86,-2.295 -2.851,-3.949 -2.779,-5.23 l -0.5,0.891 c -0.567,-0.973 -6.843,-8.607 -3.587,-6.83 -0.605,-0.553 -1.409,-0.9 -2.281,-2.484 l 0.663,-0.758 c -1.567,-2.016 -2.884,-4.6 -2.784,-5.461 0.836,1.129 1.416,1.34 1.99,1.533 -3.957,-9.818 -3.924638,-1.337097 -9.8463459,1.513376"
                 id="path9532" /></g></g><g
             style="fill:#ffffff;fill-opacity:1;stroke:none"
             transform="rotate(-147.75092,-53.936857,217.28862)"
             id="g9542"><g
               style="fill:#ffffff;fill-opacity:1;stroke:none"
               id="g9540"><path
                 style="fill:#ffffff;fill-opacity:1;stroke:none"
                 d="m 76.992,46.856 c 5.629481,18.95255 10.567157,3.776923 4.794,0.887 0.861,-1.304 0.961,1.403 0.047,4.403 1.268,-3.328 0.334,-3.863 0.66,-6.609 0.352,0.923 0.814,1.904 1.051,2.878 -0.826,-3.216 0.848,-5.416 1.262,-7.285 -0.408,-0.181 -1.275,1.422 -1.473,-2.377 -6.918013,-12.155335 9.826508,2.036878 -14.108,-31.513 0.838,0.767 1.896,1.73 1.516,1.881 -3.406,-2.028 -2.807,-2.186 -3.295,-3.043 12.430397,16.705768 6.454718,20.113693 9.019,30.352 l 0.371,0.1 c 0.657895,4.64073 0.582,8.199 -0.752,12.238 l 0.908,-1.912"
                 id="path9538" /></g></g><path
             id="path9544"
             d="m -277.91264,289.50835 c 0,0 -0.83047,1.75707 -1.26259,1.28539 -0.46434,-0.50685 -0.55413,-2.06205 -0.64931,-3.7505 -0.27396,-4.86009 1.16524,-10.47386 3.35088,-16.39349 -2.03103,3.39395 -3.46356,7.98402 -4.42528,11.85523 -0.58553,-5.52904 5.36224,-16.42003 5.98118,-18.56725 -11.80913,14.79872 -7.84908,45.60327 0.73271,56.61587 -3.04182,-6.00165 -4.85399,-14.11874 -5.48252,-22.14929 0.15381,-3.56516 1.00698,-7.8719 2.30641,-7.83855"
             style="fill:#ffffff;fill-opacity:1;stroke:none" /><g
             style="fill:#ffffff;fill-opacity:1;stroke:none"
             transform="matrix(3.1551302,-0.0374057,0.0374057,3.1551302,-471.52897,167.95141)"
             id="g9550"><g
               style="fill:#ffffff;fill-opacity:1;stroke:none"
               id="g9548"><path
                 style="fill:#ffffff;fill-opacity:1;stroke:none"
                 d="m 84.568,48.916 -0.424296,0.68011 c -0.484,3.438 -1.368704,6.82189 -2.970704,9.97589 1.77,-3.328 2.908358,-6.407795 3.388358,-10.095795"
                 id="path9546" /></g></g><g
             style="fill:#ffffff;fill-opacity:1;stroke:none"
             transform="matrix(2.3429651,2.1134712,-2.1134712,2.3429651,144.65561,88.556499)"
             id="g9556"><g
               style="fill:#ffffff;fill-opacity:1;stroke:none"
               id="g9554"><path
                 style="fill:#ffffff;fill-opacity:1;stroke:none"
                 d="m -47.76983,138.88946 c -0.625,-0.691 -0.995,-1.523 -1.409,-2.352 0.396,1.457 1.207,2.709 1.962,3.982 l -0.553,-1.63"
                 id="path9552" /></g></g><g
             style="fill:#ffffff;fill-opacity:1;stroke:none"
             transform="matrix(-2.5038698,-0.12375367,-0.12375367,2.5038698,-242.78268,170.8553)"
             id="g9562"><g
               style="fill:#ffffff;fill-opacity:1;stroke:none"
               id="g9560"><path
                 style="fill:#ffffff;fill-opacity:1;stroke:none"
                 d="m -14.040219,76.839422 -0.252,1.26 c 1.181,1.604 2.118,3.342 3.626,4.596 -1.085,-2.118 -1.891,-2.993 -3.374,-5.856"
                 id="path9558" /></g></g><g
             style="fill:#ffffff;fill-opacity:1;stroke:none"
             transform="matrix(2.4158003,2.0298165,-2.0298165,2.4158003,-87.76608,54.808854)"
             id="g9566"><g
               style="fill:#ffffff;fill-opacity:1;stroke:none"
               id="g9564" /></g><g
             style="fill:#ffffff;fill-opacity:1;stroke:none"
             id="g9570"
             transform="matrix(-1.6444696,2.6929474,-2.6929474,-1.6444696,-35.82328,378.326)"><g
               style="fill:#ffffff;fill-opacity:1;stroke:none"
               id="g9568" /></g><g
             style="fill:#ffffff;fill-opacity:1;stroke:none"
             id="g9578"
             transform="matrix(-2.5352718,2.2869414,2.2869414,2.5352718,-137.04733,182.02906)"><g
               style="fill:#ffffff;fill-opacity:1;stroke:none"
               id="g9576"><path
                 id="path9572"
                 d="m 45.172,1.399 c 0.959,0.172 2.072,0.304 1.916,0.533 1.049,-0.23 1.287,-0.442 -1.916,-0.533"
                 style="fill:#ffffff;fill-opacity:1;stroke:none" /><path
                 id="path9574"
                 d="M 47.088,1.932 46.41,2.072 47.041,2.016 47.088,1.932"
                 style="fill:#ffffff;fill-opacity:1;stroke:none" /></g></g><g
             id="g9584"
             transform="matrix(0.31518726,-0.91401344,-0.91401344,-0.31518726,-150.5938,297.40361)"
             style="fill:#ffffff;fill-opacity:1;stroke:none"><g
               id="g9582"
               style="fill:#ffffff;fill-opacity:1;stroke:none"><path
                 id="path9580"
                 d="M -5.8830027,89.687534 C -1.0112763,108.45649 22.430269,102.91332 38.656,107.308 c 2.997,1.072 5.436974,1.21462 9.227974,1.32462 -4.473,-1.279 -3.033974,-0.86162 -7.390974,-2.38062 -3.143,-1.48 -3.832,-3.17 -6.058,-5.102 l 0.881,1.557 c -4.366,-1.545 -2.539,-1.912 -6.091,-3.037 l 0.941,-1.229 C 28.751,98.334 26.418,96.056 25.78,94.795 l -1.548,0.061 c -1.86,-2.295 -2.851,-3.949 -2.779,-5.23 l -0.5,0.891 c -0.567,-0.973 -7.670893,-7.62258 -4.414893,-5.84558 -0.605,-0.553 -1.409,-0.9 -2.281,-2.484 l 0.663,-0.758 C 14.044766,80.303263 12.759645,79.464161 11.813135,78.792741 10.621979,78.078073 10.399981,77.914731 9.4139446,77.781349 9.1719305,77.18087 11.091048,77.609743 10.862823,77.128037 10.232269,75.79715 3.729328,73.000444 2.1179626,69.83851 1.7653051,69.146501 0.55304284,69.358304 -0.0552988,68.559514"
                 style="fill:#ffffff;fill-opacity:1;stroke:none" /></g></g></g></g></clipPath></defs><sodipodi:namedview
     pagecolor="#ffffff"
     bordercolor="#666666"
     borderopacity="1"
     objecttolerance="10"
     gridtolerance="10"
     guidetolerance="10"
     inkscape:pageopacity="0"
     inkscape:pageshadow="2"
     inkscape:window-width="1670"
     inkscape:window-height="1048"
     id="namedview5035"
     showgrid="false"
     inkscape:zoom="0.5359992"
     inkscape:cx="948.69545"
     inkscape:cy="402.98568"
     inkscape:window-x="2170"
     inkscape:window-y="32"
     inkscape:window-maximized="1"
     inkscape:current-layer="g5041"
     inkscape:document-rotation="0"
     inkscape:snap-global="true"
     showguides="true"
     inkscape:guide-bbox="true"
     fit-margin-top="0"
     fit-margin-left="0"
     fit-margin-right="0"
     fit-margin-bottom="0"
     inkscape:snap-intersection-paths="true"
     inkscape:showpageshadow="0"
     inkscape:pagecheckerboard="0"
     inkscape:deskcolor="#d1d1d1"><inkscape:grid
       type="xygrid"
       id="grid997"
       originx="725.49429"
       originy="-129.70111" /></sodipodi:namedview><g
     id="g5041"
     inkscape:groupmode="layer"
     inkscape:label="penguin-clipart-publicdomainvectors.org"
     transform="matrix(1.3333333,0,0,-1.3333333,725.49429,670.29889)"><g
       id="g956"
       transform="translate(46.384326,0.71141601)" /><g
       id="g944"
       transform="translate(96.725563,0.71141601)" /><g
       id="g1400"><rect
         style="fill:#1a1b26;fill-opacity:1;fill-rule:nonzero;stroke-width:78.7272;stroke-linecap:round;stroke-linejoin:round;paint-order:stroke markers fill"
         id="rect835"
         width="1440"
         height="810"
         x="-544.12073"
         y="-502.72418"
         transform="scale(1,-1)" /><path
         id="path1001"
         style="fill:#73daca;fill-opacity:1;stroke:none;stroke-width:2.1835;stroke-linejoin:round;stroke-miterlimit:4;stroke-dasharray:none;stroke-opacity:1;paint-order:stroke markers fill"
         d="M 895.87927,124.37861 V 106.01436 H 399.19491 c -3.47432,6.60805 -6.66325,12.73772 -9.54735,18.36425 z m -151.40519,0 V 106.01436 H 247.78972 c -3.47432,6.60805 -6.66325,12.73772 -9.54735,18.36425 z m 123.09534,0 V 106.01436 H 370.88506 c -3.47432,6.60805 -6.66325,12.73772 -9.54735,18.36425 z m -151.40519,0 V 106.01436 H 219.47987 c -3.47432,6.60805 -6.66325,12.73772 -9.54735,18.36425 z" /><path
         id="path1003"
         style="fill:#7aa2f7;fill-opacity:1;stroke:none;stroke-width:1.89096;stroke-linejoin:round;stroke-miterlimit:4;stroke-dasharray:none;stroke-opacity:1;paint-order:stroke markers fill"
         d="M 895.87927,106.01436 V 87.648958 H 408.93954 c -3.50418,6.551813 -6.74672,12.663452 -9.74463,18.365402 z m -151.40519,0 V 87.648958 H 257.53435 c -3.50418,6.551813 -6.74673,12.663452 -9.74463,18.365402 z m 123.09534,0 V 87.648958 H 380.62969 c -3.50418,6.551813 -6.74673,12.663452 -9.74463,18.365402 z m -151.40519,0 V 87.648958 H 229.2245 c -3.50418,6.551813 -6.74673,12.663452 -9.74463,18.365402 z" /><path
         id="path1005"
         style="fill:#e0af68;fill-opacity:1;stroke:none;stroke-width:1.54397;stroke-linejoin:round;stroke-miterlimit:4;stroke-dasharray:none;stroke-opacity:1;paint-order:stroke markers fill"
         d="M 895.87927,87.648958 V 69.284692 H 418.82396 c -3.51658,6.496337 -6.804,12.604757 -9.88442,18.364266 z m -151.40519,0 V 69.284692 H 267.41877 c -3.51658,6.496337 -6.804,12.604757 -9.88442,18.364266 z m 123.09534,0 V 69.284692 H 390.51411 c -3.51658,6.496337 -6.804,12.604757 -9.88442,18.364266 z m -151.40519,0 V 69.284692 H 239.10892 c -3.51658,6.496337 -6.804,12.604757 -9.88442,18.364266 z" /><path
         id="path1007"
         style="fill:#f7768e;fill-opacity:1;stroke:none;stroke-width:1.09175;stroke-linejoin:round;stroke-miterlimit:4;stroke-dasharray:none;stroke-opacity:1;paint-order:stroke markers fill"
         d="M 895.87927,69.284692 V 50.92043 h -467.0559 c -3.46206,6.340276 -6.90554,12.64883 -9.99941,18.364262 z m -151.40519,0 V 50.92043 h -467.0559 c -3.46205,6.340276 -6.90554,12.64883 -9.99941,18.364262 z m 123.09534,0 V 50.92043 h -467.0559 c -3.46206,6.340276 -6.90554,12.64883 -9.99941,18.364262 z m -151.40519,0 V 50.92043 h -467.0559 c -3.46205,6.340276 -6.90554,12.64883 -9.99941,18.364262 z" /><path
         id="path1009"
         style="fill:#73daca;fill-opacity:1;stroke:none;stroke-width:2.1835;stroke-linejoin:round;stroke-miterlimit:4;stroke-dasharray:none;stroke-opacity:1;paint-order:stroke markers fill"
         d="m -544.12073,124.37861 v -18.36425 h 496.684362 c 3.47432,6.60805 6.66325,12.73772 9.54735,18.36425 z m 151.40519,0 v -18.36425 h 496.68436 c 3.47432,6.60805 6.66325,12.73772 9.54735,18.36425 z m -123.09534,0 v -18.36425 h 496.684362 c 3.47432,6.60805 6.66325,12.73772 9.5473505,18.36425 z m 151.40519,0 v -18.36425 h 496.68436 c 3.47432,6.60805 6.66325,12.73772 9.54735,18.36425 z" /><path
         id="path1011"
         style="fill:#7aa2f7;fill-opacity:1;stroke:none;stroke-width:1.89096;stroke-linejoin:round;stroke-miterlimit:4;stroke-dasharray:none;stroke-opacity:1;paint-order:stroke markers fill"
         d="M -544.12073,106.01436 V 87.648958 h 486.939732 c 3.50418,6.551813 6.74672,12.663452 9.74463,18.365402 z m 151.40519,0 V 87.648958 H 94.224192 c 3.50418,6.551813 6.746728,12.663452 9.744628,18.365402 z m -123.09534,0 V 87.648958 h 486.939732 c 3.50418,6.551813 6.74673,12.663452 9.74463,18.365402 z m 151.40519,0 V 87.648958 h 486.93973 c 3.50418,6.551813 6.74673,12.663452 9.74463,18.365402 z" /><path
         id="path1013"
         style="fill:#e0af68;fill-opacity:1;stroke:none;stroke-width:1.54397;stroke-linejoin:round;stroke-miterlimit:4;stroke-dasharray:none;stroke-opacity:1;paint-order:stroke markers fill"
         d="M -544.12073,87.648958 V 69.284692 h 477.055312 c 3.51658,6.496337 6.804,12.604757 9.88442,18.364266 z m 151.40519,0 V 69.284692 H 84.339772 c 3.51658,6.496337 6.804,12.604757 9.88442,18.364266 z m -123.09534,0 V 69.284692 h 477.055312 c 3.51658,6.496337 6.804,12.604757 9.88442,18.364266 z m 151.40519,0 V 69.284692 h 477.05531 c 3.51658,6.496337 6.804,12.604757 9.88442,18.364266 z" /><path
         id="path1015"
         style="fill:#f7768e;fill-opacity:1;stroke:none;stroke-width:1.09175;stroke-linejoin:round;stroke-miterlimit:4;stroke-dasharray:none;stroke-opacity:1;paint-order:stroke markers fill"
         d="M -544.12073,69.284692 V 50.92043 h 467.055902 c 3.46206,6.340276 6.90554,12.64883 9.99941,18.364262 z m 151.40519,0 V 50.92043 H 74.340362 c 3.46205,6.340276 6.90554,12.64883 9.99941,18.364262 z m -123.09534,0 V 50.92043 h 467.055902 c 3.46206,6.340276 6.90554,12.64883 9.99941,18.364262 z m 151.40519,0 V 50.92043 h 467.0559 c 3.46205,6.340276 6.90554,12.64883 9.99941,18.364262 z" /><g
         id="g1314"
         transform="matrix(1.2483157,0,0,-1.2483157,93.308392,180.29507)"
         style="fill:#ebdbb2;fill-opacity:1"><g
           id="layer1"
           transform="translate(0,-164.70834)"
           style="display:inline;fill:#a9b1d6;fill-opacity:1"><g
             style="fill:#a9b1d6;fill-opacity:1;stroke:none"
             id="g12645"
             transform="matrix(-0.44309547,0.38950134,0.38950134,0.44309547,347.93297,201.78326)"><g
               style="fill:#a9b1d6;fill-opacity:1;stroke:none"
               id="g12643" /></g><g
             id="g12651"
             style="fill:#a9b1d6;fill-opacity:1;stroke:none"
             transform="matrix(0.39751599,0.52635632,-0.51442747,0.40673381,401.44333,184.88893)" /><g
             id="g12657"
             style="fill:#a9b1d6;fill-opacity:1;stroke:none"
             transform="matrix(0.43825543,0.23441278,-0.23441278,0.43825543,352.14984,211.04653)" /><g
             style="fill:#a9b1d6;fill-opacity:1;stroke:none"
             transform="matrix(-0.32829044,0.06585659,-0.06585659,-0.32829044,383.75487,261.3853)"
             id="g12671"><g
               style="fill:#a9b1d6;fill-opacity:1;stroke:none"
               id="g12669" /></g><g
             transform="matrix(-0.44309547,0.38950134,0.38950134,0.44309547,348.37147,197.21716)"
             id="g12677"
             style="fill:#a9b1d6;fill-opacity:1;stroke:none"><g
               id="g12675"
               style="fill:#a9b1d6;fill-opacity:1;stroke:none" /></g><g
             id="g12681"
             style="fill:#a9b1d6;fill-opacity:1;stroke:none"
             transform="matrix(-0.28317864,-0.17866606,0.17866606,-0.28317864,379.11103,261.47267)" /><g
             style="fill:#a9b1d6;fill-opacity:1;stroke:none"
             transform="matrix(1.056435,-0.01252458,0.01252458,1.056435,293.38417,193.05824)"
             id="g12691"><g
               style="fill:#a9b1d6;fill-opacity:1;stroke:none"
               id="g12689" /></g><g
             style="fill:#a9b1d6;fill-opacity:1;stroke:none"
             transform="matrix(0.78449702,0.70765538,-0.70765538,0.78449702,499.70178,166.47437)"
             id="g12697"><g
               style="fill:#a9b1d6;fill-opacity:1;stroke:none"
               id="g12695" /></g><g
             style="fill:#a9b1d6;fill-opacity:1;stroke:none"
             transform="matrix(-0.83837288,-0.04143655,-0.04143655,0.83837288,369.97549,194.03055)"
             id="g12703"><g
               style="fill:#a9b1d6;fill-opacity:1;stroke:none"
               id="g12701" /></g><g
             style="fill:#a9b1d6;fill-opacity:1;stroke:none"
             transform="matrix(0.80888449,0.6796452,-0.6796452,0.80888449,421.87983,155.17462)"
             id="g12707"><g
               style="fill:#a9b1d6;fill-opacity:1;stroke:none"
               id="g12705" /></g><g
             style="fill:#a9b1d6;fill-opacity:1;stroke:none"
             id="g12711"
             transform="matrix(-0.55061917,0.90168189,-0.90168189,-0.55061917,439.27188,263.49814)"><g
               style="fill:#a9b1d6;fill-opacity:1;stroke:none"
               id="g12709" /></g><g
             style="fill:#a9b1d6;fill-opacity:1;stroke:none"
             id="g12719"
             transform="matrix(-0.84888724,0.76573856,0.76573856,0.84888724,405.37894,197.77187)"><g
               style="fill:#a9b1d6;fill-opacity:1;stroke:none"
               id="g12717" /></g><g
             id="g13003"
             style="fill:#a9b1d6;fill-opacity:1;stroke:none"
             transform="matrix(0.80888449,0.6796452,-0.6796452,0.80888449,420.17893,161.22224)" /><g
             id="g13007"
             style="fill:#a9b1d6;fill-opacity:1;stroke:none"
             transform="matrix(-0.55061917,0.90168189,-0.90168189,-0.55061917,437.57098,269.54576)" /><g
             id="g14138"
             transform="matrix(1.5708322,0,0,1.5708322,-33.008217,-132.48559)"
             style="fill:#a9b1d6;fill-opacity:1"><path
               id="path5670"
               transform="matrix(0.26458333,0,0,0.26458333,0,170.756)"
               d="m 238.54297,81.9375 c -13.07732,32.06181 -20.96364,53.03378 -35.52344,84.14258 l -4.25391,8.95117 c -18.63378,38.88208 -47.82877,94.26829 -107.072261,200.7168 46.563291,-26.88193 82.660011,-43.45558 116.298831,-49.7793 -0.35465,-1.52536 -0.67152,-3.08265 -0.94727,-4.66602 -0.32009,-0.86666 -0.65602,-1.83344 -1.05469,-3.08789 -0.65212,-1.60769 -1.27512,-3.21954 -1.87304,-4.83593 -0.0231,0.12094 -0.0453,0.22004 -0.0566,0.375 -0.0166,-0.22712 -0.0279,-0.43717 -0.043,-0.66016 -0.3953,-1.07482 -0.77376,-2.15243 -1.14453,-3.23047 0.028,0.51394 0.0381,0.91524 0.0684,1.44531 -0.29556,-1.082 -0.64672,-2.36964 -0.54883,-2.84375 -2.48262,-7.44158 -4.37143,-14.94837 -5.60352,-22.44531 -0.25561,-0.17235 -0.51195,-0.34553 -0.75195,-0.48242 -2.08989,-8.71831 -1.22291,-20.04415 -2.8125,-22.86523 -1.2858,1.14399 -2.11659,5.74327 -2.28516,9.64648 0.7954,10.1627 3.08809,20.43415 6.9375,28.0293 -10.86032,-13.93652 -15.87225,-52.92062 -0.92773,-71.64844 -0.78323,2.71729 -8.30937,16.50101 -7.56836,23.49805 1.21701,-4.89907 3.0293,-10.70885 5.59961,-15.00391 -2.76601,7.49129 -4.58682,14.59566 -4.24024,20.74609 0.1205,2.13675 0.2347,4.10468 0.82227,4.7461 0.51511,0.56225 1.44666,-1.31969 1.55664,-1.54688 0.9027,-7.20656 1.95933,-15.83529 5.06055,-26.38867 -0.37353,-0.4796 0.53159,0.874 1.79297,-0.69141 0.60011,-1.86722 1.25173,-3.72195 1.96875,-5.56054 0.60321,-2.69249 1.19602,-5.4401 2.17382,-8.0293 l 0.96485,-0.41016 c -0.0109,-6.03095 9.83967,-18.34665 12.81836,-23.52343 l 0.89844,0.89062 c 4.85211,-6.51246 12.78331,-14.19559 20.35351,-19.83984 1.2243,-0.9796 2.38419,-1.86857 3.38867,-2.55274 2.50152,-1.70371 4.73426,-3.00591 5.39258,-3.16601 0.0934,-0.0227 0.15518,-0.0222 0.18164,0.004 0.2075,0.2075 -0.007,2.41103 -0.47656,4.89649 -0.0491,0.2581 -0.0861,0.5318 -0.125,0.80469 -0.004,0.87843 0.0121,1.71996 0.0234,4.25976 0.4583,4.22582 2.13757,5.69756 3.48437,9.04297 l -1.44922,-1.64062 c 0.0457,5.66633 1.19964,3.70052 1.08399,8.25781 l 1.79687,-0.59961 c -0.44058,1.67936 1.26467,5.28832 2.46875,6.5293 l -0.64844,1.6621 c 0.19242,0.34597 0.3724,0.67175 0.57422,1.03125 1.62312,2.46888 2.98565,3.99346 4.32618,4.37305 l -1.23047,0.22266 c 0.8993,1.04394 5.75865,11.91246 5.00195,7.4375 0.39832,0.92035 0.47852,1.98848 1.96289,3.6289 l 1.14063,-0.46289 c 0.95349,1.46165 1.41146,3.28194 1.81054,4.64453 0.34356,1.62581 0.44187,1.97915 0.22266,3.10938 0.0189,0.0367 0.0436,0.0747 0.0625,0.11133 0.54852,0.2782 0.81471,-1.89442 1.26172,-1.45703 1.28791,1.2602 1.92865,9.89646 4.94336,13.02148 0.53329,0.55307 0.16989,1.51956 0.36718,2.41016 0.55722,0.44526 1.168,1.04785 1.86328,1.88476 0.049,1.8519 -1.08327,1.58221 2.76172,7.95899 0.7632,0.0865 -0.13711,-2.44608 -0.8457,-4.45899 8.10028,12.13376 13.52047,31.65657 9.88086,47.50196 -0.0486,-8.37247 -2.13506,3.11618 -3.07227,1.96093 -0.69501,5.07111 -1.74709,10.13359 -3.36718,15.07422 0.9391,-4.261 3.45077,-14.41728 2.55468,-22.3164 -0.88338,1.20472 -1.41247,2.59881 -2.02929,4.27539 -0.5678,8.82455 -1.91051,17.27102 -4.09961,25.50586 -0.25534,2.19085 -0.59287,4.56147 -1.06641,7.10546 1.02246,0.2389 2.04803,0.48674 3.07617,0.74414 2.99726,-8.81373 4.90244,-17.91978 6.08594,-27.11523 l 1.66211,-2.73633 v 2.23633 c -1.18127,10.00151 -3.5884,18.90062 -7.16797,27.76367 30.35694,7.6945 63.31819,23.43509 104.49805,47.20899 -9.05722,-16.6749 -17.14299,-31.70776 -24.86328,-46.02344 l -10.2754,-19.06065 C 271.81705,164.52285 265.46016,145.1044 238.54297,81.9375 Z"
               style="display:inline;fill:#a9b1d6;fill-opacity:1;fill-rule:evenodd;stroke:none;stroke-width:1.76794" /><g
               style="display:inline;fill:#a9b1d6;fill-opacity:1"
               id="g5855"
               transform="matrix(0.25954234,0,0,0.25954234,-186.03835,105.55609)"><g
                 style="fill:#a9b1d6;fill-opacity:1;stroke:none"
                 id="g5853"
                 transform="matrix(0.92549766,0,0,0.92549766,1183.9967,255.74839)"><g
                   style="fill:#a9b1d6;fill-opacity:1;stroke:none"
                   id="g5766"
                   transform="matrix(-1.3233412,1.1632779,1.1632779,1.3233412,-308.61447,194.00943)"><g
                     style="fill:#a9b1d6;fill-opacity:1;stroke:none"
                     id="g5764"><path
                       id="path5762"
                       d="m 38.656,107.308 c 2.997,1.072 7.454,1.031 11.245,1.141 -4.473,-1.279 -5.051,-0.678 -9.408,-2.197 -3.143,-1.48 -3.832,-3.17 -6.058,-5.102 l 0.881,1.557 c -4.366,-1.545 -2.539,-1.912 -6.091,-3.037 l 0.605029,-0.742832 C 28.415029,98.820168 26.418,96.056 25.78,94.795 l -1.548,0.061 c -1.86,-2.295 -2.851,-3.949 -2.779,-5.23 l -1.593303,2.256883 c -0.567,-0.973 -7.928911,-4.009059 -4.672911,-2.232059"
                       style="fill:#a9b1d6;fill-opacity:1;stroke:none" /></g></g><path
                   style="opacity:1;fill:#a9b1d6;fill-opacity:1;fill-rule:evenodd;stroke:none;stroke-width:0.3;stroke-miterlimit:4;stroke-dasharray:none;stroke-opacity:1"
                   d="m -237.47517,382.82223 c 0.19805,-1.13617 1.37012,-5.87933 2.6046,-10.54037 4.61259,-17.41588 5.41276,-23.53097 5.38698,-41.16824 -0.0267,-18.23664 -0.78514,-22.50225 -5.90591,-33.21429 -2.66987,-5.58507 -9.19882,-14.33766 -11.29516,-15.1421 -2.24824,-0.86273 -10.63202,9.39825 -14.47674,17.7182 -3.02961,6.55604 -4.36994,14.18419 -4.38831,24.97489 -0.009,5.28399 -0.3033,9.23473 -0.68794,9.23473 -1.41176,0 -6.53791,-14.46442 -8.34274,-23.54064 -1.67004,-8.39838 -1.65419,-26.02521 0.031,-34.51285 2.47883,-12.4847 8.44437,-26.20575 15.47548,-35.59443 4.24925,-5.67404 14.69338,-15.76931 20.18074,-19.50665 2.25903,-1.53859 4.24143,-2.66334 4.40532,-2.49944 0.1639,0.16389 -0.006,1.90488 -0.37692,3.86886 -0.86969,4.6014 0.27801,12.3047 2.58522,17.35187 0.95062,2.07955 4.27436,8.02598 7.38609,13.21429 7.50849,12.51921 10.40964,18.44102 13.37302,27.29696 3.59211,10.73486 4.8163,19.90511 4.33772,32.49346 -0.883,23.2264 -8.33392,42.9906 -24.15992,64.08628 -5.68916,7.5835 -6.64879,8.44093 -6.13255,5.47947 z"
                   id="path5768" /><g
                   style="fill:#a9b1d6;fill-opacity:1;stroke:none"
                   id="g5774"
                   transform="matrix(1.1872143,1.5720066,-1.5363801,1.2147441,-148.80137,143.5531)"><g
                     style="fill:#a9b1d6;fill-opacity:1;stroke:none"
                     id="g5772"><path
                       id="path5770"
                       d="M 3.9682846,62.377011 C 2.6002846,87.081011 18.209,101.77 38.656,107.308 c 2.997,1.072 2.795577,0.71872 6.586577,0.82872 -4.473,-1.279 -5.782317,-2.10745 -5.782317,-2.10745 -3.143,-1.48 -1.413248,-0.47909 -3.639248,-2.41109 L 35.316,102.707 c -4.366,-1.545 -2.539,-1.912 -6.091,-3.037 l 0.941,-1.229 C 28.751,98.334 26.418,96.056 25.78,94.795 l -1.548,0.061 c -1.86,-2.295 -2.851,-3.949 -2.779,-5.23 l -0.5,0.891 c -0.567,-0.973 -6.843,-8.607 -3.587,-6.83 -0.605,-0.553 -1.409,-0.9 -2.281,-2.484 l 0.663,-0.758 c -1.567,-2.016 -2.884,-4.6 -2.784,-5.461 0.836,1.129 1.416,1.34 1.99,1.533 -3.957,-9.818 -4.179,-0.541 -7.176,-9.994 L 8.412,66.472 C 7.926,65.74 7.631,64.945 7.24,64.165 l 0.276,-2.75"
                       style="fill:#a9b1d6;fill-opacity:1;stroke:none" /></g></g><g
                   style="fill:#a9b1d6;fill-opacity:1;stroke:none"
                   id="g5780"
                   transform="matrix(1.308886,0.70009312,-0.70009312,1.308886,-296.02043,221.67495)"><g
                     style="fill:#a9b1d6;fill-opacity:1;stroke:none"
                     id="g5778"><path
                       id="path5776"
                       d="M 83.05488,31.727898 C 83.079601,28.76241 82.409398,27.165259 82.639,25.554 c 2.404,3.483 3.775,8.881 4.404,11.117 -0.48,-2.726 -1.256,-5.367 -2.203,-7.922 0.73,0.307 -1.176,-5.609 0.949,-1.691 C 83.519,18.706 76.074,10.902 69.225,7.24 70.063,8.007 71.121,8.97 70.741,9.121 67.335,7.093 67.934,6.935 67.446,6.078 64.671,4.949 64.489,6.169 62.651,6.08 52.25259,2.3210209 57.864781,10.550967 60.512,13.26"
                       style="fill:#a9b1d6;fill-opacity:1;stroke:none" /></g></g><g
                   style="fill:#a9b1d6;fill-opacity:1;stroke:none"
                   transform="matrix(1.4623542,-0.25462333,0.25462333,1.4623542,-289.17744,231.27245)"
                   id="g5786"><g
                     style="fill:#a9b1d6;fill-opacity:1;stroke:none"
                     id="g5784"><path
                       style="fill:#a9b1d6;fill-opacity:1;stroke:none"
                       d="m 27.860553,7.6057069 c 2.524,-1.424 3.582829,-3.5433263 4.444829,-4.0253263 -2.732,0.166 5.303751,-5.3617733 5.303751,-5.3617733 -5.38827,1.68495488 -13.196834,6.5280217 -17.6058,10.7024346 L 19.613327,8.3719042 C 17.578327,10.814904 11.288,16.374 10.743,19.538 l -0.544,0.127 C 9.14,21.458 8.455,23.49 7.615,25.335 6.23,27.695 5.585,26.243 5.782,26.613 3.058,32.136 1.705,36.777 0.536,40.583 1.369,41.828 -0.29427018,48.052064 0.02072982,53.054064 2.4242272,55.040017 6.0254237,61.89857 6.4137333,57.605945 6.891019,52.329722 6.6569033,47.679165 7.13,41.534 7.415,39.145 9.508,36.602 11.1,32.614 l -0.97,-0.167"
                       id="path5782" /></g></g><g
                   style="fill:#a9b1d6;fill-opacity:1;stroke:none"
                   transform="rotate(168.65676,-119.28771,175.9957)"
                   id="g5792"><g
                     style="fill:#a9b1d6;fill-opacity:1;stroke:none"
                     id="g5790"><path
                       style="fill:#a9b1d6;fill-opacity:1;stroke:none"
                       d="M 28.294437,5.8669736 C 23.838437,7.8549736 24.743,5.847 20.302,10.011 l -0.14,-0.933 c -2.035,2.443 -8.874,7.296 -9.419,10.46 l -0.544,0.127 C 9.14,21.458 8.455,23.49 7.615,25.335 6.23,27.695 5.585,26.243 5.782,26.613 3.058,32.136 1.705,36.777 0.536,40.583 1.369,41.828 0.556,48.078 0.871,53.08 6.5325122,55.378023 0.07851389,59.578521 11.1,32.614 l -0.97,-0.167"
                       id="path5788" /></g></g><g
                   transform="matrix(-1.3233412,1.1632779,1.1632779,1.3233412,-307.30485,180.37237)"
                   id="g5798"
                   style="fill:#a9b1d6;fill-opacity:1;stroke:none"><g
                     id="g5796"
                     style="fill:#a9b1d6;fill-opacity:1;stroke:none"><path
                       style="fill:#a9b1d6;fill-opacity:1;stroke:none"
                       d="m 22.676746,100.79936 7.070057,1.65071 C 25.380803,100.90507 32.777,100.795 29.225,99.67 l 0.941,-1.229 C 28.751,98.334 26.418,96.056 25.78,94.795 l -1.548,0.061 c -1.86,-2.295 -2.851,-3.949 -2.779,-5.23 l -0.5,0.891 c -0.567,-0.973 -6.843,-8.607 -3.587,-6.83 -0.605,-0.553 -1.409,-0.9 -2.281,-2.484 l 0.663,-0.758 c -1.567,-2.016 -2.884,-4.6 -2.784,-5.461 0.836,1.129 1.416,1.34 1.99,1.533 -3.957,-9.818 -3.924638,-1.337097 -9.8463459,1.513376"
                       id="path5794" /></g></g><g
                   style="fill:#a9b1d6;fill-opacity:1;stroke:none"
                   transform="rotate(-147.75092,-53.936857,217.28862)"
                   id="g5804"><g
                     style="fill:#a9b1d6;fill-opacity:1;stroke:none"
                     id="g5802"><path
                       style="fill:#a9b1d6;fill-opacity:1;stroke:none"
                       d="m 76.992,46.856 c 5.629481,18.95255 10.567157,3.776923 4.794,0.887 0.861,-1.304 0.961,1.403 0.047,4.403 1.268,-3.328 0.334,-3.863 0.66,-6.609 0.352,0.923 0.814,1.904 1.051,2.878 -0.826,-3.216 0.848,-5.416 1.262,-7.285 -0.408,-0.181 -1.275,1.422 -1.473,-2.377 -6.918013,-12.155335 9.826508,2.036878 -14.108,-31.513 0.838,0.767 1.896,1.73 1.516,1.881 -3.406,-2.028 -2.807,-2.186 -3.295,-3.043 12.430397,16.705768 6.454718,20.113693 9.019,30.352 l 0.371,0.1 c 0.657895,4.64073 0.582,8.199 -0.752,12.238 l 0.908,-1.912"
                       id="path5800" /></g></g><path
                   id="path5806"
                   d="m -277.91264,289.50835 c 0,0 -0.83047,1.75707 -1.26259,1.28539 -0.46434,-0.50685 -0.55413,-2.06205 -0.64931,-3.7505 -0.27396,-4.86009 1.16524,-10.47386 3.35088,-16.39349 -2.03103,3.39395 -3.46356,7.98402 -4.42528,11.85523 -0.58553,-5.52904 5.36224,-16.42003 5.98118,-18.56725 -11.80913,14.79872 -7.84908,45.60327 0.73271,56.61587 -3.04182,-6.00165 -4.85399,-14.11874 -5.48252,-22.14929 0.15381,-3.56516 1.00698,-7.8719 2.30641,-7.83855"
                   style="fill:#a9b1d6;fill-opacity:1;stroke:none" /><g
                   style="fill:#a9b1d6;fill-opacity:1;stroke:none"
                   transform="matrix(3.1551302,-0.0374057,0.0374057,3.1551302,-471.52897,167.95141)"
                   id="g5812"><g
                     style="fill:#a9b1d6;fill-opacity:1;stroke:none"
                     id="g5810"><path
                       style="fill:#a9b1d6;fill-opacity:1;stroke:none"
                       d="m 84.568,48.916 -0.424296,0.68011 c -0.484,3.438 -1.368704,6.82189 -2.970704,9.97589 1.77,-3.328 2.908358,-6.407795 3.388358,-10.095795"
                       id="path5808" /></g></g><g
                   style="fill:#a9b1d6;fill-opacity:1;stroke:none"
                   transform="matrix(2.3429651,2.1134712,-2.1134712,2.3429651,144.65561,88.556499)"
                   id="g5818"><g
                     style="fill:#a9b1d6;fill-opacity:1;stroke:none"
                     id="g5816"><path
                       style="fill:#a9b1d6;fill-opacity:1;stroke:none"
                       d="m -47.76983,138.88946 c -0.625,-0.691 -0.995,-1.523 -1.409,-2.352 0.396,1.457 1.207,2.709 1.962,3.982 l -0.553,-1.63"
                       id="path5814" /></g></g><g
                   style="fill:#a9b1d6;fill-opacity:1;stroke:none"
                   transform="matrix(-2.5038698,-0.12375367,-0.12375367,2.5038698,-242.78268,170.8553)"
                   id="g5824"><g
                     style="fill:#a9b1d6;fill-opacity:1;stroke:none"
                     id="g5822"><path
                       style="fill:#a9b1d6;fill-opacity:1;stroke:none"
                       d="m -14.040219,76.839422 -0.252,1.26 c 1.181,1.604 2.118,3.342 3.626,4.596 -1.085,-2.118 -1.891,-2.993 -3.374,-5.856"
                       id="path5820" /></g></g><g
                   style="fill:#a9b1d6;fill-opacity:1;stroke:none"
                   transform="matrix(2.4158003,2.0298165,-2.0298165,2.4158003,-87.76608,54.808854)"
                   id="g5830"><g
                     style="fill:#a9b1d6;fill-opacity:1;stroke:none"
                     id="g5828"><path
                       style="fill:#a9b1d6;fill-opacity:1;stroke:none"
                       d="m -4.880751,74.97139 c 0.563,-1.728 0.665,-2.766 0.88,-3.766 -1.556,1.989 -0.716,2.413 -0.88,3.766"
                       id="path5826" /></g></g><g
                   style="fill:#a9b1d6;fill-opacity:1;stroke:none"
                   id="g5836"
                   transform="matrix(-1.6444696,2.6929474,-2.6929474,-1.6444696,-35.82328,378.326)"><g
                     style="fill:#a9b1d6;fill-opacity:1;stroke:none"
                     id="g5834"><path
                       id="path5832"
                       d="m -5.5700363,71.990777 c 0.28,2.592 -1.95,3.598 0.494,1.889 1.31,-2.951 -0.512,-0.815 -0.494,-1.889"
                       style="fill:#a9b1d6;fill-opacity:1;stroke:none" /></g></g><g
                   style="fill:#a9b1d6;fill-opacity:1;stroke:none"
                   id="g5844"
                   transform="matrix(-2.5352718,2.2869414,2.2869414,2.5352718,-137.04733,182.02906)"><g
                     style="fill:#a9b1d6;fill-opacity:1;stroke:none"
                     id="g5842"><path
                       id="path5838"
                       d="m 45.172,1.399 c 0.959,0.172 2.072,0.304 1.916,0.533 1.049,-0.23 1.287,-0.442 -1.916,-0.533"
                       style="fill:#a9b1d6;fill-opacity:1;stroke:none" /><path
                       id="path5840"
                       d="M 47.088,1.932 46.41,2.072 47.041,2.016 47.088,1.932"
                       style="fill:#a9b1d6;fill-opacity:1;stroke:none" /></g></g><g
                   id="g5851"
                   transform="matrix(0.31518726,-0.91401344,-0.91401344,-0.31518726,-150.5938,297.40361)"
                   style="fill:#a9b1d6;fill-opacity:1;stroke:none"><g
                     id="g5848"
                     style="fill:#a9b1d6;fill-opacity:1;stroke:none"><path
                       id="path5846"
                       d="M -5.8830027,89.687534 C -1.0112763,108.45649 22.430269,102.91332 38.656,107.308 c 2.997,1.072 5.436974,1.21462 9.227974,1.32462 -4.473,-1.279 -3.033974,-0.86162 -7.390974,-2.38062 -3.143,-1.48 -3.832,-3.17 -6.058,-5.102 l 0.881,1.557 c -4.366,-1.545 -2.539,-1.912 -6.091,-3.037 l 0.941,-1.229 C 28.751,98.334 26.418,96.056 25.78,94.795 l -1.548,0.061 c -1.86,-2.295 -2.851,-3.949 -2.779,-5.23 l -0.5,0.891 c -0.567,-0.973 -7.670893,-7.62258 -4.414893,-5.84558 -0.605,-0.553 -1.409,-0.9 -2.281,-2.484 l 0.663,-0.758 C 14.044766,80.303263 12.759645,79.464161 11.813135,78.792741 10.621979,78.078073 10.399981,77.914731 9.4139446,77.781349 9.1719305,77.18087 11.091048,77.609743 10.862823,77.128037 10.232269,75.79715 3.729328,73.000444 2.1179626,69.83851 1.7653051,69.146501 0.55304284,69.358304 -0.0552988,68.559514"
                       style="fill:#a9b1d6;fill-opacity:1;stroke:none" /></g></g></g></g></g></g><g
           id="layer4"
           style="display:inline;fill:#ebdbb2;fill-opacity:1"
           transform="translate(0,6.0476578)" /></g></g></g></svg>
