<?xml version="1.0" encoding="UTF-8" standalone="no"?>
<svg
   id="Layer_1"
   data-name="Layer 1"
   viewBox="0 0 1920 1080"
   version="1.1"
   sodipodi:docname="centos_00_scalable.svg"
   width="1920"
   height="1080"
   inkscape:version="1.2 (dc2aedaf03, 2022-05-15)"
   xmlns:inkscape="http://www.inkscape.org/namespaces/inkscape"
   xmlns:sodipodi="http://sodipodi.sourceforge.net/DTD/sodipodi-0.dtd"
   xmlns:xlink="http://www.w3.org/1999/xlink"
   xmlns="http://www.w3.org/2000/svg"
   xmlns:svg="http://www.w3.org/2000/svg"
   xmlns:rdf="http://www.w3.org/1999/02/22-rdf-syntax-ns#"
   xmlns:cc="http://creativecommons.org/ns#"
   xmlns:dc="http://purl.org/dc/elements/1.1/">
  <metadata
     id="metadata13">
    <rdf:RDF>
      <cc:Work
         rdf:about="">
        <dc:format>image/svg+xml</dc:format>
        <dc:type
           rdf:resource="http://purl.org/dc/dcmitype/StillImage" />
        <dc:title>Android robot</dc:title>
      </cc:Work>
    </rdf:RDF>
  </metadata>
  <sodipodi:namedview
     pagecolor="#ffffff"
     bordercolor="#666666"
     borderopacity="1"
     objecttolerance="10"
     gridtolerance="10"
     guidetolerance="10"
     inkscape:pageopacity="0"
     inkscape:pageshadow="2"
     inkscape:window-width="1670"
     inkscape:window-height="1048"
     id="namedview11"
     showgrid="false"
     fit-margin-top="0"
     fit-margin-left="0"
     fit-margin-right="0"
     fit-margin-bottom="0"
     inkscape:zoom="0.54205414"
     inkscape:cx="960.23619"
     inkscape:cy="575.58826"
     inkscape:window-x="2170"
     inkscape:window-y="32"
     inkscape:window-maximized="1"
     inkscape:current-layer="Layer_1"
     inkscape:document-rotation="0"
     inkscape:snap-intersection-paths="true"
     inkscape:object-paths="true"
     inkscape:showpageshadow="0"
     inkscape:pagecheckerboard="0"
     inkscape:deskcolor="#d1d1d1" />
  <defs
     id="defs4">
    <style
       id="style2">.cls-1{fill:#3ddc84;}</style>
    <inkscape:perspective
       sodipodi:type="inkscape:persp3d"
       inkscape:vp_x="0 : 384 : 1"
       inkscape:vp_y="0 : 1000 : 0"
       inkscape:vp_z="1024 : 384 : 1"
       inkscape:persp3d-origin="512 : 256 : 1"
       id="perspective279" />
    <pattern
       inkscape:collect="always"
       xlink:href="#pattern4481"
       id="pattern4486"
       patternTransform="matrix(0.4295427,0,0,0.4295427,-4.3554687e-6,-4.3457032e-7)" />
    <pattern
       inkscape:collect="always"
       xlink:href="#pattern4467"
       id="pattern4481"
       patternTransform="matrix(0.4295427,0,0,0.4295427,-130.66779,-129.37468)" />
    <linearGradient
       id="linearGradient3588">
      <stop
         style="stop-color:#bfe699;stop-opacity:1;"
         offset="0"
         id="stop3590" />
      <stop
         style="stop-color:#313e24;stop-opacity:1;"
         offset="1"
         id="stop3592" />
    </linearGradient>
    <linearGradient
       id="linearGradient3570">
      <stop
         id="stop3572"
         offset="0"
         style="stop-color:#e5ffcb;stop-opacity:1;" />
      <stop
         id="stop3574"
         offset="1"
         style="stop-color:#bfff80;stop-opacity:1;" />
    </linearGradient>
    <linearGradient
       id="linearGradient3303">
      <stop
         style="stop-color:#bfff80;stop-opacity:1;"
         offset="0"
         id="stop3305" />
      <stop
         style="stop-color:#6a8b4a;stop-opacity:1;"
         offset="1"
         id="stop3307" />
    </linearGradient>
    <linearGradient
       id="linearGradient3431">
      <stop
         id="stop3433"
         offset="0"
         style="stop-color:#3d3d3d;stop-opacity:1;" />
      <stop
         id="stop3435"
         offset="1"
         style="stop-color:#000000;stop-opacity:0.11400651;" />
    </linearGradient>
    <linearGradient
       id="linearGradient3349">
      <stop
         style="stop-color:#d3d3d3;stop-opacity:1;"
         offset="0"
         id="stop3351" />
      <stop
         style="stop-color:#ffffff;stop-opacity:1;"
         offset="1"
         id="stop3353" />
    </linearGradient>
    <linearGradient
       id="linearGradient3312">
      <stop
         style="stop-color:#c7f994;stop-opacity:1;"
         offset="0"
         id="stop3314" />
      <stop
         style="stop-color:#87cf3e;stop-opacity:1;"
         offset="1"
         id="stop3316" />
    </linearGradient>
    <linearGradient
       inkscape:collect="always"
       xlink:href="#linearGradient3312"
       id="linearGradient3335"
       gradientUnits="userSpaceOnUse"
       x1="61.42857"
       y1="362.14285"
       x2="116.42857"
       y2="408.57144" />
    <linearGradient
       inkscape:collect="always"
       xlink:href="#linearGradient3349"
       id="linearGradient3374"
       gradientUnits="userSpaceOnUse"
       x1="140.66374"
       y1="424.33243"
       x2="67.175148"
       y2="348.57098" />
    <linearGradient
       inkscape:collect="always"
       xlink:href="#linearGradient3312"
       id="linearGradient3377"
       gradientUnits="userSpaceOnUse"
       x1="61.42857"
       y1="362.14285"
       x2="116.42857"
       y2="408.57144"
       gradientTransform="translate(0,-9.49911)" />
    <linearGradient
       inkscape:collect="always"
       xlink:href="#linearGradient3312"
       id="linearGradient3416"
       gradientUnits="userSpaceOnUse"
       gradientTransform="matrix(1,0,0,-1,0,649.49911)"
       x1="61.42857"
       y1="362.14285"
       x2="116.42857"
       y2="408.57144" />
    <linearGradient
       inkscape:collect="always"
       xlink:href="#linearGradient3431"
       id="linearGradient2259"
       gradientUnits="userSpaceOnUse"
       spreadMethod="pad"
       x1="70.491508"
       y1="416.38858"
       x2="113.64215"
       y2="375.87961" />
    <linearGradient
       inkscape:collect="always"
       xlink:href="#linearGradient3588"
       id="linearGradient3737"
       gradientUnits="userSpaceOnUse"
       x1="26.795013"
       y1="216.34912"
       x2="149.90654"
       y2="323.98651" />
    <pattern
       patternUnits="userSpaceOnUse"
       width="256"
       height="256"
       patternTransform="translate(-297.8418,85.357452)"
       id="pattern4467">
      <image
         xlink:href="../../123381-mint-logo-white-bg1-Dateien/metal5.html"
         y="0"
         x="0"
         id="image4464"
         height="256"
         width="256" />
    </pattern>
    <pattern
       patternUnits="userSpaceOnUse"
       width="109.96293"
       height="109.96293"
       patternTransform="translate(-130.66779,-129.37468)"
       id="pattern4483">
      <rect
         id="rect4470"
         y="0"
         x="0"
         height="109.96293"
         width="109.96293"
         style="fill:url(#pattern4486);stroke:none" />
    </pattern>
    <linearGradient
       inkscape:collect="always"
       xlink:href="#linearGradient3349"
       id="linearGradient3000"
       gradientUnits="userSpaceOnUse"
       gradientTransform="matrix(1.0484996,0,0,1.0484996,59.525242,85.095989)"
       x1="148.5945"
       y1="426.11398"
       x2="100.47015"
       y2="379.95963" />
    <linearGradient
       inkscape:collect="always"
       xlink:href="#linearGradient3312"
       id="linearGradient3006"
       gradientUnits="userSpaceOnUse"
       gradientTransform="matrix(1.0484996,0,0,1.0484996,59.525242,75.136176)"
       x1="61.42857"
       y1="362.14285"
       x2="116.42857"
       y2="408.57144" />
    <linearGradient
       inkscape:collect="always"
       xlink:href="#linearGradient3312"
       id="linearGradient4003"
       gradientUnits="userSpaceOnUse"
       gradientTransform="matrix(1.0484996,0,0,1.0484996,210.01137,213.49817)"
       x1="61.42857"
       y1="362.14285"
       x2="116.42857"
       y2="408.57144" />
    <linearGradient
       inkscape:collect="always"
       xlink:href="#linearGradient3349"
       id="linearGradient4007"
       gradientUnits="userSpaceOnUse"
       gradientTransform="matrix(1.0484996,0,0,1.0484996,210.01137,223.45798)"
       x1="148.5945"
       y1="426.11398"
       x2="100.47015"
       y2="379.95963" />
    <clipPath
       id="clipPath4429">
      <g
         transform="matrix(0.9947658,0,0,1,1.7860989,0)"
         id="g4431">
        <path
           d="m 322.54143,2800.9375 -4.43505,5.7298 -4.43495,-5.7298 0,-43.1429 -18.93972,0 23.37467,-25.5367 23.13125,25.5367 -18.6962,0 0,43.1429 z"
           id="path4433"
           style="fill:#efa724;fill-opacity:1;fill-rule:evenodd;stroke:none;stroke-width:30;marker:none;visibility:visible;display:inline;overflow:visible" />
      </g>
    </clipPath>
  </defs>
  <title
     id="title6">Android robot</title>
  <g
     id="g925">
    <rect
       style="fill:#1a1b26;fill-opacity:1;fill-rule:nonzero;stroke-width:104.97;stroke-linecap:round;stroke-linejoin:round;paint-order:stroke markers fill"
       id="rect835"
       width="1920"
       height="1080"
       x="-7.4218752e-07"
       y="5.2734376e-06" />
    <path
       id="path4016"
       style="fill:#73daca;fill-opacity:1;stroke:none;stroke-width:8.25795;stroke-linejoin:round;stroke-miterlimit:4;stroke-dasharray:none;stroke-opacity:1;paint-order:stroke markers fill"
       d="M 0 432.61133 L 0 486.30469 L 1358.3262 486.30469 L 1409.5195 486.30469 L 1409.5195 432.61133 L 1365.3457 432.61133 L 0 432.61133 z " />
    <path
       id="path4018"
       style="fill:#7aa2f7;fill-opacity:1;stroke:none;stroke-width:7.3061;stroke-linejoin:round;stroke-miterlimit:4;stroke-dasharray:none;stroke-opacity:1;paint-order:stroke markers fill"
       d="M 0 486.30469 L 0 540 L 1358.7949 540 L 1358.793 539.99805 L 1409.5195 489.27148 L 1409.5195 486.30469 L 1358.3262 486.30469 L 0 486.30469 z " />
    <path
       id="path4020"
       style="fill:#e0af68;fill-opacity:1;stroke:none;stroke-width:5.96542;stroke-linejoin:round;stroke-miterlimit:4;stroke-dasharray:none;stroke-opacity:1;paint-order:stroke markers fill"
       d="M 0 540 L 0 593.69336 L 1365.2363 593.69336 L 1409.5195 593.69336 L 1409.5195 590.72656 L 1361.498 542.70508 L 1358.7949 540 L 0 540 z " />
    <path
       style="fill:#cc241d;fill-opacity:1;stroke:none;stroke-width:4.2739;stroke-linejoin:round;stroke-miterlimit:4;stroke-dasharray:none;stroke-opacity:1;paint-order:stroke markers fill"
       d="m 0,593.69336 v 53.69336 h 1386.0137 23.5058 v -53.69336 h -44.2832 z"
       id="path4022" />
    <path
       id="path4283"
       style="color:#000000;font-style:normal;font-variant:normal;font-weight:normal;font-stretch:normal;font-size:medium;line-height:normal;font-family:sans-serif;font-variant-ligatures:normal;font-variant-position:normal;font-variant-caps:normal;font-variant-numeric:normal;font-variant-alternates:normal;font-variant-east-asian:normal;font-feature-settings:normal;font-variation-settings:normal;text-indent:0;text-align:start;text-decoration:none;text-decoration-line:none;text-decoration-style:solid;text-decoration-color:#000000;letter-spacing:normal;word-spacing:normal;text-transform:none;writing-mode:lr-tb;direction:ltr;text-orientation:mixed;dominant-baseline:auto;baseline-shift:baseline;text-anchor:start;white-space:normal;shape-padding:0;shape-margin:0;inline-size:0;clip-rule:nonzero;display:inline;overflow:visible;visibility:visible;isolation:auto;mix-blend-mode:normal;color-interpolation:sRGB;color-interpolation-filters:linearRGB;solid-color:#000000;solid-opacity:1;vector-effect:none;fill:#a9b1d6;fill-opacity:1;fill-rule:nonzero;stroke:none;stroke-width:7.65398;stroke-linecap:butt;stroke-linejoin:miter;stroke-miterlimit:4;stroke-dasharray:none;stroke-dashoffset:0;stroke-opacity:1;color-rendering:auto;image-rendering:auto;shape-rendering:auto;text-rendering:auto;enable-background:accumulate;stop-color:#000000"
       d="m 1543.9832,366.80859 -50.7246,50.72657 h -71.7383 v 3.82617 67.91016 l -50.7265,50.72656 2.705,2.70703 48.0215,48.02148 v 71.73633 h 71.7363 l 50.7266,50.72656 50.7246,-50.72656 h 71.7383 v -71.73633 l 50.7266,-50.72851 -50.7266,-50.72656 v -71.73633 h -71.7383 z m 0,10.82227 39.9024,39.9043 h -32.2481 v 3.82617 89.33594 l -7.6543,7.65429 -7.6543,-7.65429 v -93.16211 h -32.248 z m -114.8105,47.55859 h 56.4316 l -22.8027,22.80274 2.705,2.70508 63.168,63.16797 v 10.82617 h -10.8223 l -65.8769,-65.875 -22.8027,22.80273 z m 67.2539,0 h 32.248 v 77.85352 l -55.0508,-55.05078 z m 62.8652,0 h 32.248 l 22.8028,22.80274 -55.0508,55.05078 z m 43.0703,0 h 56.4317 v 56.42969 l -22.8028,-22.80273 -65.8769,65.875 h -10.8223 v -10.82617 l 65.873,-65.87305 z m -150.3867,44.45118 55.0527,55.05078 h -77.8554 v -32.24805 z m 184.0156,0 22.8028,22.80273 v 32.24805 h -77.8536 z m -214.4707,30.45507 v 32.25 h 93.1621 l 7.6524,7.65235 -7.6543,7.6543 h -93.1602 v 3.82812 28.42188 L 1381.616,540 Z m 244.9258,0 39.9023,39.90235 -39.9023,39.90234 V 547.65235 H 1573.284 L 1565.6316,540 l 7.6543,-7.6543 h 93.1602 z m -130.1172,21.42383 7.6543,7.6543 7.6543,-7.6543 v 10.82617 h 10.8223 l -7.6524,7.65235 2.7071,2.70703 4.9472,4.94727 h -10.8242 v 3.82812 6.99609 l -7.6543,-7.65429 -7.6543,7.65429 v -10.82421 h -10.8242 l 7.6543,-7.6543 -7.6524,-7.65235 h 10.8223 z m -107.1562,33.78711 h 77.8535 l -55.0508,55.05078 -22.8027,-22.80273 z m 88.6777,0 h 10.8242 v 10.82422 l -65.875,65.875 2.707,2.70703 20.0957,20.0957 h -56.4296 v -56.42968 l 22.8027,22.80273 z m 41.4414,0 h 10.8242 l 65.875,65.875 22.8028,-22.80273 v 56.42968 h -56.4317 l 22.8027,-22.80273 -65.873,-65.875 z m 21.6465,0 h 77.8555 v 32.2461 l -22.8047,22.80468 z m -36.9551,6.3418 7.6543,7.6543 v 93.16015 h 32.2461 l -39.9004,39.90039 -39.9023,-39.90039 h 32.248 v -93.16015 z m -15.3086,15.30859 v 77.85156 h -32.248 l -22.8028,-22.80273 z m 30.6172,0 55.0488,55.04883 -22.8027,22.80273 h -32.2461 z" />
    <path
       style="fill:#f7768e;fill-opacity:1;stroke:none;stroke-width:4.2739;stroke-linejoin:round;stroke-miterlimit:4;stroke-dasharray:none;stroke-opacity:1;paint-order:stroke markers fill"
       d="m 0,593.69336 v 53.69336 h 1386.0137 23.5058 v -53.69336 h -44.2832 z"
       id="path906" />
  </g>
</svg>
