<?xml version="1.0" encoding="UTF-8" standalone="no"?>
<svg
   version="1.1"
   id="svg5033"
   xml:space="preserve"
   width="1920"
   height="1080"
   viewBox="0 0 1920 1080"
   sodipodi:docname="freebsd_00_scalable.svg"
   inkscape:version="1.2 (dc2aedaf03, 2022-05-15)"
   inkscape:export-filename="/home/fjall/1577101987penguin-silhouette-3-freesvg.org.png"
   inkscape:export-xdpi="96"
   inkscape:export-ydpi="96"
   xmlns:inkscape="http://www.inkscape.org/namespaces/inkscape"
   xmlns:sodipodi="http://sodipodi.sourceforge.net/DTD/sodipodi-0.dtd"
   xmlns:xlink="http://www.w3.org/1999/xlink"
   xmlns="http://www.w3.org/2000/svg"
   xmlns:svg="http://www.w3.org/2000/svg"
   xmlns:rdf="http://www.w3.org/1999/02/22-rdf-syntax-ns#"
   xmlns:cc="http://creativecommons.org/ns#"
   xmlns:dc="http://purl.org/dc/elements/1.1/"><metadata
     id="metadata5039"><rdf:RDF><cc:Work
         rdf:about=""><dc:format>image/svg+xml</dc:format><dc:type
           rdf:resource="http://purl.org/dc/dcmitype/StillImage" /><dc:title /></cc:Work></rdf:RDF></metadata><defs
     id="defs5037"><marker
       style="overflow:visible"
       id="Arrow1Lstart"
       refX="0"
       refY="0"
       orient="auto"
       inkscape:stockid="Arrow1Lstart"
       inkscape:isstock="true"><path
         transform="matrix(0.8,0,0,0.8,10,0)"
         style="fill:#c53d3d;fill-opacity:0.795004;fill-rule:evenodd;stroke:none;stroke-width:1pt;stroke-opacity:1"
         d="M 0,0 5,-5 -12.5,0 5,5 Z"
         id="path2155" /></marker><clipPath
       clipPathUnits="userSpaceOnUse"
       id="clipPath5049"><path
         d="M 0,600 H 600 V 0 H 0 Z"
         id="path5047"
         inkscape:connector-curvature="0" /></clipPath><marker
       style="overflow:visible"
       id="Arrow1Lstart-5"
       refX="0"
       refY="0"
       orient="auto"
       inkscape:stockid="Arrow1Lstart"
       inkscape:isstock="true"><path
         transform="matrix(0.8,0,0,0.8,10,0)"
         style="fill:#c53d3d;fill-opacity:0.795004;fill-rule:evenodd;stroke:none;stroke-width:1pt;stroke-opacity:1"
         d="M 0,0 5,-5 -12.5,0 5,5 Z"
         id="path2155-3" /></marker><clipPath
       clipPathUnits="userSpaceOnUse"
       id="clipPath5049-5"><path
         d="M 0,600 H 600 V 0 H 0 Z"
         id="path5047-6"
         inkscape:connector-curvature="0" /></clipPath><marker
       style="overflow:visible"
       id="Arrow1Lstart-1"
       refX="0"
       refY="0"
       orient="auto"
       inkscape:stockid="Arrow1Lstart"
       inkscape:isstock="true"><path
         transform="matrix(0.8,0,0,0.8,10,0)"
         style="fill:#c53d3d;fill-opacity:0.795004;fill-rule:evenodd;stroke:none;stroke-width:1pt;stroke-opacity:1"
         d="M 0,0 5,-5 -12.5,0 5,5 Z"
         id="path2155-8" /></marker><clipPath
       clipPathUnits="userSpaceOnUse"
       id="clipPath5049-7"><path
         d="M 0,600 H 600 V 0 H 0 Z"
         id="path5047-9"
         inkscape:connector-curvature="0" /></clipPath><linearGradient
       x1="112.49854"
       y1="6.1372099"
       x2="112.49853"
       y2="129.3468"
       id="path1082_2_"
       gradientUnits="userSpaceOnUse"
       gradientTransform="translate(287,-83)"><stop
         id="stop193"
         style="stop-color:#ffffff;stop-opacity:0"
         offset="0" /><stop
         id="stop195"
         style="stop-color:#ffffff;stop-opacity:0.27450982"
         offset="1" /><midPointStop
         offset="0"
         style="stop-color:#FFFFFF"
         id="midPointStop197" /><midPointStop
         offset="0.5"
         style="stop-color:#FFFFFF"
         id="midPointStop199" /><midPointStop
         offset="1"
         style="stop-color:#000000"
         id="midPointStop201" /></linearGradient><linearGradient
       x1="541.33502"
       y1="104.50665"
       x2="606.91248"
       y2="303.14029"
       id="linearGradient2544"
       xlink:href="#path1082_2_"
       gradientUnits="userSpaceOnUse"
       gradientTransform="matrix(-0.3937741,0,0,0.393752,357.51969,122.00151)" /><linearGradient
       id="linearGradient3388"><stop
         id="stop3390"
         style="stop-color:#000000;stop-opacity:0"
         offset="0" /><stop
         id="stop3392"
         style="stop-color:#000000;stop-opacity:0.37113401"
         offset="1" /></linearGradient><linearGradient
       x1="490.72305"
       y1="237.72447"
       x2="490.72305"
       y2="183.9644"
       id="linearGradient4416"
       xlink:href="#linearGradient3388"
       gradientUnits="userSpaceOnUse"
       gradientTransform="matrix(0.749107,0,0,0.749107,-35.459862,91.44108)" /></defs><sodipodi:namedview
     pagecolor="#ffffff"
     bordercolor="#666666"
     borderopacity="1"
     objecttolerance="10"
     gridtolerance="10"
     guidetolerance="10"
     inkscape:pageopacity="0"
     inkscape:pageshadow="2"
     inkscape:window-width="1670"
     inkscape:window-height="1048"
     id="namedview5035"
     showgrid="false"
     inkscape:zoom="0.45502823"
     inkscape:cx="948.2928"
     inkscape:cy="679.07874"
     inkscape:window-x="2170"
     inkscape:window-y="32"
     inkscape:window-maximized="1"
     inkscape:current-layer="g5041"
     inkscape:document-rotation="0"
     inkscape:snap-global="true"
     showguides="true"
     inkscape:guide-bbox="true"
     fit-margin-top="0"
     fit-margin-left="0"
     fit-margin-right="0"
     fit-margin-bottom="0"
     inkscape:snap-bbox="false"
     inkscape:bbox-paths="false"
     inkscape:object-paths="true"
     inkscape:showpageshadow="0"
     inkscape:pagecheckerboard="0"
     inkscape:deskcolor="#d1d1d1"><inkscape:grid
       type="xygrid"
       id="grid997"
       originx="765.49429"
       originy="-129.70111" /></sodipodi:namedview><g
     id="g5041"
     inkscape:groupmode="layer"
     inkscape:label="penguin-clipart-publicdomainvectors.org"
     transform="matrix(1.3333333,0,0,-1.3333333,765.49429,670.29889)"><g
       id="g956"
       transform="translate(46.384326,0.71141601)" /><g
       id="g944"
       transform="translate(96.725563,0.71141601)" /><g
       id="g983"
       transform="translate(46.384326,890.94656)" /><g
       id="g985"
       transform="translate(96.725563,890.94656)" /><g
       id="g964"
       inkscape:export-filename="/home/fjall/g964111.png"
       inkscape:export-xdpi="68.300003"
       inkscape:export-ydpi="68.300003"><path
         id="rect835"
         style="fill:#1a1b26;fill-opacity:1;fill-rule:nonzero;stroke-width:78.7272;stroke-linecap:round;stroke-linejoin:round;paint-order:stroke markers fill"
         d="m -574.12073,502.72418 h 1440 v -810 h -1440 z" /><path
         id="path1356"
         style="fill:#73daca;fill-opacity:1;stroke:none;stroke-width:6.73772;stroke-linejoin:round;stroke-miterlimit:4;stroke-dasharray:none;stroke-opacity:1;paint-order:stroke markers fill"
         d="M 0 432.61133 L 0 647.38867 L 1415.043 647.38867 C 1392.4772 614.35637 1379.2715 574.42268 1379.2715 531.40234 C 1379.2715 495.60025 1388.4147 461.93847 1404.4824 432.61133 L 0 432.61133 z "
         transform="matrix(0.75000002,0,0,-0.75000002,-574.12073,502.72418)" /><path
         id="path1358"
         style="fill:#7aa2f7;fill-opacity:1;stroke:none;stroke-width:5.83501;stroke-linejoin:round;stroke-miterlimit:4;stroke-dasharray:none;stroke-opacity:1;paint-order:stroke markers fill"
         d="M 0 486.30469 L 0 647.38867 L 1415.043 647.38867 C 1392.4772 614.35637 1379.2715 574.42268 1379.2715 531.40234 C 1379.2715 515.90842 1380.9948 500.81999 1384.2383 486.30469 L 0 486.30469 z "
         transform="matrix(0.75000002,0,0,-0.75000002,-574.12073,502.72418)" /><path
         id="path1360"
         style="fill:#e0af68;fill-opacity:1;stroke:none;stroke-width:4.76429;stroke-linejoin:round;stroke-miterlimit:4;stroke-dasharray:none;stroke-opacity:1;paint-order:stroke markers fill"
         d="M 0 540 L 0 647.38867 L 1415.043 647.38867 C 1393.9885 616.56867 1381.0981 579.73809 1379.4648 540 L 0 540 z "
         transform="matrix(0.75000002,0,0,-0.75000002,-574.12073,502.72418)" /><path
         id="path1362"
         style="fill:#f7768e;fill-opacity:1;stroke:none;stroke-width:3.36885;stroke-linejoin:round;stroke-miterlimit:4;stroke-dasharray:none;stroke-opacity:1;paint-order:stroke markers fill"
         d="M 0 593.69336 L 0 647.38867 L 1415.043 647.38867 C 1403.8669 631.02885 1394.9897 612.97693 1388.875 593.69336 L 0 593.69336 z "
         transform="matrix(0.75000002,0,0,-0.75000002,-574.12073,502.72418)" /><path
         id="path894"
         style="fill:#a9b1d6;fill-opacity:1;stroke-width:1.19644"
         d="m 474.38361,257.82061 c -5.24744,0.10801 -9.53542,-1.01234 -12.32758,-3.80446 -11.31588,-11.3121 4.82682,-47.21038 18.9736,-71.9284 12.58956,21.88717 30.4976,40.31217 51.97658,53.52536 -18.50452,10.49951 -42.88024,21.88346 -58.6226,22.2075 z m 274.11003,-1.63088 c -25.65738,-0.41491 -77.20335,-33.3066 -83.59089,-39.70047 -7.57415,-7.57416 -0.61215,-26.81552 15.54907,-42.96919 16.15365,-16.15744 35.39223,-23.11599 42.96638,-15.55318 7.57415,7.57794 52.37591,78.58339 36.21469,94.73705 -2.52462,2.52519 -6.38789,3.56263 -11.13925,3.48579 z M 614.564,251.05219 c -81.02145,0 -146.70664,-65.67205 -146.70664,-146.70112 0,-81.013961 65.68519,-146.694162 146.70664,-146.694162 81.02151,0 146.70115,65.680201 146.70115,146.694162 0,26.16562 -6.86746,50.7018 -18.86366,71.97294 -2.59274,-4.73196 -5.11237,-9.06637 -7.41406,-12.78541 2.27148,-7.70645 1.86209,-14.07156 -1.82292,-17.74903 -8.60595,-8.60975 -31.8527,0.55557 -52.81016,20.50008 -1.46262,1.31149 -2.91391,2.67221 -4.33877,4.10086 -7.57793,7.58171 -13.47472,15.65083 -17.24665,23.08138 -7.33983,13.16782 -9.17606,24.79686 -3.62774,30.34519 3.02357,3.01984 7.86106,3.84373 13.76085,2.78167 3.84752,2.43403 8.38985,5.14405 13.37127,7.92201 -20.25448,10.56375 -43.28229,16.53143 -67.70931,16.53143 z" /></g></g></svg>
