<?xml version="1.0" encoding="UTF-8" standalone="no"?>
<svg
   version="1.1"
   id="svg5033"
   xml:space="preserve"
   width="1920"
   height="1080"
   viewBox="0 0 1920 1080"
   sodipodi:docname="ubuntu_00_scalable.svg"
   inkscape:version="1.2 (dc2aedaf03, 2022-05-15)"
   inkscape:export-filename="/home/fjall/1577101987penguin-silhouette-3-freesvg.org.png"
   inkscape:export-xdpi="96"
   inkscape:export-ydpi="96"
   xmlns:inkscape="http://www.inkscape.org/namespaces/inkscape"
   xmlns:sodipodi="http://sodipodi.sourceforge.net/DTD/sodipodi-0.dtd"
   xmlns="http://www.w3.org/2000/svg"
   xmlns:svg="http://www.w3.org/2000/svg"
   xmlns:rdf="http://www.w3.org/1999/02/22-rdf-syntax-ns#"
   xmlns:cc="http://creativecommons.org/ns#"
   xmlns:dc="http://purl.org/dc/elements/1.1/"><metadata
     id="metadata5039"><rdf:RDF><cc:Work
         rdf:about=""><dc:format>image/svg+xml</dc:format><dc:type
           rdf:resource="http://purl.org/dc/dcmitype/StillImage" /><dc:title /></cc:Work></rdf:RDF></metadata><defs
     id="defs5037"><marker
       style="overflow:visible"
       id="Arrow1Lstart"
       refX="0"
       refY="0"
       orient="auto"
       inkscape:stockid="Arrow1Lstart"
       inkscape:isstock="true"><path
         transform="matrix(0.8,0,0,0.8,10,0)"
         style="fill:#c53d3d;fill-opacity:0.795004;fill-rule:evenodd;stroke:none;stroke-width:1pt;stroke-opacity:1"
         d="M 0,0 5,-5 -12.5,0 5,5 Z"
         id="path2155" /></marker><clipPath
       clipPathUnits="userSpaceOnUse"
       id="clipPath5049"><path
         d="M 0,600 H 600 V 0 H 0 Z"
         id="path5047"
         inkscape:connector-curvature="0" /></clipPath></defs><sodipodi:namedview
     pagecolor="#ffffff"
     bordercolor="#666666"
     borderopacity="1"
     objecttolerance="10"
     gridtolerance="10"
     guidetolerance="10"
     inkscape:pageopacity="0"
     inkscape:pageshadow="2"
     inkscape:window-width="1670"
     inkscape:window-height="1048"
     id="namedview5035"
     showgrid="false"
     inkscape:zoom="0.42670797"
     inkscape:cx="959.67272"
     inkscape:cy="515.57509"
     inkscape:window-x="2170"
     inkscape:window-y="32"
     inkscape:window-maximized="1"
     inkscape:current-layer="g5041"
     inkscape:document-rotation="0"
     inkscape:snap-global="false"
     showguides="true"
     inkscape:guide-bbox="true"
     fit-margin-top="0"
     fit-margin-left="0"
     fit-margin-right="0"
     fit-margin-bottom="0"
     inkscape:showpageshadow="0"
     inkscape:pagecheckerboard="0"
     inkscape:deskcolor="#d1d1d1"><inkscape:grid
       type="xygrid"
       id="grid997"
       originx="725.49429"
       originy="-129.70111" /></sodipodi:namedview><g
     id="g5041"
     inkscape:groupmode="layer"
     inkscape:label="penguin-clipart-publicdomainvectors.org"
     transform="matrix(1.3333333,0,0,-1.3333333,725.49429,670.29889)"><g
       id="g956"
       transform="translate(46.384326,0.71141601)" /><g
       id="g944"
       transform="translate(96.725563,0.71141601)" /><g
       inkscape:export-filename="/home/fjall/g90611.png"
       inkscape:export-xdpi="128"
       inkscape:export-ydpi="128"
       id="g906"><rect
         style="fill:#1a1b26;fill-opacity:1;stroke-width:78.7272;stroke-linecap:round;stroke-linejoin:round;paint-order:stroke markers fill;fill-rule:nonzero"
         id="rect835"
         width="1440"
         height="810"
         x="-544.12073"
         y="-502.72418"
         transform="scale(1,-1)" /><path
         id="rect2943"
         style="fill:#73daca;fill-opacity:1;stroke:none;stroke-width:6.25825;stroke-linejoin:round;stroke-miterlimit:4;stroke-dasharray:none;stroke-opacity:1;paint-order:stroke markers fill"
         d="M 0 432.61133 L 0 647.38867 L 1430.3672 647.38867 C 1415.7788 628.81001 1404.8865 607.19291 1398.8047 583.63867 C 1411.4618 573.3243 1419.5508 557.61223 1419.5508 540.00195 C 1419.5508 522.38975 1411.4638 506.67956 1398.8066 496.36328 C 1404.8899 472.8087 1415.7835 451.19054 1430.373 432.61133 L 0 432.61133 z M 1363.2812 499.93555 C 1385.4077 499.93555 1403.3438 517.86784 1403.3438 540.00195 C 1403.3438 562.1303 1385.4077 580.06641 1363.2812 580.06641 C 1341.1471 580.06641 1323.2109 562.1303 1323.2109 540.00195 C 1323.2109 517.86784 1341.1471 499.93555 1363.2812 499.93555 z "
         transform="matrix(0.75000002,0,0,-0.75000002,-544.12073,502.72418)" /><path
         id="rect2945"
         style="fill:#7aa2f7;fill-opacity:1;stroke:none;stroke-width:5.4198;stroke-linejoin:round;stroke-miterlimit:4;stroke-dasharray:none;stroke-opacity:1;paint-order:stroke markers fill"
         d="M 0 486.30469 L 0 647.38867 L 1430.3672 647.38867 C 1415.7788 628.81001 1404.8865 607.19291 1398.8047 583.63867 C 1411.4618 573.3243 1419.5508 557.61223 1419.5508 540.00195 C 1419.5508 522.38975 1411.4638 506.67956 1398.8066 496.36328 C 1399.6837 492.96717 1400.6724 489.61704 1401.7461 486.30469 L 0 486.30469 z M 1363.2812 499.93555 C 1385.4077 499.93555 1403.3438 517.86784 1403.3438 540.00195 C 1403.3438 562.1303 1385.4077 580.06641 1363.2812 580.06641 C 1341.1471 580.06641 1323.2109 562.1303 1323.2109 540.00195 C 1323.2109 517.86784 1341.1471 499.93555 1363.2812 499.93555 z "
         transform="matrix(0.75000002,0,0,-0.75000002,-544.12073,502.72418)" /><path
         id="path940"
         style="fill:#e0af68;fill-opacity:1;stroke:none;stroke-width:4.42527;stroke-linejoin:round;stroke-miterlimit:4;stroke-dasharray:none;stroke-opacity:1;paint-order:stroke markers fill"
         d="M 0 540 L 0 647.38867 L 1430.3672 647.38867 C 1415.7788 628.81001 1404.8865 607.19291 1398.8047 583.63867 C 1411.4618 573.3243 1419.5508 557.61223 1419.5508 540.00195 C 1419.5508 540.0013 1419.5508 540.00066 1419.5508 540 L 1403.3438 540 C 1403.3438 540.00066 1403.3438 540.0013 1403.3438 540.00195 C 1403.3438 562.1303 1385.4077 580.06641 1363.2812 580.06641 C 1341.1471 580.06641 1323.2109 562.1303 1323.2109 540.00195 C 1323.2109 540.0013 1323.2109 540.00066 1323.2109 540 L 0 540 z "
         transform="matrix(0.75000002,0,0,-0.75000002,-544.12073,502.72418)" /><path
         id="path949"
         style="fill:#f7768e;fill-opacity:1;stroke:none;stroke-width:3.12912;stroke-linejoin:round;stroke-miterlimit:4;stroke-dasharray:none;stroke-opacity:1;paint-order:stroke markers fill"
         d="M 0 593.69336 L 0 647.38867 L 1430.3672 647.38867 C 1417.8815 631.48784 1408.114 613.35552 1401.7422 593.69336 L 0 593.69336 z "
         transform="matrix(0.75000002,0,0,-0.75000002,-544.12073,502.72418)" /><path
         id="path882"
         d="m 692.90571,204.26288 c 14.37283,-8.3003 32.74638,-3.37702 41.04094,10.99149 8.29882,14.37428 3.37985,32.74639 -10.99443,41.04525 -14.37139,8.29595 -32.74351,3.37411 -41.04232,-11.00017 -8.29594,-14.36851 -3.37415,-32.74062 10.99581,-41.03657 z M 631.40063,9.9386739 c -13.21492,0 -25.73822,2.9380871 -36.97951,8.1674661 L 573.5397,-19.31377 c 17.4423,-8.636696 37.0792,-13.516676 57.86093,-13.516676 12.08589,0 23.77187,1.674791 34.87746,4.75004 1.96495,12.070005 9.13192,23.194338 20.55797,29.792419 11.40586,6.5850749 24.60634,7.237666 36.03244,2.9193202 22.22122,21.8501688 36.68072,51.5776148 38.78571,84.6835068 l -42.82977,0.623695 C 714.88293,45.094731 677.26235,9.9386739 631.40063,9.9386739 Z m 0,175.5723661 c 45.86172,0 83.4823,-35.16327 87.42381,-80.00132 l 42.82977,0.62514 c -2.10794,33.10299 -16.56737,62.83044 -38.79146,84.67916 -11.42468,-4.31546 -24.62371,-3.66141 -36.031,2.92511 -11.42468,6.59519 -18.59016,17.71807 -20.55509,29.78953 -11.10416,3.07236 -22.79014,4.74858 -34.87603,4.74858 -20.78173,0 -40.41712,-4.87852 -57.85805,-13.5181 l 20.87997,-37.41558 c 11.23985,5.22938 23.76316,8.16747 36.97808,8.16747 z m -87.7847,-87.786182 c 0,29.700012 14.75975,55.932062 37.32748,71.816532 l -21.96999,36.80485 C 532.67496,188.774 513.11029,161.9139 504.98466,130.45103 c 9.49287,-7.73721 15.55821,-19.5199 15.55821,-32.729054 0,-13.207711 -6.06677,-24.990402 -15.55964,-32.726178 8.12418,-31.464307 27.68885,-58.324409 53.98876,-75.896655 l 21.97142,36.806296 c -22.56773,15.88303 -37.32748,42.115077 -37.32748,71.819419 z M 692.91008,-8.8117109 c -14.37433,-8.2988461 -19.29612,-26.6695131 -10.99875,-41.0380161 8.29888,-14.374275 26.6695,-19.299012 41.04377,-11.000166 14.36995,8.29741 19.29325,26.669513 10.99444,41.042348 -8.296,14.3670617 -26.66957,19.29179871 -41.03946,10.9958341 z M 478.33975,127.77281 c -16.60064,0 -30.05234,-13.45025 -30.05234,-30.050834 0,-16.59626 13.4517,-30.047969 30.05234,-30.047969 16.59481,0 30.04794,13.451709 30.04794,30.047969 0,16.600584 -13.45313,30.050834 -30.04794,30.050834"
         style="fill:#a9b1d6;fill-opacity:1;fill-rule:nonzero;stroke:none;stroke-width:5.00207" /></g></g></svg>
