<?xml version="1.0" encoding="UTF-8" standalone="no"?>
<svg
   id="Layer_1"
   data-name="Layer 1"
   viewBox="0 0 1920 1080"
   version="1.1"
   sodipodi:docname="xfce_00_scalable.svg"
   width="1920"
   height="1080"
   inkscape:version="1.2 (dc2aedaf03, 2022-05-15)"
   inkscape:export-filename="xfce_00_3840x2160.png"
   inkscape:export-xdpi="192"
   inkscape:export-ydpi="192"
   xmlns:inkscape="http://www.inkscape.org/namespaces/inkscape"
   xmlns:sodipodi="http://sodipodi.sourceforge.net/DTD/sodipodi-0.dtd"
   xmlns="http://www.w3.org/2000/svg"
   xmlns:svg="http://www.w3.org/2000/svg"
   xmlns:rdf="http://www.w3.org/1999/02/22-rdf-syntax-ns#"
   xmlns:cc="http://creativecommons.org/ns#"
   xmlns:dc="http://purl.org/dc/elements/1.1/">
  <metadata
     id="metadata13">
    <rdf:RDF>
      <cc:Work
         rdf:about="">
        <dc:format>image/svg+xml</dc:format>
        <dc:type
           rdf:resource="http://purl.org/dc/dcmitype/StillImage" />
        <dc:title>Android robot</dc:title>
      </cc:Work>
    </rdf:RDF>
  </metadata>
  <sodipodi:namedview
     pagecolor="#ffffff"
     bordercolor="#666666"
     borderopacity="1"
     objecttolerance="10"
     gridtolerance="10"
     guidetolerance="10"
     inkscape:pageopacity="0"
     inkscape:pageshadow="2"
     inkscape:window-width="1670"
     inkscape:window-height="1048"
     id="namedview11"
     showgrid="false"
     fit-margin-top="0"
     fit-margin-left="0"
     fit-margin-right="0"
     fit-margin-bottom="0"
     inkscape:zoom="0.54037022"
     inkscape:cx="948.42383"
     inkscape:cy="455.24344"
     inkscape:window-x="2170"
     inkscape:window-y="32"
     inkscape:window-maximized="1"
     inkscape:current-layer="Layer_1"
     inkscape:document-rotation="0"
     inkscape:snap-intersection-paths="true"
     inkscape:showpageshadow="0"
     inkscape:pagecheckerboard="0"
     inkscape:deskcolor="#d1d1d1" />
  <defs
     id="defs4">
    <style
       id="style2">.cls-1{fill:#3ddc84;}</style>
  </defs>
  <title
     id="title6">Android robot</title>
  <g
     id="g898">
    <rect
       style="fill:#d5d6db;fill-opacity:1;fill-rule:nonzero;stroke-width:104.97;stroke-linecap:round;stroke-linejoin:round;paint-order:stroke markers fill"
       id="rect835"
       width="1920"
       height="1080"
       x="-7.4218752e-07"
       y="5.2734376e-06" />
    <path
       style="fill:#33635c;fill-opacity:1;stroke:none;stroke-width:7.32438;stroke-linejoin:round;stroke-miterlimit:4;stroke-dasharray:none;stroke-opacity:1;paint-order:stroke markers fill"
       d="m 0,432.61133 v 53.69336 h 1337.9492 a 204.05433,204.05433 0 0 1 23.3516,-53.69336 z"
       id="rect2943" />
    <path
       style="fill:#34548a;fill-opacity:1;stroke:none;stroke-width:6.48013;stroke-linejoin:round;stroke-miterlimit:4;stroke-dasharray:none;stroke-opacity:1;paint-order:stroke markers fill"
       d="M 0,486.30469 V 540 h 1330.7578 a 204.05433,204.05433 0 0 1 7.1914,-53.69531 z"
       id="rect2945" />
    <path
       style="fill:#8f5e15;fill-opacity:1;stroke:none;stroke-width:5.29102;stroke-linejoin:round;stroke-miterlimit:4;stroke-dasharray:none;stroke-opacity:1;paint-order:stroke markers fill"
       d="m 0,540 v 53.69336 h 1337.9492 a 204.05433,204.05433 0 0 1 -7.1914,-53.69141 204.05433,204.05433 0 0 1 0,-0.002 z"
       id="path940" />
    <path
       style="fill:#8c4351;fill-opacity:1;stroke:none;stroke-width:3.79074;stroke-linejoin:round;stroke-miterlimit:4;stroke-dasharray:none;stroke-opacity:1;paint-order:stroke markers fill"
       d="m 0,593.69336 v 53.69336 h 1361.3027 a 204.05433,204.05433 0 0 1 -23.3535,-53.69336 z"
       id="path949" />
    <path
       id="path936"
       style="fill:#343b58;fill-opacity:1;stroke:none;stroke-width:207.306;paint-order:stroke markers fill"
       d="m 1546.1137,335.94647 a 204.05433,204.05433 0 0 0 -203.3561,204.05479 204.05433,204.05433 0 0 0 204.0549,204.05062 204.05433,204.05433 0 0 0 204.0507,-204.05062 204.05433,204.05433 0 0 0 -204.0507,-204.05479 204.05433,204.05433 0 0 0 -0.6983,0 z m -167.8605,116.50057 c 1.0548,-0.17634 27.3464,13.70149 45.0217,18.49818 31.5186,8.05453 60.2938,32.29527 74.1996,46.22066 1.0309,1.19182 11.9402,-8.17038 23.3603,-7.49601 15.5996,0.94478 63.8722,14.51819 70.3213,5.27572 3.9107,-5.42587 3.6258,-12.0793 8.5049,-14.80599 2.6267,-0.73512 -9.7619,-23.40151 3.4068,-30.66217 9.3896,-4.69277 17.3441,21.5822 19.7553,24.52645 1.08,1.31727 6.8139,1.64081 6.1357,-1.36029 -0.7353,-3.25985 -10.0052,-28.47033 1.3602,-32.70054 18.4593,-7.30964 15.1898,32.25347 15.6701,33.37861 1.0212,2.39539 64.2853,4.24204 68.1217,32.70054 2.2191,15.66216 -50.6877,35.90751 -55.8626,39.51434 -5.1731,3.60678 -4.7417,9.37587 -2.7248,12.94543 2.3189,3.87144 17.7322,16.9383 15.6701,23.162 -1.4173,3.59505 -30.1815,-9.58359 -32.0181,-6.81382 -4.189,5.29064 20.9409,18.53606 12.2631,27.93334 -3.44,2.25038 -43.021,-16.57383 -42.9211,-16.35232 -1.0622,0.40381 -55.9295,10.02459 -98.1016,-2.7247 -1.4859,-0.41948 -27.0669,24.71282 -29.9759,23.84835 -3.9773,-1.4584 5.865,-21.85868 4.7713,-25.89085 -1.7878,-2.24641 -18.1363,9.1168 -19.077,3.40277 -1.1254,-7.50962 14.3429,-16.13837 13.6234,-21.11536 -3.9889,-28.27425 1.782,-44.78536 11.581,-58.58727 3.2679,-5.0809 -38.4024,-36.55022 -68.5724,-48.97016 -30.1677,-12.41996 -46.3064,-22.94486 -44.513,-23.92691 z m 321.8371,24.69181 v 0 c 0.021,-3.6e-4 0.2903,0.0148 0.2976,0.0169 0,0.002 0.1862,0.0828 0.2607,0.13231 0.024,0.0169 0.04,0.0296 0.058,0.0455 0.3545,0.26692 0.4504,0.57262 0.5377,0.88065 0.089,0.31389 0.1313,0.66376 0.1693,1.07087 0.072,0.81428 0.089,1.84033 0.048,3.03481 -0.095,2.38889 -0.3975,5.40723 -0.8063,8.35187 -0.4097,2.94463 -0.9228,5.80495 -1.4636,7.88469 -0.2706,1.03987 -0.5473,1.87402 -0.856,2.48902 -0.1544,0.30747 -0.2992,0.58319 -0.5912,0.8145 -0.1439,0.11555 -0.3505,0.22468 -0.6082,0.24393 -0.236,0.0169 -0.4616,-0.0872 -0.6367,-0.20258 -0.3497,-0.20789 -0.5449,-0.51629 -0.6537,-0.81451 -0.1186,-0.32468 -0.1715,-0.67751 -0.2144,-1.08326 -0.085,-0.81131 -0.072,-1.82548 0,-3.00585 0.1481,-2.36074 0.548,-5.36348 1.0459,-8.29403 0.4977,-2.93055 1.0906,-5.78411 1.6167,-7.87225 0.2631,-1.04408 0.4977,-1.89047 0.7233,-2.48905 0.1117,-0.29922 0.2159,-0.51725 0.376,-0.74839 0.08,-0.11543 0.1525,-0.27083 0.4343,-0.39277 0.063,-0.0296 0.249,-0.0608 0.2603,-0.0624 z m 15.7444,2.98931 c 0.2249,0.0106 0.4577,0.0783 0.6529,0.23978 l 0.032,0.0288 0.021,0.0169 c 0,0.006 0.1227,0.14691 0.1608,0.21499 0.04,0.0679 0.055,0.13379 0.072,0.19011 0.032,0.11214 0.048,0.19411 0.048,0.27291 0,0.15771 -0.021,0.2842 -0.048,0.42173 -0.058,0.27507 -0.1461,0.58215 -0.273,0.95093 -0.2527,0.73768 -0.6462,1.70726 -1.1452,2.84049 -0.9947,2.2665 -2.4003,5.19314 -3.8947,8.04592 -1.4943,2.85279 -3.0739,5.63533 -4.4115,7.65314 -0.6689,1.00891 -1.2621,1.82251 -1.811,2.38979 -0.2736,0.28363 -0.533,0.49822 -0.8516,0.66152 -0.3186,0.163 -0.8656,0.26122 -1.2695,-0.0417 -0.7303,-0.54366 -0.8277,-1.47123 -0.728,-2.38978 0.1,-0.91862 0.4248,-1.9721 0.8807,-3.16712 0.9127,-2.38999 2.4044,-5.28513 4.0519,-8.06245 1.6474,-2.77738 3.4491,-5.43374 4.9656,-7.3348 0.7585,-0.95051 1.4362,-1.71076 2.0425,-2.22854 0.3024,-0.25811 0.576,-0.46093 0.9056,-0.59536 0.1651,-0.0665 0.384,-0.11225 0.6081,-0.10332 z m -61.7914,25.55181 a 5.4632101,6.2201626 0 0 0 -5.4659,6.22256 5.4632101,6.2201626 0 0 0 5.4659,6.22258 5.4632101,6.2201626 0 0 0 5.4619,-6.22258 5.4632101,6.2201626 0 0 0 -5.4619,-6.22256 z m -12.2631,3.78316 c -5.4319,3.84008 2.9781,25.57191 16.8153,12.88341 -10.8714,0.31955 -14.4945,-2.86471 -16.8153,-12.88341 z m 29.922,25.41124 c -0.2208,-0.0106 -0.4448,9.2e-4 -0.6776,0.0212 -0.9658,0.0783 -2.0727,0.33884 -3.2994,0.74833 -2.4533,0.81903 -5.3546,2.191 -8.1618,3.67566 -2.807,1.48465 -5.5061,3.09387 -7.496,4.41573 -0.9947,0.66095 -1.8191,1.24263 -2.4023,1.72414 -0.2921,0.24083 -0.5216,0.44845 -0.7073,0.66151 -0.093,0.1065 -0.1714,0.21644 -0.248,0.36382 -0.063,0.13231 -0.1207,0.34931 -0.072,0.63671 0.08,0.33779 0.3544,0.61886 0.5497,0.69464 0.2096,0.0809 0.3761,0.0801 0.5376,0.0825 0.3232,0.006 0.6586,-0.0328 1.0834,-0.11156 0.8506,-0.15728 1.9839,-0.45172 3.3244,-0.85585 2.6802,-0.8082 6.1605,-2.04203 9.4639,-3.3821 3.3034,-1.34007 6.4225,-2.77286 8.4512,-4.05603 1.0144,-0.6416 1.769,-1.18928 2.1869,-1.9226 0.2096,-0.3667 0.3217,-0.90065 0.1035,-1.36027 -0.1799,-0.37821 -0.5496,-0.55118 -0.9014,-0.71114 -0.4784,-0.42213 -1.0712,-0.59591 -1.7323,-0.62429 z m 2.89,6.64429 c -0.4056,0.0328 -0.8259,0.15496 -1.2403,0.31837 -0.8294,0.32683 -1.7229,0.85997 -2.6627,1.55047 -1.88,1.381 -3.9633,3.36155 -5.8877,5.43699 -1.9245,2.07541 -3.6682,4.24094 -4.8456,5.99104 -0.5889,0.87504 -1.0406,1.64497 -1.3026,2.30297 -0.1313,0.32899 -0.2222,0.62662 -0.2312,0.9675 0,0.12341 0.1482,0.24842 0.1906,0.39274 0.021,0.14734 0.04,0.33028 0.04,0.33077 0,5.9e-4 0.1673,0.16258 0.277,0.277 0,0.0106 6e-4,0.0212 0.021,0.0288 0.032,0.0312 0.087,0.0866 0.087,0.0867 8e-4,4.8e-4 0.2712,0.0696 0.2729,0.0705 0,1.3e-4 0.1439,2.1e-4 0.1439,0 0,-2.2e-4 0.072,0.005 0.087,0 0.048,-0.008 0.072,-0.0169 0.1,-0.0248 0.1035,-0.0304 0.1673,-0.0664 0.2519,-0.10332 0.1715,-0.0745 0.3777,-0.17337 0.6618,-0.31836 0.5688,-0.28995 1.387,-0.72464 2.3445,-1.27345 1.9149,-1.09764 4.4252,-2.65101 6.8014,-4.38681 2.3761,-1.73576 4.6149,-3.6309 5.9908,-5.53622 0.688,-0.95265 1.1695,-1.92758 1.2861,-2.92731 0.1164,-0.99971 -0.2053,-2.0338 -0.9964,-2.81979 l -0.087,-0.091 -0.114,-0.0576 c -0.3777,-0.19475 -0.7721,-0.24809 -1.1785,-0.21497 z" />
  </g>
</svg>
