<?xml version="1.0" encoding="UTF-8" standalone="no"?>
<svg
   version="1.1"
   id="svg5033"
   xml:space="preserve"
   width="1920"
   height="1080"
   viewBox="0 0 1920 1080"
   sodipodi:docname="kde_00_scalable.svg"
   inkscape:version="1.2 (dc2aedaf03, 2022-05-15)"
   inkscape:export-filename="kde_00_3840x2160.png"
   inkscape:export-xdpi="192"
   inkscape:export-ydpi="192"
   xmlns:inkscape="http://www.inkscape.org/namespaces/inkscape"
   xmlns:sodipodi="http://sodipodi.sourceforge.net/DTD/sodipodi-0.dtd"
   xmlns:xlink="http://www.w3.org/1999/xlink"
   xmlns="http://www.w3.org/2000/svg"
   xmlns:svg="http://www.w3.org/2000/svg"
   xmlns:rdf="http://www.w3.org/1999/02/22-rdf-syntax-ns#"
   xmlns:cc="http://creativecommons.org/ns#"
   xmlns:dc="http://purl.org/dc/elements/1.1/"><metadata
     id="metadata5039"><rdf:RDF><cc:Work
         rdf:about=""><dc:format>image/svg+xml</dc:format><dc:type
           rdf:resource="http://purl.org/dc/dcmitype/StillImage" /></cc:Work></rdf:RDF></metadata><defs
     id="defs5037"><marker
       style="overflow:visible"
       id="Arrow1Lstart"
       refX="0"
       refY="0"
       orient="auto"
       inkscape:stockid="Arrow1Lstart"
       inkscape:isstock="true"><path
         transform="matrix(0.8,0,0,0.8,10,0)"
         style="fill:#c53d3d;fill-opacity:0.795004;fill-rule:evenodd;stroke:none;stroke-width:1pt;stroke-opacity:1"
         d="M 0,0 5,-5 -12.5,0 5,5 Z"
         id="path2155" /></marker><clipPath
       clipPathUnits="userSpaceOnUse"
       id="clipPath5049"><path
         d="M 0,600 H 600 V 0 H 0 Z"
         id="path5047"
         inkscape:connector-curvature="0" /></clipPath><marker
       style="overflow:visible"
       id="Arrow1Lstart-53"
       refX="0"
       refY="0"
       orient="auto"
       inkscape:stockid="Arrow1Lstart"
       inkscape:isstock="true"><path
         transform="matrix(0.8,0,0,0.8,10,0)"
         style="fill:#c53d3d;fill-opacity:0.795004;fill-rule:evenodd;stroke:none;stroke-width:1pt;stroke-opacity:1"
         d="M 0,0 5,-5 -12.5,0 5,5 Z"
         id="path2155-5" /></marker><clipPath
       clipPathUnits="userSpaceOnUse"
       id="clipPath5049-6"><path
         d="M 0,600 H 600 V 0 H 0 Z"
         id="path5047-2"
         inkscape:connector-curvature="0" /></clipPath><marker
       style="overflow:visible"
       id="Arrow1Lstart-5"
       refX="0"
       refY="0"
       orient="auto"
       inkscape:stockid="Arrow1Lstart"
       inkscape:isstock="true"><path
         transform="matrix(0.8,0,0,0.8,10,0)"
         style="fill:#c53d3d;fill-opacity:0.795004;fill-rule:evenodd;stroke:none;stroke-width:1pt;stroke-opacity:1"
         d="M 0,0 5,-5 -12.5,0 5,5 Z"
         id="path2155-3" /></marker><clipPath
       clipPathUnits="userSpaceOnUse"
       id="clipPath5049-5"><path
         d="M 0,600 H 600 V 0 H 0 Z"
         id="path5047-6"
         inkscape:connector-curvature="0" /></clipPath><marker
       style="overflow:visible"
       id="Arrow1Lstart-3"
       refX="0"
       refY="0"
       orient="auto"
       inkscape:stockid="Arrow1Lstart"
       inkscape:isstock="true"><path
         transform="matrix(0.8,0,0,0.8,10,0)"
         style="fill:#c53d3d;fill-opacity:0.795004;fill-rule:evenodd;stroke:none;stroke-width:1pt;stroke-opacity:1"
         d="M 0,0 5,-5 -12.5,0 5,5 Z"
         id="path2155-56" /></marker><clipPath
       clipPathUnits="userSpaceOnUse"
       id="clipPath5049-2"><path
         d="M 0,600 H 600 V 0 H 0 Z"
         id="path5047-91"
         inkscape:connector-curvature="0" /></clipPath><marker
       style="overflow:visible"
       id="Arrow1Lstart-5-2"
       refX="0"
       refY="0"
       orient="auto"
       inkscape:stockid="Arrow1Lstart"
       inkscape:isstock="true"><path
         transform="matrix(0.8,0,0,0.8,10,0)"
         style="fill:#c53d3d;fill-opacity:0.795004;fill-rule:evenodd;stroke:none;stroke-width:1pt;stroke-opacity:1"
         d="M 0,0 5,-5 -12.5,0 5,5 Z"
         id="path2155-3-7" /></marker><clipPath
       clipPathUnits="userSpaceOnUse"
       id="clipPath5049-5-0"><path
         d="M 0,600 H 600 V 0 H 0 Z"
         id="path5047-6-9"
         inkscape:connector-curvature="0" /></clipPath><marker
       style="overflow:visible"
       id="Arrow1Lstart-1"
       refX="0"
       refY="0"
       orient="auto"
       inkscape:stockid="Arrow1Lstart"
       inkscape:isstock="true"><path
         transform="matrix(0.8,0,0,0.8,10,0)"
         style="fill:#c53d3d;fill-opacity:0.795004;fill-rule:evenodd;stroke:none;stroke-width:1pt;stroke-opacity:1"
         d="M 0,0 5,-5 -12.5,0 5,5 Z"
         id="path2155-8" /></marker><clipPath
       clipPathUnits="userSpaceOnUse"
       id="clipPath5049-7"><path
         d="M 0,600 H 600 V 0 H 0 Z"
         id="path5047-9"
         inkscape:connector-curvature="0" /></clipPath><linearGradient
       x1="112.49854"
       y1="6.1372099"
       x2="112.49853"
       y2="129.3468"
       id="path1082_2_"
       gradientUnits="userSpaceOnUse"
       gradientTransform="translate(287,-83)"><stop
         id="stop193"
         style="stop-color:#ffffff;stop-opacity:0"
         offset="0" /><stop
         id="stop195"
         style="stop-color:#ffffff;stop-opacity:0.27450982"
         offset="1" /><midPointStop
         offset="0"
         style="stop-color:#FFFFFF"
         id="midPointStop197" /><midPointStop
         offset="0.5"
         style="stop-color:#FFFFFF"
         id="midPointStop199" /><midPointStop
         offset="1"
         style="stop-color:#000000"
         id="midPointStop201" /></linearGradient><linearGradient
       x1="541.33502"
       y1="104.50665"
       x2="606.91248"
       y2="303.14029"
       id="linearGradient2544"
       xlink:href="#path1082_2_"
       gradientUnits="userSpaceOnUse"
       gradientTransform="matrix(-0.3937741,0,0,0.393752,357.51969,122.00151)" /><linearGradient
       id="linearGradient3388"><stop
         id="stop3390"
         style="stop-color:#000000;stop-opacity:0"
         offset="0" /><stop
         id="stop3392"
         style="stop-color:#000000;stop-opacity:0.37113401"
         offset="1" /></linearGradient><linearGradient
       x1="490.72305"
       y1="237.72447"
       x2="490.72305"
       y2="183.9644"
       id="linearGradient4416"
       xlink:href="#linearGradient3388"
       gradientUnits="userSpaceOnUse"
       gradientTransform="matrix(0.749107,0,0,0.749107,-35.459862,91.44108)" /></defs><sodipodi:namedview
     pagecolor="#ffffff"
     bordercolor="#666666"
     borderopacity="1"
     objecttolerance="10"
     gridtolerance="10"
     guidetolerance="10"
     inkscape:pageopacity="0"
     inkscape:pageshadow="2"
     inkscape:window-width="1670"
     inkscape:window-height="1048"
     id="namedview5035"
     showgrid="false"
     inkscape:zoom="0.54527693"
     inkscape:cx="961.89655"
     inkscape:cy="594.19349"
     inkscape:window-x="2170"
     inkscape:window-y="32"
     inkscape:window-maximized="1"
     inkscape:current-layer="g5041"
     inkscape:document-rotation="0"
     inkscape:snap-global="true"
     showguides="true"
     inkscape:guide-bbox="true"
     fit-margin-top="0"
     fit-margin-left="0"
     fit-margin-right="0"
     fit-margin-bottom="0"
     inkscape:snap-bbox="false"
     inkscape:bbox-paths="false"
     inkscape:object-paths="true"
     inkscape:showpageshadow="0"
     inkscape:pagecheckerboard="0"
     inkscape:deskcolor="#d1d1d1"><inkscape:grid
       type="xygrid"
       id="grid997"
       originx="762.72459"
       originy="-128.56325" /></sodipodi:namedview><g
     id="g5041"
     inkscape:groupmode="layer"
     inkscape:label="penguin-clipart-publicdomainvectors.org"
     transform="matrix(1.3333333,0,0,-1.3333333,762.72459,671.43675)"><g
       id="g956"
       transform="translate(46.384326,0.71141601)" /><g
       id="g944"
       transform="translate(96.725563,0.71141601)" /><g
       id="g2750"><rect
         style="fill:#24283b;fill-opacity:1;fill-rule:nonzero;stroke-width:78.7272;stroke-linecap:round;stroke-linejoin:round;paint-order:stroke markers fill"
         id="rect1025"
         width="1440"
         height="810"
         x="-572.04346"
         y="-503.57758"
         transform="scale(1,-1)" /><path
         id="path1033"
         style="fill:#73daca;fill-opacity:1;stroke:none;stroke-width:7.04021;stroke-linejoin:round;stroke-miterlimit:4;stroke-dasharray:none;stroke-opacity:1;paint-order:stroke markers fill"
         d="M 0 433.75 L 0 648.52734 L 1409.3359 648.52734 L 1415.1367 639.68164 C 1407.8059 626.79022 1402.259 612.76454 1398.6797 597.96875 L 1331.5586 581.5625 C 1329.7045 581.11443 1328.3867 579.44779 1328.3867 577.52344 L 1328.3867 532.0293 C 1328.3867 530.0542 1329.7729 528.34919 1331.6973 527.95117 L 1400.8516 513.56641 C 1404.6787 500.79146 1410.0336 488.68121 1416.7148 477.44922 L 1390.1836 433.75 L 0 433.75 z "
         transform="matrix(0.75000002,0,0,-0.75000002,-572.04346,503.57758)" /><path
         id="path1037"
         style="fill:#7aa2f7;fill-opacity:1;stroke:none;stroke-width:5.94501;stroke-linejoin:round;stroke-miterlimit:4;stroke-dasharray:none;stroke-opacity:1;paint-order:stroke markers fill"
         d="M 0 487.44336 L 0 648.52734 L 1392.3066 648.52734 C 1395.6225 640.47287 1400.6762 631.84393 1406.9941 623.13477 C 1403.5761 615.05692 1400.7799 606.65046 1398.6797 597.96875 L 1331.5586 581.5625 C 1329.7045 581.11443 1328.3867 579.44779 1328.3867 577.52344 L 1328.3867 532.0293 C 1328.3867 530.0542 1329.7729 528.34919 1331.6973 527.95117 L 1400.8516 513.56641 C 1402.7943 507.08162 1405.1342 500.77055 1407.8379 494.65625 C 1406.3143 492.56626 1404.7345 490.15162 1403.2441 487.44336 L 0 487.44336 z "
         transform="matrix(0.75000002,0,0,-0.75000002,-572.04346,503.57758)" /><path
         id="path1041"
         style="fill:#e0af68;fill-opacity:1;stroke:none;stroke-width:4.85411;stroke-linejoin:round;stroke-miterlimit:4;stroke-dasharray:none;stroke-opacity:1;paint-order:stroke markers fill"
         d="M 0 541.13867 L 0 648.52734 L 1392.3066 648.52734 C 1395.6225 640.47287 1400.6762 631.84393 1406.9941 623.13477 C 1403.5761 615.05692 1400.7799 606.65046 1398.6797 597.96875 L 1331.5586 581.5625 C 1329.7045 581.11443 1328.3867 579.44779 1328.3867 577.52344 L 1328.3867 541.13867 L 0 541.13867 z "
         transform="matrix(0.75000002,0,0,-0.75000002,-572.04346,503.57758)" /><path
         id="path1045"
         style="fill:#f7768e;fill-opacity:1;stroke:none;stroke-width:3.48564;stroke-linejoin:round;stroke-miterlimit:4;stroke-dasharray:none;stroke-opacity:1;paint-order:stroke markers fill"
         d="M 0 594.83203 L 0 648.52734 L 1409.3359 648.52734 L 1415.1367 639.68164 C 1407.8059 626.79022 1402.259 612.76454 1398.6797 597.96875 L 1385.8477 594.83203 L 0 594.83203 z "
         transform="matrix(0.75000002,0,0,-0.75000002,-572.04346,503.57758)" /><path
         d="m 628.08096,282.5688 -61.48203,-5.88573 V 23.518915 l 60.83183,9.158319 V 140.61495 l 81.76963,-119.717128 64.1041,20.283459 -83.73025,115.132769 84.38613,108.59232 -65.41018,15.03888 -81.11814,-108.58792 z M 488.71623,220.87684 c -0.69414,-0.073 -1.3645,-0.37928 -1.88612,-0.90297 l -24.13033,-24.12613 c -1.01468,-1.01649 -1.20516,-2.59512 -0.45811,-3.82703 l 28.25167,-46.53038 c -5.01093,-8.42399 -9.02702,-17.50684 -11.89739,-27.08805 l -51.86606,-10.78844 c -1.44326,-0.29851 -2.48269,-1.57695 -2.48269,-3.05827 V 70.435035 c 0,-1.443262 0.98722,-2.692943 2.37776,-3.028996 l 50.34125,-12.30491 c 2.68448,-11.09684 6.84453,-21.616749 12.34265,-31.285317 l -29.13907,-44.433816 c -0.81322,-1.241734 -0.6429,-2.877672 0.40642,-3.923692 l 24.12192,-24.126127 c 1.01469,-1.011001 2.59823,-1.210655 3.83544,-0.467152 l 45.66127,27.731341 c 8.96932,-5.175635 18.64157,-9.248648 28.86471,-12.010792 l 10.65379,-51.222972 c 0.30045,-1.45243 1.58244,-2.48307 3.05407,-2.48307 h 34.12474 c 1.43415,0 2.68674,0.97992 3.02906,2.38654 l 12.5485,51.328677 c 10.53819,2.844009 20.50495,7.082948 29.69344,12.493904 l 44.99686,-29.503355 c 1.23624,-0.815029 2.87347,-0.65201 3.92369,0.397371 l 24.13033,24.126126 c 1.02017,1.020176 1.20335,2.598091 0.45423,3.826838 l -16.42645,27.0714485 -5.31443,-1.681361 c -0.77477,-0.24553 -1.61913,0.03877 -2.07517,0.71798 0,0 -10.4774,15.3375885 -24.00886,35.1425225 -16.17646,-31.6585865 -49.08666,-53.345442 -87.09135,-53.345442 -53.99526,0 -97.77021,43.776637 -97.77021,97.774606 0,39.722553 23.69309,73.884633 57.70501,89.187783 v 25.22378 c -6.19025,-2.16564 -12.17471,-4.77672 -17.85834,-7.87297 -0.004,0.004 -0.006,0.0129 -0.0194,0.0388 l -46.05573,30.20648 c -0.62093,0.40447 -1.33885,0.56795 -2.03325,0.49623 z"
         fill="#fcfcfc"
         id="path2038"
         style="fill:#a9b1d6;fill-opacity:1;stroke-width:10.2857" /></g></g></svg>
