<?xml version="1.0" encoding="UTF-8" standalone="no"?>
<svg
   version="1.1"
   id="svg5033"
   xml:space="preserve"
   width="1920"
   height="1080"
   viewBox="0 0 1920 1080"
   sodipodi:docname="apple-00.svg"
   inkscape:version="1.2 (dc2aedaf03, 2022-05-15)"
   inkscape:export-filename="/home/fjall/1577101987penguin-silhouette-3-freesvg.org3.png"
   inkscape:export-xdpi="96"
   inkscape:export-ydpi="96"
   xmlns:inkscape="http://www.inkscape.org/namespaces/inkscape"
   xmlns:sodipodi="http://sodipodi.sourceforge.net/DTD/sodipodi-0.dtd"
   xmlns:xlink="http://www.w3.org/1999/xlink"
   xmlns="http://www.w3.org/2000/svg"
   xmlns:svg="http://www.w3.org/2000/svg"
   xmlns:rdf="http://www.w3.org/1999/02/22-rdf-syntax-ns#"
   xmlns:cc="http://creativecommons.org/ns#"
   xmlns:dc="http://purl.org/dc/elements/1.1/"><metadata
     id="metadata5039"><rdf:RDF><cc:Work
         rdf:about=""><dc:format>image/svg+xml</dc:format><dc:type
           rdf:resource="http://purl.org/dc/dcmitype/StillImage" /></cc:Work></rdf:RDF></metadata><defs
     id="defs5037"><marker
       style="overflow:visible"
       id="Arrow1Lstart"
       refX="0"
       refY="0"
       orient="auto"
       inkscape:stockid="Arrow1Lstart"
       inkscape:isstock="true"><path
         transform="matrix(0.8,0,0,0.8,10,0)"
         style="fill:#c53d3d;fill-opacity:0.795004;fill-rule:evenodd;stroke:none;stroke-width:1pt;stroke-opacity:1"
         d="M 0,0 5,-5 -12.5,0 5,5 Z"
         id="path2155" /></marker><clipPath
       clipPathUnits="userSpaceOnUse"
       id="clipPath5049"><path
         d="M 0,600 H 600 V 0 H 0 Z"
         id="path5047"
         inkscape:connector-curvature="0" /></clipPath><linearGradient
       x1="112.49854"
       y1="6.1372099"
       x2="112.49853"
       y2="129.3468"
       id="path1082_2_"
       gradientUnits="userSpaceOnUse"
       gradientTransform="translate(287,-83)"><stop
         id="stop193"
         style="stop-color:#ffffff;stop-opacity:0"
         offset="0" /><stop
         id="stop195"
         style="stop-color:#ffffff;stop-opacity:0.27450982"
         offset="1" /><midPointStop
         offset="0"
         style="stop-color:#FFFFFF"
         id="midPointStop197" /><midPointStop
         offset="0.5"
         style="stop-color:#FFFFFF"
         id="midPointStop199" /><midPointStop
         offset="1"
         style="stop-color:#000000"
         id="midPointStop201" /></linearGradient><linearGradient
       x1="541.33502"
       y1="104.50665"
       x2="606.91248"
       y2="303.14029"
       id="linearGradient2544"
       xlink:href="#path1082_2_"
       gradientUnits="userSpaceOnUse"
       gradientTransform="matrix(-0.3937741,0,0,0.393752,357.51969,122.00151)" /><linearGradient
       id="linearGradient3388"><stop
         id="stop3390"
         style="stop-color:#000000;stop-opacity:0"
         offset="0" /><stop
         id="stop3392"
         style="stop-color:#000000;stop-opacity:0.37113401"
         offset="1" /></linearGradient><linearGradient
       x1="490.72305"
       y1="237.72447"
       x2="490.72305"
       y2="183.9644"
       id="linearGradient4416"
       xlink:href="#linearGradient3388"
       gradientUnits="userSpaceOnUse"
       gradientTransform="matrix(0.749107,0,0,0.749107,-35.459862,91.44108)" /></defs><sodipodi:namedview
     pagecolor="#ffffff"
     bordercolor="#666666"
     borderopacity="1"
     objecttolerance="10"
     gridtolerance="10"
     guidetolerance="10"
     inkscape:pageopacity="0"
     inkscape:pageshadow="2"
     inkscape:window-width="1670"
     inkscape:window-height="1048"
     id="namedview5035"
     showgrid="false"
     inkscape:zoom="0.48717807"
     inkscape:cx="947.29223"
     inkscape:cy="708.15995"
     inkscape:window-x="2170"
     inkscape:window-y="32"
     inkscape:window-maximized="1"
     inkscape:current-layer="g5041"
     inkscape:document-rotation="0"
     inkscape:snap-global="false"
     showguides="true"
     inkscape:guide-bbox="true"
     fit-margin-top="0"
     fit-margin-left="0"
     fit-margin-right="0"
     fit-margin-bottom="0"
     inkscape:showpageshadow="0"
     inkscape:pagecheckerboard="0"
     inkscape:deskcolor="#d1d1d1"><inkscape:grid
       type="xygrid"
       id="grid997"
       originx="725.49429"
       originy="-129.70111" /></sodipodi:namedview><g
     id="g5041"
     inkscape:groupmode="layer"
     inkscape:label="penguin-clipart-publicdomainvectors.org"
     transform="matrix(1.3333333,0,0,-1.3333333,725.49429,670.29889)"><g
       id="g956"
       transform="translate(46.384326,0.71141601)" /><g
       id="g944"
       transform="translate(96.725563,0.71141601)" /><g
       id="g918"><rect
         style="fill:#d5d6db;fill-opacity:1;fill-rule:nonzero;stroke-width:78.7272;stroke-linecap:round;stroke-linejoin:round;paint-order:stroke markers fill"
         id="rect835"
         width="1440"
         height="810"
         x="-544.12073"
         y="-502.72418"
         transform="scale(1,-1)" /><path
         id="rect2943"
         style="fill:#33635c;fill-opacity:1;stroke:none;stroke-width:6.57953;stroke-linejoin:round;stroke-miterlimit:4;stroke-dasharray:none;stroke-opacity:1;paint-order:stroke markers fill"
         d="M 0 432.61133 L 0 647.38867 L 1400.0898 647.38867 C 1387.3967 629.07521 1376.8982 607.98749 1368.6133 584.06055 C 1359.3978 557.21843 1354.7793 531.22665 1354.7793 506.0625 C 1354.7793 477.72487 1360.8122 453.22662 1372.8691 432.61133 L 0 432.61133 z "
         transform="matrix(0.75000002,0,0,-0.75000002,-544.12073,502.72418)" /><path
         id="rect2945"
         style="fill:#34548a;fill-opacity:1;stroke:none;stroke-width:5.69805;stroke-linejoin:round;stroke-miterlimit:4;stroke-dasharray:none;stroke-opacity:1;paint-order:stroke markers fill"
         d="M 0 486.30469 L 0 647.38867 L 1400.0898 647.38867 C 1387.3967 629.07521 1376.8982 607.98749 1368.6133 584.06055 C 1359.3978 557.21843 1354.7793 531.22665 1354.7793 506.0625 C 1354.7793 499.25253 1355.1385 492.67134 1355.834 486.30469 L 0 486.30469 z "
         transform="matrix(0.75000002,0,0,-0.75000002,-544.12073,502.72418)" /><path
         id="path940"
         style="fill:#8f5e15;fill-opacity:1;stroke:none;stroke-width:4.65245;stroke-linejoin:round;stroke-miterlimit:4;stroke-dasharray:none;stroke-opacity:1;paint-order:stroke markers fill"
         d="M 0 540 L 0 647.38867 L 1400.0898 647.38867 C 1387.3967 629.07521 1376.8982 607.98749 1368.6133 584.06055 C 1363.4809 569.11137 1359.7793 554.4258 1357.502 540 L 0 540 z "
         transform="matrix(0.75000002,0,0,-0.75000002,-544.12073,502.72418)" /><path
         id="path949"
         style="fill:#8c4351;fill-opacity:1;stroke:none;stroke-width:3.28976;stroke-linejoin:round;stroke-miterlimit:4;stroke-dasharray:none;stroke-opacity:1;paint-order:stroke markers fill"
         d="M 0 593.69336 L 0 647.38867 L 1400.0898 647.38867 C 1389.1287 631.57412 1379.805 613.68915 1372.1309 593.69336 L 0 593.69336 z "
         transform="matrix(0.75000002,0,0,-0.75000002,-544.12073,502.72418)" /><path
         d="M 730.39962,51.078928 C 725.8057,40.466043 720.36802,30.696944 714.06779,21.715375 705.47998,9.4711932 698.44849,0.99589363 693.02954,-3.7105241 c -8.4003,-7.7252749 -17.40061,-11.6816679 -27.03846,-11.9066749 -6.91899,0 -15.26304,1.968822 -24.97588,5.9627115 -9.74472,3.9751412 -18.70005,5.9439634 -26.88845,5.9439634 -8.58781,0 -17.79813,-1.9688222 -27.64974,-5.9439634 -9.8666,-3.9938895 -17.81501,-6.0752105 -23.89209,-6.2814695 -9.24221,-0.39377 -18.45441,3.675131 -27.64973,12.2254329 -5.86896,5.1189267 -13.20985,13.8942461 -22.00391,26.3259291 -9.43533,13.275477 -17.19248,28.669782 -23.26958,46.220401 -6.50835,18.956927 -9.77097,37.313834 -9.77097,55.085714 0,20.35758 4.39891,37.91571 13.20984,52.62936 6.92463,11.81855 16.13683,21.14138 27.66662,27.98537 11.52978,6.84398 23.98772,10.33161 37.40381,10.55475 7.3409,0 16.96749,-2.27071 28.93041,-6.73337 11.92917,-4.47765 19.58882,-6.74836 22.94707,-6.74836 2.51071,0 11.01976,2.65509 25.44464,7.9484 13.64111,4.90893 25.15402,6.9415 34.58561,6.14084 25.55716,-2.06257 44.75783,-12.1373 57.52704,-30.28794 -22.85707,-13.84924 -34.16371,-33.24681 -33.9387,-58.13081 0.20626,-19.38256 7.23775,-35.511886 21.05699,-48.31859 6.26272,-5.943964 13.25672,-10.537873 21.03825,-13.800495 -1.68756,-4.893919 -3.46887,-9.581589 -5.36269,-14.081747 z M 671.78504,281.73086 c 0,-15.19199 -5.5502,-29.37667 -16.61309,-42.50588 -13.35047,-15.60806 -29.49855,-24.62712 -47.0098,-23.20395 -0.223,1.82256 -0.3525,3.74075 -0.3525,5.75645 0,14.58427 6.34897,30.19232 17.62374,42.95402 5.62896,6.46149 12.78796,11.8341 21.46952,16.11995 8.6628,4.2219 16.85685,6.55674 24.56336,6.9565 0.22501,-2.03087 0.31877,-4.06195 0.31877,-6.07689 z"
         id="path4"
         style="fill:#343b58;fill-opacity:1;stroke-width:1.87506"
         inkscape:connector-curvature="0" /></g></g></svg>
