<?xml version="1.0" encoding="UTF-8" standalone="no"?>
<svg
   version="1.1"
   id="svg5033"
   xml:space="preserve"
   width="1920"
   height="1080"
   viewBox="0 0 1920 1080"
   sodipodi:docname="pop-os_00_scalable.svg"
   inkscape:version="1.2 (dc2aedaf03, 2022-05-15)"
   inkscape:export-filename="pop-os_00_1920x1080.png"
   inkscape:export-xdpi="96"
   inkscape:export-ydpi="96"
   xmlns:inkscape="http://www.inkscape.org/namespaces/inkscape"
   xmlns:sodipodi="http://sodipodi.sourceforge.net/DTD/sodipodi-0.dtd"
   xmlns:xlink="http://www.w3.org/1999/xlink"
   xmlns="http://www.w3.org/2000/svg"
   xmlns:svg="http://www.w3.org/2000/svg"
   xmlns:rdf="http://www.w3.org/1999/02/22-rdf-syntax-ns#"
   xmlns:cc="http://creativecommons.org/ns#"
   xmlns:dc="http://purl.org/dc/elements/1.1/"><metadata
     id="metadata5039"><rdf:RDF><cc:Work
         rdf:about=""><dc:format>image/svg+xml</dc:format><dc:type
           rdf:resource="http://purl.org/dc/dcmitype/StillImage" /></cc:Work></rdf:RDF></metadata><defs
     id="defs5037"><marker
       style="overflow:visible"
       id="Arrow1Lstart"
       refX="0"
       refY="0"
       orient="auto"
       inkscape:stockid="Arrow1Lstart"
       inkscape:isstock="true"><path
         transform="matrix(0.8,0,0,0.8,10,0)"
         style="fill:#c53d3d;fill-opacity:0.795004;fill-rule:evenodd;stroke:none;stroke-width:1pt;stroke-opacity:1"
         d="M 0,0 5,-5 -12.5,0 5,5 Z"
         id="path2155" /></marker><clipPath
       clipPathUnits="userSpaceOnUse"
       id="clipPath5049"><path
         d="M 0,600 H 600 V 0 H 0 Z"
         id="path5047"
         inkscape:connector-curvature="0" /></clipPath><marker
       style="overflow:visible"
       id="Arrow1Lstart-5"
       refX="0"
       refY="0"
       orient="auto"
       inkscape:stockid="Arrow1Lstart"
       inkscape:isstock="true"><path
         transform="matrix(0.8,0,0,0.8,10,0)"
         style="fill:#c53d3d;fill-opacity:0.795004;fill-rule:evenodd;stroke:none;stroke-width:1pt;stroke-opacity:1"
         d="M 0,0 5,-5 -12.5,0 5,5 Z"
         id="path2155-3" /></marker><clipPath
       clipPathUnits="userSpaceOnUse"
       id="clipPath5049-5"><path
         d="M 0,600 H 600 V 0 H 0 Z"
         id="path5047-6"
         inkscape:connector-curvature="0" /></clipPath><marker
       style="overflow:visible"
       id="Arrow1Lstart-1"
       refX="0"
       refY="0"
       orient="auto"
       inkscape:stockid="Arrow1Lstart"
       inkscape:isstock="true"><path
         transform="matrix(0.8,0,0,0.8,10,0)"
         style="fill:#c53d3d;fill-opacity:0.795004;fill-rule:evenodd;stroke:none;stroke-width:1pt;stroke-opacity:1"
         d="M 0,0 5,-5 -12.5,0 5,5 Z"
         id="path2155-8" /></marker><clipPath
       clipPathUnits="userSpaceOnUse"
       id="clipPath5049-7"><path
         d="M 0,600 H 600 V 0 H 0 Z"
         id="path5047-9"
         inkscape:connector-curvature="0" /></clipPath><linearGradient
       x1="112.49854"
       y1="6.1372099"
       x2="112.49853"
       y2="129.3468"
       id="path1082_2_"
       gradientUnits="userSpaceOnUse"
       gradientTransform="translate(287,-83)"><stop
         id="stop193"
         style="stop-color:#ffffff;stop-opacity:0"
         offset="0" /><stop
         id="stop195"
         style="stop-color:#ffffff;stop-opacity:0.27450982"
         offset="1" /><midPointStop
         offset="0"
         style="stop-color:#FFFFFF"
         id="midPointStop197" /><midPointStop
         offset="0.5"
         style="stop-color:#FFFFFF"
         id="midPointStop199" /><midPointStop
         offset="1"
         style="stop-color:#000000"
         id="midPointStop201" /></linearGradient><linearGradient
       x1="541.33502"
       y1="104.50665"
       x2="606.91248"
       y2="303.14029"
       id="linearGradient2544"
       xlink:href="#path1082_2_"
       gradientUnits="userSpaceOnUse"
       gradientTransform="matrix(-0.3937741,0,0,0.393752,357.51969,122.00151)" /><linearGradient
       id="linearGradient3388"><stop
         id="stop3390"
         style="stop-color:#000000;stop-opacity:0"
         offset="0" /><stop
         id="stop3392"
         style="stop-color:#000000;stop-opacity:0.37113401"
         offset="1" /></linearGradient><linearGradient
       x1="490.72305"
       y1="237.72447"
       x2="490.72305"
       y2="183.9644"
       id="linearGradient4416"
       xlink:href="#linearGradient3388"
       gradientUnits="userSpaceOnUse"
       gradientTransform="matrix(0.749107,0,0,0.749107,-35.459862,91.44108)" /></defs><sodipodi:namedview
     pagecolor="#ffffff"
     bordercolor="#666666"
     borderopacity="1"
     objecttolerance="10"
     gridtolerance="10"
     guidetolerance="10"
     inkscape:pageopacity="0"
     inkscape:pageshadow="2"
     inkscape:window-width="1670"
     inkscape:window-height="1048"
     id="namedview5035"
     showgrid="false"
     inkscape:zoom="0.44631377"
     inkscape:cx="955.60574"
     inkscape:cy="723.7061"
     inkscape:window-x="2170"
     inkscape:window-y="32"
     inkscape:window-maximized="1"
     inkscape:current-layer="g5041"
     inkscape:document-rotation="0"
     inkscape:snap-global="false"
     showguides="true"
     inkscape:guide-bbox="true"
     fit-margin-top="0"
     fit-margin-left="0"
     fit-margin-right="0"
     fit-margin-bottom="0"
     inkscape:snap-bbox="false"
     inkscape:bbox-paths="false"
     inkscape:object-paths="true"
     inkscape:showpageshadow="0"
     inkscape:pagecheckerboard="0"
     inkscape:deskcolor="#d1d1d1"><inkscape:grid
       type="xygrid"
       id="grid997"
       originx="765.49429"
       originy="-129.70111" /></sodipodi:namedview><g
     id="g5041"
     inkscape:groupmode="layer"
     inkscape:label="penguin-clipart-publicdomainvectors.org"
     transform="matrix(1.3333333,0,0,-1.3333333,765.49429,670.29889)"><g
       id="g956"
       transform="translate(46.384326,0.71141601)" /><g
       id="g944"
       transform="translate(96.725563,0.71141601)" /><g
       id="g983"
       transform="translate(46.384326,890.94656)" /><g
       id="g985"
       transform="translate(96.725563,890.94656)" /><g
       id="g1527"><path
         id="rect835"
         style="fill:#d5d6db;fill-opacity:1;fill-rule:nonzero;stroke-width:78.7272;stroke-linecap:round;stroke-linejoin:round;paint-order:stroke markers fill"
         d="m -574.12073,502.72418 h 1440 v -810 h -1440 z" /><path
         style="color:#000000;font-style:normal;font-variant:normal;font-weight:normal;font-stretch:normal;font-size:medium;line-height:normal;font-family:sans-serif;font-variant-ligatures:normal;font-variant-position:normal;font-variant-caps:normal;font-variant-numeric:normal;font-variant-alternates:normal;font-variant-east-asian:normal;font-feature-settings:normal;font-variation-settings:normal;text-indent:0;text-align:start;text-decoration:none;text-decoration-line:none;text-decoration-style:solid;text-decoration-color:#000000;letter-spacing:normal;word-spacing:normal;text-transform:none;writing-mode:lr-tb;direction:ltr;text-orientation:mixed;dominant-baseline:auto;baseline-shift:baseline;text-anchor:start;white-space:normal;shape-padding:0;shape-margin:0;inline-size:0;clip-rule:nonzero;display:inline;overflow:visible;visibility:visible;isolation:auto;mix-blend-mode:normal;color-interpolation:sRGB;color-interpolation-filters:linearRGB;solid-color:#000000;solid-opacity:1;vector-effect:none;fill:#343b58;fill-opacity:1;fill-rule:nonzero;stroke:none;stroke-width:0.804638;stroke-linecap:butt;stroke-linejoin:miter;stroke-miterlimit:0;stroke-dasharray:none;stroke-dashoffset:0;stroke-opacity:1;color-rendering:auto;image-rendering:auto;shape-rendering:auto;text-rendering:auto;enable-background:accumulate;stop-color:#000000"
         d="m 635.88661,253.93971 c -86.23454,-0.0578 -156.11079,-69.98098 -156.11078,-156.21554 0,-86.275477 69.9401,-156.215564 156.21558,-156.215553 86.27543,5e-5 156.21547,69.940119 156.21547,156.215553 -10e-6,86.27543 -69.94004,156.21549 -156.21547,156.21554 0,0 -0.1048,0 -0.1048,0 z M 604.11494,221.157 c 11.47072,0 21.26705,-3.20291 29.95915,-8.88061 13.32313,-8.73496 22.58425,-22.67449 26.00409,-38.43378 2.99232,-13.86673 2.35149,-28.06061 -1.81647,-37.15951 -8.37145,-18.08861 -22.26433,-32.46552 -41.50095,-39.56267 5.52163,-14.740205 11.15028,-29.298515 16.63623,-44.002335 3.06359,-7.93424 5.98517,-16.63232 3.31337,-24.45738 -2.77855,-8.007028 -13.60912,-10.226951 -21.4819,-1.71038 -15.13986,16.45081 -66.3298,120.687845 -70.1059,128.512895 -3.20608,6.73319 -8.016,13.93946 -7.87351,21.72811 0.24937,11.71939 17.99036,23.58379 26.50437,29.66186 11.89812,8.48017 25.64911,14.26741 40.36152,14.3038 z m -13.20632,-31.6669 c -10.79342,-0.27058 -4.89609,-23.24332 -2.53938,-29.47721 3.59794,-9.64482 9.04796,-21.83794 16.35079,-29.11705 1.60304,-1.60141 3.49112,-3.02068 5.66411,-3.45743 3.31296,-0.69151 6.37602,1.67359 8.05034,4.43965 1.38927,2.29292 1.92409,5.02281 2.24467,7.67969 0.60562,5.64131 0.0713,11.39224 -1.42488,16.92437 -2.99231,11.10067 -9.76059,21.32767 -18.2746,28.4976 -1.85241,1.56501 -3.84758,3.0208 -6.16313,3.82151 -1.49616,0.50157 -2.79136,0.71686 -3.90792,0.68887 z m 112.32846,-20.83364 c 2.0987,0.0185 4.1314,-0.14831 5.9012,-0.41384 6.4949,-0.97106 12.712,-4.04684 17.4247,-8.69988 4.1583,-4.12705 4.6342,-8.33471 3.2086,-13.79698 -2.3366,-8.69917 -6.3371,-17.03449 -10.1785,-25.1672 -0.9108,-1.98261 -8.8708,-17.39837 -9.9401,-19.30005 -19.2074,-34.553945 -23.0482,-37.911555 -28.51333,-35.686165 -6.45514,2.62997 -4.23756,37.224755 1.66326,79.223575 1.66325,11.73378 4.51377,17.27581 7.72157,20.1081 3.1584,2.7539 8.0954,3.6918 12.7126,3.73244 z M 678.3436,50.318105 c 7.83388,-0.29005 10.94458,-10.12085 9.17138,-17.5805 -0.7525,-3.19645 -2.37594,-6.02905 -5.14819,-7.80935 -4.35624,-2.79182 -9.66283,-1.98172 -13.42505,1.41703 -3.52478,3.15598 -4.71317,8.49683 -3.60411,13.10942 1.14829,4.81488 4.79162,9.06326 9.46469,10.39848 0.9765,0.2769 1.89955,0.42622 2.76856,0.4623 0.26258,0.0109 0.52,0.012 0.77272,0.003 z M 565.62354,13.203127 h 139.96824 c 7.6395,0 13.7904,-5.6936991 13.7904,-12.76630017 0,-7.07259403 -6.1509,-12.76629283 -13.7904,-12.76629283 H 565.62354 c -7.63944,0 -13.78909,5.6936988 -13.78909,12.76629283 0,7.07260107 6.14965,12.76630017 13.78909,12.76630017 z"
         id="path1336" /><path
         id="path1356"
         style="fill:#33635c;fill-opacity:1;stroke:none;stroke-width:5.05329;stroke-linejoin:round;stroke-miterlimit:4;stroke-dasharray:none;stroke-opacity:1;paint-order:stroke markers fill"
         d="M -574.12073,178.26567 V 17.182665 H 502.11902 c -14.18047,23.519385 -22.34325,51.075878 -22.34325,80.541504 0,29.464271 8.1615,57.021861 22.34183,80.541501 z" /><path
         id="path1358"
         style="fill:#34548a;fill-opacity:1;stroke:none;stroke-width:4.37626;stroke-linejoin:round;stroke-miterlimit:4;stroke-dasharray:none;stroke-opacity:1;paint-order:stroke markers fill"
         d="M -574.12073,137.99565 V 17.182665 H 502.11902 c -14.18047,23.519385 -22.34325,51.075878 -22.34325,80.541504 0,13.925811 1.83233,27.421951 5.2515,40.271481 z" /><path
         id="path1360"
         style="fill:#8f5e15;fill-opacity:1;stroke:none;stroke-width:3.57322;stroke-linejoin:round;stroke-miterlimit:4;stroke-dasharray:none;stroke-opacity:1;paint-order:stroke markers fill"
         d="M -574.12073,97.724169 V 17.182665 H 502.11902 C 487.93855,40.70205 479.77577,68.258543 479.77577,97.724169 Z" /><path
         id="path1362"
         style="fill:#8c4351;fill-opacity:1;stroke:none;stroke-width:2.52664;stroke-linejoin:round;stroke-miterlimit:4;stroke-dasharray:none;stroke-opacity:1;paint-order:stroke markers fill"
         d="M -574.12073,57.454148 V 17.182665 H 502.11902 c -7.47885,12.40428 -13.27807,25.932488 -17.09325,40.271483 z" /></g></g></svg>
