<?xml version="1.0" encoding="UTF-8" standalone="no"?>
<svg
   version="1.1"
   id="svg5033"
   xml:space="preserve"
   width="1920"
   height="1080"
   viewBox="0 0 1920 1080"
   sodipodi:docname="fedora_00_scalable.svg"
   inkscape:version="1.2 (dc2aedaf03, 2022-05-15)"
   inkscape:export-filename="fedora_00_3840x2160.png"
   inkscape:export-xdpi="192"
   inkscape:export-ydpi="192"
   xmlns:inkscape="http://www.inkscape.org/namespaces/inkscape"
   xmlns:sodipodi="http://sodipodi.sourceforge.net/DTD/sodipodi-0.dtd"
   xmlns:xlink="http://www.w3.org/1999/xlink"
   xmlns="http://www.w3.org/2000/svg"
   xmlns:svg="http://www.w3.org/2000/svg"
   xmlns:rdf="http://www.w3.org/1999/02/22-rdf-syntax-ns#"
   xmlns:cc="http://creativecommons.org/ns#"
   xmlns:dc="http://purl.org/dc/elements/1.1/"><metadata
     id="metadata5039"><rdf:RDF><cc:Work
         rdf:about=""><dc:format>image/svg+xml</dc:format><dc:type
           rdf:resource="http://purl.org/dc/dcmitype/StillImage" /></cc:Work></rdf:RDF></metadata><defs
     id="defs5037"><marker
       style="overflow:visible"
       id="Arrow1Lstart"
       refX="0"
       refY="0"
       orient="auto"
       inkscape:stockid="Arrow1Lstart"
       inkscape:isstock="true"><path
         transform="matrix(0.8,0,0,0.8,10,0)"
         style="fill:#c53d3d;fill-opacity:0.795004;fill-rule:evenodd;stroke:none;stroke-width:1pt;stroke-opacity:1"
         d="M 0,0 5,-5 -12.5,0 5,5 Z"
         id="path2155" /></marker><clipPath
       clipPathUnits="userSpaceOnUse"
       id="clipPath5049"><path
         d="M 0,600 H 600 V 0 H 0 Z"
         id="path5047"
         inkscape:connector-curvature="0" /></clipPath></defs><sodipodi:namedview
     pagecolor="#ffffff"
     bordercolor="#666666"
     borderopacity="1"
     objecttolerance="10"
     gridtolerance="10"
     guidetolerance="10"
     inkscape:pageopacity="0"
     inkscape:pageshadow="2"
     inkscape:window-width="1670"
     inkscape:window-height="1048"
     id="namedview5035"
     showgrid="false"
     inkscape:zoom="0.57404387"
     inkscape:cx="910.20919"
     inkscape:cy="574.86896"
     inkscape:window-x="2170"
     inkscape:window-y="32"
     inkscape:window-maximized="1"
     inkscape:current-layer="g5041"
     inkscape:document-rotation="0"
     inkscape:snap-global="true"
     showguides="true"
     inkscape:guide-bbox="true"
     fit-margin-top="0"
     fit-margin-left="0"
     fit-margin-right="0"
     fit-margin-bottom="0"
     inkscape:snap-bbox="false"
     inkscape:bbox-paths="false"
     inkscape:object-paths="true"
     inkscape:showpageshadow="0"
     inkscape:pagecheckerboard="0"
     inkscape:deskcolor="#d1d1d1"><inkscape:grid
       type="xygrid"
       id="grid997"
       originx="765.49429"
       originy="-129.70111" /></sodipodi:namedview><g
     id="g5041"
     inkscape:groupmode="layer"
     inkscape:label="penguin-clipart-publicdomainvectors.org"
     transform="matrix(1.3333333,0,0,-1.3333333,765.49429,670.29889)"><g
       id="g956"
       transform="translate(46.384326,0.71141601)" /><g
       id="g944"
       transform="translate(96.725563,0.71141601)" /><g
       id="g876"
       inkscape:export-filename="/home/fjall/g876111.png"
       inkscape:export-xdpi="68.300003"
       inkscape:export-ydpi="68.300003"><rect
         style="fill:#24283b;fill-opacity:1;fill-rule:nonzero;stroke-width:78.7272;stroke-linecap:round;stroke-linejoin:round;paint-order:stroke markers fill"
         id="rect835"
         width="1440"
         height="810"
         x="-574.12073"
         y="-502.72418"
         transform="scale(1,-1)" /><path
         id="rect2943"
         style="fill:#73daca;fill-opacity:1;stroke:none;stroke-width:5.01261;stroke-linejoin:round;stroke-miterlimit:4;stroke-dasharray:none;stroke-opacity:1;paint-order:stroke markers fill"
         d="M -574.12073,178.26567 V 17.182665 H 487.55172 v 80.630859 c 0.022,30.163656 10.2378,58.006736 27.47555,80.452146 z" /><path
         id="rect2945"
         style="fill:#7aa2f7;fill-opacity:1;stroke:none;stroke-width:4.34103;stroke-linejoin:round;stroke-miterlimit:4;stroke-dasharray:none;stroke-opacity:1;paint-order:stroke markers fill"
         d="M -574.12073,137.99565 V 17.182665 H 487.55172 v 80.630859 c 0.0101,13.996336 2.21548,27.492016 6.29797,40.182126 z" /><path
         id="path940"
         style="fill:#e0af68;fill-opacity:1;stroke:none;stroke-width:3.54446;stroke-linejoin:round;stroke-miterlimit:4;stroke-dasharray:none;stroke-opacity:1;paint-order:stroke markers fill"
         d="M -574.12073,97.724169 V 17.182665 H 487.55172 v 80.541504 z" /><path
         id="path949"
         style="fill:#f7768e;fill-opacity:1;stroke:none;stroke-width:2.5063;stroke-linejoin:round;stroke-miterlimit:4;stroke-dasharray:none;stroke-opacity:1;paint-order:stroke markers fill"
         d="M -574.12073,57.454148 V 17.182665 H 487.55172 v 40.271483 z" /><path
         d="m 757.78254,97.717969 c 0,74.414711 -60.3249,134.741561 -134.73906,134.741561 -74.3807,0 -134.68208,-60.27619 -134.73485,-134.646545 V -6.4549186 c 0.04,-16.8862584 13.73545,-30.5562674 30.63233,-30.5562674 h 104.15718 c 74.38931,0.02915 134.6844,60.334237 134.6844,134.729155"
         id="voice"
         style="fill:#a9b1d6;stroke-width:1.0121;fill-opacity:1" /><path
         d="m 565.98959,89.022557 c 0,0 48.42381,0 48.42381,0 0,0 0,-48.42384 0,-48.42384 0,-26.729931 -21.69387,-48.4237901 -48.42381,-48.4237901 -26.72995,0 -48.42382,21.6938591 -48.42382,48.4237901 0,26.729951 21.69387,48.42384 48.42382,48.42384 z"
         id="in"
         style="fill:none;stroke:#bdae93;stroke-width:29.5635;stroke-opacity:1" /><use
         transform="rotate(180,614.29673,88.975454)"
         id="finity"
         xlink:href="#in"
         x="0"
         y="0"
         width="100%"
         height="100%"
         style="stroke:#bdae93;stroke-opacity:1" /><path
         d="M 629.2269,103.76721 V 40.666457 c 0,-34.9216188 -28.31395,-63.236189 -63.2368,-63.236189 -5.2983,0 -9.06489,0.598163 -13.9694,1.880183 -7.15147,1.8715 -12.99587,7.735027 -12.9983,14.5551634 0,8.2437097 5.98392,14.2401866 14.92881,14.2401866 4.25728,0 5.80206,-0.8174249 12.03889,-0.8174249 18.41178,0 33.3464,14.9135289 33.3787,33.3252999 v 29.003397 c 0,2.598828 -2.11189,4.704508 -4.71506,4.704508 l -21.92742,0.004 c -8.16982,0 -14.77064,6.516354 -14.77064,14.708547 -0.004,8.243133 6.66854,14.732742 14.92658,14.732742"
         id="free"
         style="fill:#414868;stroke-width:1.0121;fill-opacity:1" /><use
         transform="rotate(180,614.29673,88.975454)"
         id="dom"
         xlink:href="#free"
         x="0"
         y="0"
         width="100%"
         height="100%"
         style="fill:#414868;fill-opacity:1" /></g></g></svg>
