<?xml version="1.0" encoding="UTF-8" standalone="no"?>
<svg
   version="1.1"
   id="svg5033"
   xml:space="preserve"
   width="1920"
   height="1080"
   viewBox="0 0 1920 1080"
   sodipodi:docname="gentoo_00_scalable.svg"
   inkscape:version="1.2 (dc2aedaf03, 2022-05-15)"
   inkscape:export-filename="gentoo_00_3840x2160.png"
   inkscape:export-xdpi="192"
   inkscape:export-ydpi="192"
   xmlns:inkscape="http://www.inkscape.org/namespaces/inkscape"
   xmlns:sodipodi="http://sodipodi.sourceforge.net/DTD/sodipodi-0.dtd"
   xmlns:xlink="http://www.w3.org/1999/xlink"
   xmlns="http://www.w3.org/2000/svg"
   xmlns:svg="http://www.w3.org/2000/svg"
   xmlns:rdf="http://www.w3.org/1999/02/22-rdf-syntax-ns#"
   xmlns:cc="http://creativecommons.org/ns#"
   xmlns:dc="http://purl.org/dc/elements/1.1/"><metadata
     id="metadata5039"><rdf:RDF><cc:Work
         rdf:about=""><dc:format>image/svg+xml</dc:format><dc:type
           rdf:resource="http://purl.org/dc/dcmitype/StillImage" /></cc:Work></rdf:RDF></metadata><defs
     id="defs5037"><marker
       style="overflow:visible"
       id="Arrow1Lstart"
       refX="0"
       refY="0"
       orient="auto"
       inkscape:stockid="Arrow1Lstart"
       inkscape:isstock="true"><path
         transform="matrix(0.8,0,0,0.8,10,0)"
         style="fill:#c53d3d;fill-opacity:0.795004;fill-rule:evenodd;stroke:none;stroke-width:1pt;stroke-opacity:1"
         d="M 0,0 5,-5 -12.5,0 5,5 Z"
         id="path2155" /></marker><clipPath
       clipPathUnits="userSpaceOnUse"
       id="clipPath5049"><path
         d="M 0,600 H 600 V 0 H 0 Z"
         id="path5047"
         inkscape:connector-curvature="0" /></clipPath><marker
       style="overflow:visible"
       id="Arrow1Lstart-53"
       refX="0"
       refY="0"
       orient="auto"
       inkscape:stockid="Arrow1Lstart"
       inkscape:isstock="true"><path
         transform="matrix(0.8,0,0,0.8,10,0)"
         style="fill:#c53d3d;fill-opacity:0.795004;fill-rule:evenodd;stroke:none;stroke-width:1pt;stroke-opacity:1"
         d="M 0,0 5,-5 -12.5,0 5,5 Z"
         id="path2155-5" /></marker><clipPath
       clipPathUnits="userSpaceOnUse"
       id="clipPath5049-6"><path
         d="M 0,600 H 600 V 0 H 0 Z"
         id="path5047-2"
         inkscape:connector-curvature="0" /></clipPath><marker
       style="overflow:visible"
       id="Arrow1Lstart-5"
       refX="0"
       refY="0"
       orient="auto"
       inkscape:stockid="Arrow1Lstart"
       inkscape:isstock="true"><path
         transform="matrix(0.8,0,0,0.8,10,0)"
         style="fill:#c53d3d;fill-opacity:0.795004;fill-rule:evenodd;stroke:none;stroke-width:1pt;stroke-opacity:1"
         d="M 0,0 5,-5 -12.5,0 5,5 Z"
         id="path2155-3" /></marker><clipPath
       clipPathUnits="userSpaceOnUse"
       id="clipPath5049-5"><path
         d="M 0,600 H 600 V 0 H 0 Z"
         id="path5047-6"
         inkscape:connector-curvature="0" /></clipPath><marker
       style="overflow:visible"
       id="Arrow1Lstart-3"
       refX="0"
       refY="0"
       orient="auto"
       inkscape:stockid="Arrow1Lstart"
       inkscape:isstock="true"><path
         transform="matrix(0.8,0,0,0.8,10,0)"
         style="fill:#c53d3d;fill-opacity:0.795004;fill-rule:evenodd;stroke:none;stroke-width:1pt;stroke-opacity:1"
         d="M 0,0 5,-5 -12.5,0 5,5 Z"
         id="path2155-56" /></marker><clipPath
       clipPathUnits="userSpaceOnUse"
       id="clipPath5049-2"><path
         d="M 0,600 H 600 V 0 H 0 Z"
         id="path5047-91"
         inkscape:connector-curvature="0" /></clipPath><marker
       style="overflow:visible"
       id="Arrow1Lstart-5-2"
       refX="0"
       refY="0"
       orient="auto"
       inkscape:stockid="Arrow1Lstart"
       inkscape:isstock="true"><path
         transform="matrix(0.8,0,0,0.8,10,0)"
         style="fill:#c53d3d;fill-opacity:0.795004;fill-rule:evenodd;stroke:none;stroke-width:1pt;stroke-opacity:1"
         d="M 0,0 5,-5 -12.5,0 5,5 Z"
         id="path2155-3-7" /></marker><clipPath
       clipPathUnits="userSpaceOnUse"
       id="clipPath5049-5-0"><path
         d="M 0,600 H 600 V 0 H 0 Z"
         id="path5047-6-9"
         inkscape:connector-curvature="0" /></clipPath><marker
       style="overflow:visible"
       id="Arrow1Lstart-1"
       refX="0"
       refY="0"
       orient="auto"
       inkscape:stockid="Arrow1Lstart"
       inkscape:isstock="true"><path
         transform="matrix(0.8,0,0,0.8,10,0)"
         style="fill:#c53d3d;fill-opacity:0.795004;fill-rule:evenodd;stroke:none;stroke-width:1pt;stroke-opacity:1"
         d="M 0,0 5,-5 -12.5,0 5,5 Z"
         id="path2155-8" /></marker><clipPath
       clipPathUnits="userSpaceOnUse"
       id="clipPath5049-7"><path
         d="M 0,600 H 600 V 0 H 0 Z"
         id="path5047-9"
         inkscape:connector-curvature="0" /></clipPath><linearGradient
       x1="112.49854"
       y1="6.1372099"
       x2="112.49853"
       y2="129.3468"
       id="path1082_2_"
       gradientUnits="userSpaceOnUse"
       gradientTransform="translate(287,-83)"><stop
         id="stop193"
         style="stop-color:#ffffff;stop-opacity:0"
         offset="0" /><stop
         id="stop195"
         style="stop-color:#ffffff;stop-opacity:0.27450982"
         offset="1" /><midPointStop
         offset="0"
         style="stop-color:#FFFFFF"
         id="midPointStop197" /><midPointStop
         offset="0.5"
         style="stop-color:#FFFFFF"
         id="midPointStop199" /><midPointStop
         offset="1"
         style="stop-color:#000000"
         id="midPointStop201" /></linearGradient><linearGradient
       x1="541.33502"
       y1="104.50665"
       x2="606.91248"
       y2="303.14029"
       id="linearGradient2544"
       xlink:href="#path1082_2_"
       gradientUnits="userSpaceOnUse"
       gradientTransform="matrix(-0.3937741,0,0,0.393752,357.51969,122.00151)" /><linearGradient
       id="linearGradient3388"><stop
         id="stop3390"
         style="stop-color:#000000;stop-opacity:0"
         offset="0" /><stop
         id="stop3392"
         style="stop-color:#000000;stop-opacity:0.37113401"
         offset="1" /></linearGradient><linearGradient
       x1="490.72305"
       y1="237.72447"
       x2="490.72305"
       y2="183.9644"
       id="linearGradient4416"
       xlink:href="#linearGradient3388"
       gradientUnits="userSpaceOnUse"
       gradientTransform="matrix(0.749107,0,0,0.749107,-35.459862,91.44108)" /></defs><sodipodi:namedview
     pagecolor="#ffffff"
     bordercolor="#666666"
     borderopacity="1"
     objecttolerance="10"
     gridtolerance="10"
     guidetolerance="10"
     inkscape:pageopacity="0"
     inkscape:pageshadow="2"
     inkscape:window-width="1670"
     inkscape:window-height="1048"
     id="namedview5035"
     showgrid="false"
     inkscape:zoom="0.53024931"
     inkscape:cx="972.1842"
     inkscape:cy="567.6575"
     inkscape:window-x="2170"
     inkscape:window-y="32"
     inkscape:window-maximized="1"
     inkscape:current-layer="g5041"
     inkscape:document-rotation="0"
     inkscape:snap-global="true"
     showguides="true"
     inkscape:guide-bbox="true"
     fit-margin-top="0"
     fit-margin-left="0"
     fit-margin-right="0"
     fit-margin-bottom="0"
     inkscape:snap-bbox="false"
     inkscape:bbox-paths="false"
     inkscape:object-paths="true"
     inkscape:showpageshadow="0"
     inkscape:pagecheckerboard="0"
     inkscape:deskcolor="#d1d1d1"><inkscape:grid
       type="xygrid"
       id="grid997"
       originx="762.72459"
       originy="-128.56325" /></sodipodi:namedview><g
     id="g5041"
     inkscape:groupmode="layer"
     inkscape:label="penguin-clipart-publicdomainvectors.org"
     transform="matrix(1.3333333,0,0,-1.3333333,762.72459,671.43675)"><g
       id="g956"
       transform="translate(46.384326,0.71141601)" /><g
       id="g944"
       transform="translate(96.725563,0.71141601)" /><g
       id="g929"><rect
         style="fill:#24283b;fill-opacity:1;fill-rule:nonzero;stroke-width:78.7272;stroke-linecap:round;stroke-linejoin:round;paint-order:stroke markers fill"
         id="rect1025"
         width="1440"
         height="810"
         x="-572.04346"
         y="-503.57758"
         transform="scale(1,-1)" /><path
         id="path1033"
         style="fill:#73daca;fill-opacity:1;stroke:none;stroke-width:5.14854;stroke-linejoin:round;stroke-miterlimit:4;stroke-dasharray:none;stroke-opacity:1;paint-order:stroke markers fill"
         d="M -572.04346,178.26567 V 17.182665 H 472.18689 c 4.51978,10.97901 13.32442,23.37768 24.356,34.983398 10.84213,11.406413 21.85305,21.418058 45.85646,41.922361 -16.60345,9.127496 -42.42665,20.140616 -55.38365,34.562996 -4.79421,5.33647 -13.48327,17.42608 -11.79778,33.57861 0.52335,5.01574 1.91201,10.42842 4.08805,16.03564 z" /><path
         id="path1037"
         style="fill:#7aa2f7;fill-opacity:1;stroke:none;stroke-width:4.45876;stroke-linejoin:round;stroke-miterlimit:4;stroke-dasharray:none;stroke-opacity:1;paint-order:stroke markers fill"
         d="M -572.04346,137.99565 V 17.182665 H 472.18689 c 4.51978,10.97901 13.32442,23.37768 24.356,34.983398 10.84213,11.406413 21.85305,21.418058 45.85646,41.922361 -16.60345,9.127496 -42.42665,20.140616 -55.38365,34.562996 -1.89546,2.10985 -4.39491,5.28943 -6.62627,9.34423 z" /><path
         id="path1041"
         style="fill:#e0af68;fill-opacity:1;stroke:none;stroke-width:3.64058;stroke-linejoin:round;stroke-miterlimit:4;stroke-dasharray:none;stroke-opacity:1;paint-order:stroke markers fill"
         d="M -572.04346,97.724169 V 17.182665 H 472.18689 c 4.51978,10.97901 13.32442,23.37768 24.356,34.983398 10.84213,11.406413 21.85305,21.418058 45.85646,41.922361 -2.14355,1.178355 -4.44821,2.39127 -6.85153,3.635745 z" /><path
         id="path1045"
         style="fill:#f7768e;fill-opacity:1;stroke:none;stroke-width:2.57427;stroke-linejoin:round;stroke-miterlimit:4;stroke-dasharray:none;stroke-opacity:1;paint-order:stroke markers fill"
         d="M -572.04346,57.454148 V 17.182665 H 472.18689 c 4.51978,10.97901 13.32442,23.37768 24.356,34.983398 1.69163,1.779675 3.40833,3.531158 5.15692,5.288085 z" /><path
         id="path2973"
         style="fill:#a9b1d6;fill-opacity:1;fill-rule:evenodd;stroke:none;stroke-width:2.04968;stroke-linecap:butt;stroke-linejoin:miter;stroke-miterlimit:4;stroke-opacity:1"
         d="m 593.66666,257.21404 c -5.7052,-0.0405 -11.33474,-0.55081 -16.73979,-1.53927 -57.7582,-10.56268 -98.39322,-60.52391 -101.83486,-93.44495 -1.68862,-16.15253 7.01753,-28.24217 11.82074,-33.57865 12.98112,-14.42237 38.8523,-25.43497 55.48669,-34.562464 C 518.35131,73.584397 507.31995,63.572594 496.45761,52.166183 480.20366,35.09813 468.76471,16.310957 468.72977,2.8545771 c -0.0123,-4.3343827 -0.71223,-18.1572881 4.92606,-29.0679361 2.12033,-4.10306 8.15175,-17.792003 26.32267,-28.045095 11.6139,-6.553313 28.16335,-8.964197 44.36154,-6.652477 50.13119,7.154451 117.26988,49.672659 165.18102,89.269513 30.53474,25.235855 52.85284,49.691823 59.29983,61.732833 5.20174,9.71529 5.7816,27.147435 2.76428,38.083365 -8.57238,31.0695 -78.24509,94.70106 -135.21635,120.31407 -13.05237,5.86807 -28.12223,8.82878 -42.70216,8.72519 z m 17.20216,-99.97033 c 8.91227,-0.17031 22.64721,-5.05865 21.34758,-9.21258 -1.99433,-6.37436 -29.35635,-2.74464 -28.64659,6.00794 0.19334,2.38428 3.24798,3.28206 7.29901,3.20464 z" /><path
         id="path2975"
         style="fill:#1a1b26;fill-opacity:1;fill-rule:evenodd;stroke:none;stroke-width:2.04968;stroke-linecap:butt;stroke-linejoin:miter;stroke-miterlimit:4;stroke-dasharray:none;stroke-opacity:1"
         d="M 558.59191,106.69597 C 542.84821,93.403169 532.38035,84.440197 519.2568,72.445513 487.65272,43.559962 466.17914,21.572963 477.25003,-8.4824408 490.02107,-43.153458 518.01634,-41.395445 550.84486,-34.951071 635.46465,-18.261583 774.5642,88.67573 767.47432,128.17443 c -5.73679,31.96034 -83.45013,95.50216 -129.46254,118.11335 -14.37457,7.0639 -30.94106,10.71729 -47.55748,9.93547 -63.26906,-2.9862 -112.67866,-60.58981 -110.15464,-91.80054 2.45554,-30.36398 79.19785,-56.82113 78.29225,-57.72674 z m -9.49701,106.00117 c -19.03814,-21.18164 -6.8658,-62.16258 24.70636,-84.4998 36.94319,-26.13722 96.76796,-30.869693 108.67311,-10.71248 22.20589,37.59783 -2.03959,77.35292 -38.23207,95.08674 -35.7647,17.52418 -83.27999,13.32908 -95.1474,0.1255 z"
         sodipodi:nodetypes="csssssssccssss" /><path
         id="path4976"
         style="display:inline;fill:#1a1b26;fill-opacity:1;fill-rule:evenodd;stroke:none;stroke-width:2.04968;stroke-linecap:butt;stroke-linejoin:miter;stroke-miterlimit:4;stroke-dasharray:none;stroke-opacity:1"
         d="m 614.02088,129.08591 c 26.7274,-3.71503 49.76499,6.9887 53.36747,33.38093 2.7442,20.1042 -28.02405,42.0698 -46.52275,47.13605 -15.44765,4.23063 -48.98523,-1.20948 -51.24621,-30.42648 -2.35035,-30.37229 28.81698,-47.92431 44.40149,-50.0905 z m -13.08863,50.51507 c -17.5652,-27.21163 25.50339,-35.57759 32.09728,-30.61496 28.42767,21.39496 -24.35847,42.60375 -32.09728,30.61496 z"
         sodipodi:nodetypes="csssscss" /><path
         style="fill:#a9b1d6;fill-opacity:1;fill-rule:evenodd;stroke:none;stroke-width:2.04968;stroke-linecap:butt;stroke-linejoin:miter;stroke-miterlimit:4;stroke-dasharray:none;stroke-opacity:1"
         d="m 585.35459,248.99291 c -31.07013,-3.27427 -37.02064,-7.27315 -65.16776,-28.56883 -9.43363,-7.13737 -26.79629,-24.50374 -31.24504,-45.10632 -1.69432,-7.84659 0.30845,-14.62073 5.95957,-19.37166 18.09515,-15.21276 48.38087,-27.55495 73.22739,-39.48572 7.27758,-3.49453 2.45898,-9.83084 -9.27684,-19.990871 -29.61376,-25.637432 -69.65196,-56.845258 -72.4471,-80.625518 -1.31713,-11.2058404 2.51913,-26.432375 16.12049,-34.224565 15.88853,-9.102493 48.87079,-3.161413 70.89429,5.039676 32.18316,11.9843215 74.45891,38.433527 108.02176,64.432466 34.90114,27.035603 67.35154,61.374452 68.95672,66.975062 1.97111,6.87746 1.77463,13.22968 -2.02938,20.53309 -5.97368,11.46898 -13.96012,19.99116 -22.53546,29.53005 -23.00906,24.25731 -47.35406,45.572 -76.4813,61.90565 -21.0339,11.79514 -39.54024,21.53488 -63.99734,18.95749 z m 45.64034,-54.38305 c 22.44672,-10.85241 45.49779,-39.35757 -0.20002,-55.76422 -12.42632,-4.46137 -51.83554,10.95672 -50.62913,31.99758 1.75922,31.0813 23.42139,37.01756 50.82915,23.76664 z"
         id="path2977"
         sodipodi:nodetypes="cssssssssssscsscsss" /></g></g></svg>
