<?xml version="1.0" encoding="UTF-8" standalone="no"?>
<svg
   version="1.1"
   id="svg5033"
   xml:space="preserve"
   width="1920"
   height="1080"
   viewBox="0 0 1920 1080"
   sodipodi:docname="penguin-00.svg"
   inkscape:version="1.2 (dc2aedaf03, 2022-05-15)"
   inkscape:export-filename="../../../../Projects/personal/tokyo-night/wallpapers/night/os/linux/penguin_3840x2160.png"
   inkscape:export-xdpi="192"
   inkscape:export-ydpi="192"
   xmlns:inkscape="http://www.inkscape.org/namespaces/inkscape"
   xmlns:sodipodi="http://sodipodi.sourceforge.net/DTD/sodipodi-0.dtd"
   xmlns="http://www.w3.org/2000/svg"
   xmlns:svg="http://www.w3.org/2000/svg"
   xmlns:rdf="http://www.w3.org/1999/02/22-rdf-syntax-ns#"
   xmlns:cc="http://creativecommons.org/ns#"
   xmlns:dc="http://purl.org/dc/elements/1.1/"><metadata
     id="metadata5039"><rdf:RDF><cc:Work
         rdf:about=""><dc:format>image/svg+xml</dc:format><dc:type
           rdf:resource="http://purl.org/dc/dcmitype/StillImage" /></cc:Work></rdf:RDF></metadata><defs
     id="defs5037"><marker
       style="overflow:visible"
       id="Arrow1Lstart"
       refX="0"
       refY="0"
       orient="auto"
       inkscape:stockid="Arrow1Lstart"
       inkscape:isstock="true"><path
         transform="matrix(0.8,0,0,0.8,10,0)"
         style="fill:#c53d3d;fill-opacity:0.795004;fill-rule:evenodd;stroke:none;stroke-width:1pt;stroke-opacity:1"
         d="M 0,0 5,-5 -12.5,0 5,5 Z"
         id="path2155" /></marker><clipPath
       clipPathUnits="userSpaceOnUse"
       id="clipPath5049"><path
         d="M 0,600 H 600 V 0 H 0 Z"
         id="path5047"
         inkscape:connector-curvature="0" /></clipPath></defs><sodipodi:namedview
     pagecolor="#ffffff"
     bordercolor="#666666"
     borderopacity="1"
     objecttolerance="10"
     gridtolerance="10"
     guidetolerance="10"
     inkscape:pageopacity="0"
     inkscape:pageshadow="2"
     inkscape:window-width="1670"
     inkscape:window-height="1048"
     id="namedview5035"
     showgrid="false"
     inkscape:zoom="0.47292274"
     inkscape:cx="916.64021"
     inkscape:cy="674.52878"
     inkscape:window-x="2170"
     inkscape:window-y="32"
     inkscape:window-maximized="1"
     inkscape:current-layer="g5041"
     inkscape:document-rotation="0"
     inkscape:snap-global="true"
     showguides="true"
     inkscape:guide-bbox="true"
     fit-margin-top="0"
     fit-margin-left="0"
     fit-margin-right="0"
     fit-margin-bottom="0"
     inkscape:showpageshadow="0"
     inkscape:pagecheckerboard="0"
     inkscape:deskcolor="#d1d1d1"><inkscape:grid
       type="xygrid"
       id="grid997"
       originx="725.49429"
       originy="-129.70111" /></sodipodi:namedview><g
     id="g5041"
     inkscape:groupmode="layer"
     inkscape:label="penguin-clipart-publicdomainvectors.org"
     transform="matrix(1.3333333,0,0,-1.3333333,725.49429,670.29889)"><g
       id="g956"
       transform="translate(46.384326,0.71141601)" /><g
       id="g944"
       transform="translate(96.725563,0.71141601)" /><g
       id="g879"
       inkscape:export-xdpi="96"
       inkscape:export-ydpi="96"><rect
         style="fill:#24283b;stroke-width:78.7272;stroke-linecap:round;stroke-linejoin:round;paint-order:stroke markers fill;fill-opacity:1"
         id="rect835"
         width="1440"
         height="810"
         x="-544.12073"
         y="-502.72418"
         transform="scale(1,-1)" /><path
         style="fill:#4f6a3f;fill-opacity:1;stroke:none;stroke-width:5.4;stroke-linejoin:round;stroke-miterlimit:4;stroke-dasharray:none;stroke-opacity:1;paint-order:stroke markers fill"
         d="m 557.57374,39.497709 c -10.56441,-0.250583 -20.52337,-47.6894489 -19.24658,-67.740234 0.07,-1.100955 0.12179,-2.184585 0.16553,-3.254881 h 32.09326 c -8.21439,24.0753911 -10.18164,48.427464 -10.31983,69.997562 -0.89749,0.701948 -1.79709,1.018793 -2.69238,0.997553 z"
         id="path920" /><path
         id="rect2943"
         style="fill:#73daca;fill-opacity:1;stroke:none;stroke-width:5.4;stroke-linejoin:round;stroke-miterlimit:4;stroke-dasharray:none;stroke-opacity:1;paint-order:stroke markers fill"
         d="M -544.12062,226.94498 V -31.497406 H 524.42872 C 497.51859,9.2709756 510.07954,79.056205 541.1587,137.99527 c 15.97627,30.29677 34.45393,61.87634 43.6421,88.94971 z" /><path
         style="fill:#6da3bb;fill-opacity:1;stroke:none;stroke-width:4.67654;stroke-linejoin:round;stroke-miterlimit:4;stroke-dasharray:none;stroke-opacity:1;paint-order:stroke markers fill"
         d="m 557.57374,39.497709 c -10.56441,-0.250583 -20.52337,-47.6894489 -19.24658,-67.740234 0.07,-1.100955 0.12179,-2.184585 0.16553,-3.254881 h 32.09326 c -8.21439,24.0753911 -10.18164,48.427464 -10.31983,69.997562 -0.89749,0.701948 -1.79709,1.018793 -2.69238,0.997553 z"
         id="path929" /><path
         id="rect2945"
         style="fill:#7aa2f7;fill-opacity:1;stroke:none;stroke-width:4.67654;stroke-linejoin:round;stroke-miterlimit:4;stroke-dasharray:none;stroke-opacity:1;paint-order:stroke markers fill"
         d="M -544.12062,162.33512 V -31.497406 H 524.42872 C 497.51859,9.2709756 510.07954,79.056205 541.1587,137.99527 c 4.24994,8.05941 8.67163,16.20739 13.05469,24.33985 z" /><path
         id="path940"
         style="fill:#e0af68;fill-opacity:1;stroke:none;stroke-width:5.09117;stroke-linejoin:round;stroke-miterlimit:4;stroke-dasharray:none;stroke-opacity:1;paint-order:stroke markers fill"
         d="M 0 540 L 0 712.29492 L 1424.7324 712.29492 C 1396.7885 669.9603 1400.7866 604.16207 1423.4902 540 L 0 540 z M 1468.9258 617.63477 C 1454.8399 617.96888 1441.5613 681.2207 1443.2637 707.95508 C 1443.357 709.42302 1443.4261 710.86786 1443.4844 712.29492 L 1486.2754 712.29492 C 1475.3229 680.1944 1472.6999 647.72497 1472.5156 618.96484 C 1471.319 618.02891 1470.1195 617.60645 1468.9258 617.63477 z "
         transform="matrix(0.75000002,0,0,-0.75000002,-544.12073,502.72418)" /><path
         id="path949"
         style="fill:#f7768e;fill-opacity:1;stroke:none;stroke-width:3.6;stroke-linejoin:round;stroke-miterlimit:4;stroke-dasharray:none;stroke-opacity:1;paint-order:stroke markers fill"
         d="M 0 626.14648 L 0 712.29492 L 1424.7324 712.29492 C 1409.4899 689.20281 1403.7469 659.12925 1405.3594 626.14648 L 0 626.14648 z M 1459.7852 626.14648 C 1449.6661 644.36484 1441.9408 687.18058 1443.2637 707.95508 C 1443.357 709.42302 1443.4261 710.86786 1443.4844 712.29492 L 1486.2754 712.29492 C 1476.2241 682.83577 1473.1927 653.07506 1472.6211 626.14648 L 1459.7852 626.14648 z "
         transform="matrix(0.75000002,0,0,-0.75000002,-544.12073,502.72418)" /><path
         d="m 679.57172,116.58569 c 14.23,-20.347001 10.831,-166.834001 -29.779,-191.826001 -5.88,18.686 -14.905,44.473 -14.905,44.473 l -9.453,-45.789 c -54.963,13.019 -58.807,150.205 -48.438,192.403001 -12.205,-23.806001 -54.425,-68.722001 -48.84,-120.835001 -34.96,80.245 89.305,212.262001 71.878,265.410001 31.296,-21.086 166.089,-151.961 138.246,-261.611001 -1.737,34.405 -22.377,95.544 -58.709,117.775001 m -65.696,183.545 c 3.358,-0.089 6.006,-2.881 5.917,-6.236 -0.085,-3.355 -2.879,-6.005 -6.233,-5.917 -3.355,0.088 -6.006,2.88 -5.916,6.236 0.088,3.355 2.879,6.003 6.232,5.917 m -26.474,-17.641 c -0.645,0.823 -1.262,1.925 -2.286,2.966 -0.956,1.076 -2.033,2.29 -3.207,3.614 -1.269,1.223 -2.644,2.548 -4.097,3.95 -1.582,1.258 -3.142,2.695 -4.902,4.004 -1.78,1.289 -3.581,2.659 -5.548,3.868 -1.905,1.301 -3.939,2.465 -5.997,3.59 -2.016,1.201 -4.156,2.186 -6.215,3.235 -2.127,0.915 -4.152,1.977 -6.221,2.762 -4.066,1.742 -7.984,3.087 -11.353,4.238 -3.387,1.082 -6.237,1.998 -8.262,2.472 -2.037,0.51 -3.202,0.801 -3.202,0.801 0,0.002 1.204,0.034 3.303,-0.136 2.106,-0.188 5.111,-0.495 8.666,-1.215 3.543,-0.737 7.669,-1.758 11.942,-3.313 2.158,-0.722 4.328,-1.633 6.529,-2.567 2.15,-1.047 4.379,-2.03 6.493,-3.241 2.123,-1.197 4.212,-2.449 6.179,-3.838 2.045,-1.261 3.813,-2.862 5.608,-4.275 1.78,-1.436 3.278,-3.093 4.793,-4.532 1.409,-1.556 2.644,-3.113 3.804,-4.514 1.067,-1.484 1.944,-2.915 2.741,-4.155 0.847,-1.206 1.302,-2.44 1.808,-3.361 0.932,-1.899 1.41,-2.992 1.41,-2.992 0,0 -0.756,0.955 -1.986,2.639 m 121.629,-118.903 c -41.836,63.479 -40.615,107.465 -62.001,131.042 -30.392,33.504 -59.347,11.666 -72.261,16.056 -12.912,4.393 -48.111,19.812 -62.942,6.303 11.846,-0.889 51.591,-8.878 72.53,-38.524 20.938,-29.645 -15.033,-87.057 -43.198,-140.468 -33.046,-62.669001 -45.161,-137.605001 -11.146,-176.878001 8.853,-10.219 8.989,0.017 8.314,10.64 -1.385,21.75 10.452,75.727 21.94,66.742 0.256,-39.961 6.746,-89.472 47.724,-129.078 6.776,-6.551 3.147,-20.708999 -7.582,-26.872999 -4.295,-2.465 -4.529,-6.322 1.727,-7.838 1.248,-0.302 7.344,4.315 9.066,4.135 1.723,-0.174 0.934,-5.797 3.145,-5.814 3.364,-0.028 6.678,5.576 11.232,6.002 1.952,0.181 2.794,-5.295 4.971,-5.016 16.848,2.164 -4.342,24.977 7.414,30.274999 4.545,2.053 12.828,3.284 17.154,-2.371 3.229,-4.221999 -9.414,-23.598999 2.107,-25.925999 2.232,-0.451 6.919,4.872 9.652,4.668 3.444,-0.257 5.011,-5.966 8.5,-5.779 3.118,0.166 1.531,5.809 4.057,6.375 3.999,0.893 11.444,-2.98 12.046,-0.949 2.552,8.603 -19.332,8.035 -15.603,34.425999 27.007,36.207 25.722,98.111 30.173,118.843 22.679,-26.195 19.741,-48.55 18.23,-65.916 -0.785,-9.029 2.125,-18.945 7.705,-7.634 25.325,51.334 40.535,107.218 -22.954,203.557001"
         style="fill:#a9b1d6;fill-opacity:1;fill-rule:nonzero;stroke:none;stroke-width:0;stroke-miterlimit:4;stroke-dasharray:none"
         id="path5051"
         inkscape:connector-curvature="0"
         sodipodi:nodetypes="cccccccccccscccccccccccccccccccccccccccccccccccccccccccccsscccccccc" /><path
         id="path2112"
         style="color:#000000;font-style:normal;font-variant:normal;font-weight:normal;font-stretch:normal;font-size:medium;line-height:normal;font-family:sans-serif;font-variant-ligatures:normal;font-variant-position:normal;font-variant-caps:normal;font-variant-numeric:normal;font-variant-alternates:normal;font-variant-east-asian:normal;font-feature-settings:normal;font-variation-settings:normal;text-indent:0;text-align:start;text-decoration:none;text-decoration-line:none;text-decoration-style:solid;text-decoration-color:#000000;letter-spacing:normal;word-spacing:normal;text-transform:none;writing-mode:lr-tb;direction:ltr;text-orientation:mixed;dominant-baseline:auto;baseline-shift:baseline;text-anchor:start;white-space:normal;shape-padding:0;shape-margin:0;inline-size:0;clip-rule:nonzero;display:inline;overflow:visible;visibility:visible;isolation:auto;mix-blend-mode:normal;color-interpolation:sRGB;color-interpolation-filters:linearRGB;solid-color:#000000;solid-opacity:1;vector-effect:none;fill:#a9b1d6;fill-opacity:1;fill-rule:nonzero;stroke:none;stroke-width:3.30208;stroke-linecap:butt;stroke-linejoin:miter;stroke-miterlimit:4;stroke-dasharray:none;stroke-dashoffset:0;stroke-opacity:1;color-rendering:auto;image-rendering:auto;shape-rendering:auto;text-rendering:auto;enable-background:accumulate;stop-color:#000000"
         d="m 731.69589,-135.4077 23.29301,-48.1553 -23.67994,-48.15532 h 3.67612 l 21.8365,44.38242 0.91906,-1.89183 -20.92822,-42.49059 h 3.67612 l 19.08478,38.71769 0.91904,-1.89181 -18.17648,-36.82588 h 3.67612 l 16.33304,33.05298 0.91906,-1.89182 -15.42475,-31.16116 h 3.68151 l 13.57592,27.38304 0.91905,-1.8866 -12.67302,-25.49644 h 3.68688 l 10.81882,21.71831 11.05531,-21.71831 h 3.69764 l -47.21479,96.31062 z m 5.50348,0 47.2148,-96.31062 h 3.67075 l -47.21477,96.31062 z m 5.50346,0 47.2148,-96.31062 h 3.67075 l -47.21477,96.31062 z m 5.50346,0 47.2148,-96.31062 h 3.67076 l -47.21478,96.31062 z m 5.50346,0 47.2148,-96.31062 h 3.67076 l -23.92716,48.15532 22.87376,48.1553 h -3.64925 l -21.05723,-44.3824 -0.91902,1.89181 20.12205,42.49059 h -3.64926 l -18.30549,-38.71769 -0.91902,1.89181 17.37031,36.82588 h -3.64391 l -15.55912,-33.05297 -0.91902,1.89183 14.61859,31.16114 h -3.63855 l -12.81275,-27.38303 -0.91901,1.88659 11.86683,25.49644 h -3.63314 l -10.06641,-21.71831 -10.45873,21.71831 z" /><path
         id="path2102"
         style="color:#000000;font-style:normal;font-variant:normal;font-weight:normal;font-stretch:normal;font-size:medium;line-height:normal;font-family:sans-serif;font-variant-ligatures:normal;font-variant-position:normal;font-variant-caps:normal;font-variant-numeric:normal;font-variant-alternates:normal;font-variant-east-asian:normal;font-feature-settings:normal;font-variation-settings:normal;text-indent:0;text-align:start;text-decoration:none;text-decoration-line:none;text-decoration-style:solid;text-decoration-color:#000000;letter-spacing:normal;word-spacing:normal;text-transform:none;writing-mode:lr-tb;direction:ltr;text-orientation:mixed;dominant-baseline:auto;baseline-shift:baseline;text-anchor:start;white-space:normal;shape-padding:0;shape-margin:0;inline-size:0;clip-rule:nonzero;display:inline;overflow:visible;visibility:visible;isolation:auto;mix-blend-mode:normal;color-interpolation:sRGB;color-interpolation-filters:linearRGB;solid-color:#000000;solid-opacity:1;vector-effect:none;fill:#a9b1d6;fill-opacity:1;fill-rule:nonzero;stroke:none;stroke-width:3.30208;stroke-linecap:butt;stroke-linejoin:miter;stroke-miterlimit:4;stroke-dasharray:none;stroke-dashoffset:0;stroke-opacity:1;color-rendering:auto;image-rendering:auto;shape-rendering:auto;text-rendering:auto;enable-background:accumulate;stop-color:#000000"
         d="m 654.3518,-135.4077 v -60.26402 c 0,-12.87592 6.8751,-24.77687 18.026,-31.21484 11.15089,-6.43822 24.89035,-6.43822 36.04125,0 11.1509,6.43797 18.026,18.33892 18.026,31.21484 v 60.26402 h -3.29995 v -60.26402 c 0,-11.70147 -6.23682,-22.50505 -16.37065,-28.35579 -10.1338,-5.85073 -22.61825,-5.85073 -32.75206,0 -10.13382,5.85074 -16.37066,16.65432 -16.37066,28.35579 v 60.26402 z m 5.50346,0 v -60.26402 c 0,-10.90979 5.82614,-20.9982 15.27427,-26.45322 9.44812,-5.45478 21.08965,-5.45478 30.53779,0 9.44813,5.45502 15.27425,15.54343 15.27425,26.45322 v 60.26402 h -3.29993 v -60.26402 c 0,-9.73537 -5.18787,-18.72636 -13.61892,-23.59391 -8.43103,-4.86781 -18.81756,-4.86781 -27.24859,0 -8.43106,4.86755 -13.61893,13.85855 -13.61893,23.59391 v 60.26402 z m 5.50348,0 v -60.26402 c 0,-8.94368 4.77716,-17.2143 12.52251,-21.68586 7.74537,-4.47321 17.28898,-4.47321 25.03433,0 7.74537,4.47156 12.52253,12.74218 12.52253,21.68586 v 60.26402 h -3.29993 v -60.26402 c 0,-7.76924 -4.13891,-14.94219 -10.8672,-18.8268 -6.72826,-3.88463 -15.01686,-3.88463 -21.74513,0 -6.72827,3.88462 -10.86719,11.05756 -10.86719,18.8268 v 60.26402 z m 5.50346,0 v -60.26402 c 0,-6.9773 3.72827,-13.43011 9.77079,-16.91875 6.04259,-3.48865 13.48828,-3.48865 19.53087,0 6.04252,3.48865 9.77079,9.94146 9.77079,16.91875 v 60.26402 h -3.29994 v -60.26402 c 0,-5.80287 -3.08997,-11.15828 -8.11545,-14.05971 -5.02547,-2.90142 -11.2162,-2.90142 -16.24167,0 -5.02548,2.90143 -8.11547,8.25684 -8.11547,14.05971 v 60.26402 z m 5.50346,0 v -60.26402 c 0,-5.01118 2.67931,-9.65142 7.01907,-12.15715 4.33978,-2.50546 9.68761,-2.50546 14.02739,0 4.33976,2.50573 7.01907,7.14597 7.01907,12.15715 v 60.26402 h -3.29994 v -60.26402 c 0,-3.83673 -2.04102,-7.37961 -5.36373,-9.29782 -3.32268,-1.91851 -7.41551,-1.91851 -10.73819,0 -3.32272,1.91821 -5.36373,5.46109 -5.36373,9.29782 v 60.26402 z" /><path
         id="path2092"
         style="color:#000000;font-style:normal;font-variant:normal;font-weight:normal;font-stretch:normal;font-size:medium;line-height:normal;font-family:sans-serif;font-variant-ligatures:normal;font-variant-position:normal;font-variant-caps:normal;font-variant-numeric:normal;font-variant-alternates:normal;font-variant-east-asian:normal;font-feature-settings:normal;font-variation-settings:normal;text-indent:0;text-align:start;text-decoration:none;text-decoration-line:none;text-decoration-style:solid;text-decoration-color:#000000;letter-spacing:normal;word-spacing:normal;text-transform:none;writing-mode:lr-tb;direction:ltr;text-orientation:mixed;dominant-baseline:auto;baseline-shift:baseline;text-anchor:start;white-space:normal;shape-padding:0;shape-margin:0;inline-size:0;clip-rule:nonzero;display:inline;overflow:visible;visibility:visible;isolation:auto;mix-blend-mode:normal;color-interpolation:sRGB;color-interpolation-filters:linearRGB;solid-color:#000000;solid-opacity:1;vector-effect:none;fill:#a9b1d6;fill-opacity:1;fill-rule:nonzero;stroke:none;stroke-width:3.30208;stroke-linecap:butt;stroke-linejoin:miter;stroke-miterlimit:4;stroke-dasharray:none;stroke-dashoffset:0;stroke-opacity:1;color-rendering:auto;image-rendering:auto;shape-rendering:auto;text-rendering:auto;enable-background:accumulate;stop-color:#000000"
         d="m 572.90161,-135.4077 v -96.31062 h 3.29992 v 89.141 l 2.20354,-4.54145 v -84.59954 h 3.29992 v 77.80633 l 2.20354,-4.53596 v -73.27037 h 3.29994 v 66.47689 l 2.20352,-4.53596 v -61.94093 h 3.29994 v 55.14747 l 2.20353,-4.53596 v -50.61151 h 3.29993 v 43.81803 l 21.10557,-43.81803 h 3.66002 l -46.5967,96.31062 h -1.83272 z m 5.25084,0 46.6666,-96.31062 h 3.66539 l -46.66656,96.31062 z m 5.50346,0 46.66662,-96.31062 h 3.66539 l -46.66658,96.31062 z m 5.50348,0 46.6666,-96.31062 h 3.66539 l -46.66658,96.31062 z m 5.50346,0 46.84934,-96.31062 h 1.83269 1.64996 v 96.31062 h -3.29993 v -89.14098 l -2.20353,4.53595 v 84.60503 h -3.29993 v -77.80632 l -2.20353,4.53595 v 73.27037 h -3.29994 v -66.47689 l -2.20354,4.53596 v 61.94093 h -3.29992 v -55.14746 l -2.20354,4.53595 v 50.61151 h -3.29992 v -43.81802 l -21.34743,43.81802 z" /><path
         id="path2082"
         style="color:#000000;font-style:normal;font-variant:normal;font-weight:normal;font-stretch:normal;font-size:medium;line-height:normal;font-family:sans-serif;font-variant-ligatures:normal;font-variant-position:normal;font-variant-caps:normal;font-variant-numeric:normal;font-variant-alternates:normal;font-variant-east-asian:normal;font-feature-settings:normal;font-variation-settings:normal;text-indent:0;text-align:start;text-decoration:none;text-decoration-line:none;text-decoration-style:solid;text-decoration-color:#000000;letter-spacing:normal;word-spacing:normal;text-transform:none;writing-mode:lr-tb;direction:ltr;text-orientation:mixed;dominant-baseline:auto;baseline-shift:baseline;text-anchor:start;white-space:normal;shape-padding:0;shape-margin:0;inline-size:0;clip-rule:nonzero;display:inline;overflow:visible;visibility:visible;isolation:auto;mix-blend-mode:normal;color-interpolation:sRGB;color-interpolation-filters:linearRGB;solid-color:#000000;solid-opacity:1;vector-effect:none;fill:#a9b1d6;fill-opacity:1;fill-rule:nonzero;stroke:none;stroke-width:3.30208;stroke-linecap:butt;stroke-linejoin:miter;stroke-miterlimit:4;stroke-dasharray:none;stroke-dashoffset:0;stroke-opacity:1;color-rendering:auto;image-rendering:auto;shape-rendering:auto;text-rendering:auto;enable-background:accumulate;stop-color:#000000"
         d="m 536.02731,-135.4077 v -96.31062 h 3.29993 v 96.31062 z m 5.50346,0 v -96.31062 h 3.29995 v 96.31062 z m 5.50348,0 v -96.31062 h 3.29993 v 96.31062 z m 5.50346,0 v -96.31062 h 3.29993 v 96.31062 z m 5.50346,0 v -96.31062 h 3.29994 v 96.31062 z" /><path
         id="path2072"
         style="color:#000000;font-style:normal;font-variant:normal;font-weight:normal;font-stretch:normal;font-size:medium;line-height:normal;font-family:sans-serif;font-variant-ligatures:normal;font-variant-position:normal;font-variant-caps:normal;font-variant-numeric:normal;font-variant-alternates:normal;font-variant-east-asian:normal;font-feature-settings:normal;font-variation-settings:normal;text-indent:0;text-align:start;text-decoration:none;text-decoration-line:none;text-decoration-style:solid;text-decoration-color:#000000;letter-spacing:normal;word-spacing:normal;text-transform:none;writing-mode:lr-tb;direction:ltr;text-orientation:mixed;dominant-baseline:auto;baseline-shift:baseline;text-anchor:start;white-space:normal;shape-padding:0;shape-margin:0;inline-size:0;clip-rule:nonzero;display:inline;overflow:visible;visibility:visible;isolation:auto;mix-blend-mode:normal;color-interpolation:sRGB;color-interpolation-filters:linearRGB;solid-color:#000000;solid-opacity:1;vector-effect:none;fill:#a9b1d6;fill-opacity:1;fill-rule:nonzero;stroke:none;stroke-width:3.30208;stroke-linecap:butt;stroke-linejoin:miter;stroke-miterlimit:4;stroke-dasharray:none;stroke-dashoffset:0;stroke-opacity:1;color-rendering:auto;image-rendering:auto;shape-rendering:auto;text-rendering:auto;enable-background:accumulate;stop-color:#000000"
         d="m 458.97881,-135.4077 v -96.31062 h 3.29993 v 96.31062 z m 5.50346,0 v -96.31062 h 3.29995 v 96.31062 z m 5.50346,0 v -96.31062 h 3.29995 v 96.31062 z m 5.50348,0 v -96.31062 h 3.29993 v 96.31062 z m 5.50346,0 v -96.31062 h 48.42942 v 3.30539 h -45.1295 v 2.19808 h 45.1295 v 3.30538 h -45.1295 v 2.19808 h 45.1295 v 3.30538 h -45.1295 v 2.1981 h 45.1295 v 3.30538 h -45.1295 v 2.19808 h 45.1295 v 3.30538 h -45.1295 v 70.99138 z" /></g></g></svg>
